G04*
G04 #@! TF.GenerationSoftware,Altium Limited,Altium Designer,25.6.2 (33)*
G04*
G04 Layer_Color=65535*
%FSLAX44Y44*%
%MOMM*%
G71*
G04*
G04 #@! TF.SameCoordinates,86BBD976-67B5-41F1-AD37-A89888A357BC*
G04*
G04*
G04 #@! TF.FilePolarity,Positive*
G04*
G01*
G75*
%ADD10C,0.1000*%
%ADD11C,0.2500*%
%ADD12C,0.6000*%
%ADD13C,0.2000*%
%ADD14C,0.2540*%
%ADD15C,0.1500*%
%ADD16C,0.1524*%
%ADD17C,0.1270*%
%ADD18C,0.1200*%
D10*
X398730Y382000D02*
G03*
X398730Y383000I0J500D01*
G01*
D02*
G03*
X398730Y382000I0J-500D01*
G01*
X444279Y402003D02*
G03*
X443279Y402003I-500J0D01*
G01*
D02*
G03*
X444279Y402003I500J0D01*
G01*
X432730Y362500D02*
Y365000D01*
X425730Y362500D02*
X432730D01*
X402729D02*
X409730D01*
X402729D02*
Y364000D01*
X432730Y385000D02*
Y387500D01*
X425730D02*
X432730D01*
X402729D02*
X409730D01*
X402729Y385000D02*
Y387500D01*
D11*
X407480Y314977D02*
G03*
X407480Y314977I-1250J0D01*
G01*
X270250Y332000D02*
G03*
X270250Y332000I-1250J0D01*
G01*
D12*
X296500Y319000D02*
G03*
X296500Y319000I-3000J0D01*
G01*
D13*
X418650Y222000D02*
G03*
X418650Y222000I-1000J0D01*
G01*
X493230Y193030D02*
X494730Y194530D01*
Y223774D01*
X479730Y194280D02*
Y223774D01*
X485034D02*
X494730D01*
X479730D02*
X485034D01*
X480980Y193030D02*
X493230D01*
X479730Y194280D02*
X480980Y193030D01*
X174730Y387110D02*
X176230Y388611D01*
X174730Y357867D02*
Y387110D01*
X189730Y357867D02*
Y387360D01*
X174730Y357867D02*
X184426D01*
X189730D01*
X176230Y388611D02*
X188480D01*
X189730Y387360D01*
X416230Y312477D02*
X419230D01*
X416230Y281476D02*
X419230D01*
X416230D02*
Y312477D01*
X419230Y281476D02*
Y312477D01*
X475579Y344853D02*
X483579D01*
X475579Y408353D02*
X483579D01*
X475579Y351203D02*
X483579D01*
X475579Y402003D02*
X483579D01*
X283500Y246000D02*
X366501D01*
X283500Y329000D02*
X366501D01*
Y246000D02*
Y329000D01*
X283500Y246000D02*
Y329000D01*
X508770Y193030D02*
X510270Y194530D01*
Y223774D01*
X495270Y194280D02*
Y223774D01*
X500574D02*
X510270D01*
X495270D02*
X500574D01*
X496520Y193030D02*
X508770D01*
X495270Y194280D02*
X496520Y193030D01*
D14*
X221760Y196000D02*
X237000Y211240D01*
Y173140D02*
Y211240D01*
X221760Y196000D02*
X252240D01*
X237000Y211240D02*
X252240Y196000D01*
X198812Y264727D02*
X199281D01*
Y280665D01*
X176718Y323711D02*
X186095D01*
X198815Y328227D02*
X199272D01*
Y312301D02*
Y328227D01*
X176624Y269525D02*
X186001D01*
X166500Y293977D02*
Y312855D01*
Y316665D01*
X151500Y311476D02*
X165999D01*
X151500Y293976D02*
Y311476D01*
Y293976D02*
X166500D01*
Y276288D02*
Y293977D01*
X524460Y242500D02*
Y332500D01*
X507546Y242500D02*
X524460D01*
X467245D02*
X487374D01*
X507546Y332500D02*
X524460D01*
X467245D02*
X487374D01*
X181812Y190439D02*
X193499D01*
X181812Y235959D02*
X193499D01*
Y201519D02*
Y204318D01*
Y222098D02*
Y224896D01*
X158499Y223208D02*
X170499D01*
X158499Y203208D02*
X170499D01*
X158499D02*
Y223208D01*
X193499Y204318D02*
Y222098D01*
D15*
X458000Y132980D02*
Y134900D01*
X428000Y132980D02*
X458000D01*
X428000D02*
Y134900D01*
Y143060D02*
Y144980D01*
X458000Y143060D02*
Y144980D01*
X428000D02*
X458000D01*
X443000Y132980D02*
Y144980D01*
X458000Y145020D02*
Y146940D01*
X428000Y145020D02*
X458000D01*
X428000D02*
Y146940D01*
Y155100D02*
Y157020D01*
X458000Y155100D02*
Y157020D01*
X428000D02*
X458000D01*
X443000Y145020D02*
Y157020D01*
X422000Y359000D02*
X425000D01*
X422000Y331000D02*
Y359000D01*
Y331000D02*
X425000D01*
X433000D02*
X436000D01*
Y359000D01*
X433000D02*
X436000D01*
X422000Y345000D02*
X436000D01*
X408000Y359000D02*
X411000D01*
X408000Y331000D02*
Y359000D01*
Y331000D02*
X411000D01*
X419000D02*
X422000D01*
Y359000D01*
X419000D02*
X422000D01*
X408000Y345000D02*
X422000D01*
X229500Y347000D02*
X247500D01*
X243500Y330000D02*
X247500D01*
Y364000D01*
X243500D02*
X247500D01*
X229500D02*
X233500D01*
X229500Y330000D02*
Y364000D01*
Y330000D02*
X233500D01*
X263000Y364000D02*
X266000D01*
X263000Y336000D02*
Y364000D01*
Y336000D02*
X266000D01*
X274000D02*
X277000D01*
Y364000D01*
X274000D02*
X277000D01*
X263000Y350000D02*
X277000D01*
X247750Y364000D02*
X250750D01*
X247750Y336000D02*
Y364000D01*
Y336000D02*
X250750D01*
X258750D02*
X261750D01*
Y364000D01*
X258750D02*
X261750D01*
X247750Y350000D02*
X261750D01*
X238780Y256500D02*
X252781D01*
X238780Y242500D02*
X241781D01*
X238780D02*
Y270500D01*
X241781D01*
X249781D02*
X252781D01*
Y242500D02*
Y270500D01*
X249781Y242500D02*
X252781D01*
X375500Y345000D02*
X389500D01*
X386500Y359000D02*
X389500D01*
Y331000D02*
Y359000D01*
X386500Y331000D02*
X389500D01*
X375500D02*
X378500D01*
X375500D02*
Y359000D01*
X378500D01*
X301500Y189000D02*
X304500D01*
Y217000D01*
X301500D02*
X304500D01*
X290500D02*
X293500D01*
X290500Y189000D02*
Y217000D01*
Y189000D02*
X293500D01*
X290500Y203000D02*
X304500D01*
X250000Y324395D02*
Y327395D01*
X222000D02*
X250000D01*
X222000Y324395D02*
Y327395D01*
Y313395D02*
Y316395D01*
Y313395D02*
X250000D01*
Y316395D01*
X236000Y313395D02*
Y327395D01*
X234603Y242500D02*
X237603D01*
Y270500D01*
X234603D02*
X237603D01*
X223603D02*
X226603D01*
X223603Y242500D02*
Y270500D01*
Y242500D02*
X226603D01*
X223603Y256500D02*
X237603D01*
X348500Y200000D02*
X366500D01*
X348500Y217000D02*
X352500D01*
X348500Y183000D02*
Y217000D01*
Y183000D02*
X352500D01*
X362500D02*
X366500D01*
Y217000D01*
X362500D02*
X366500D01*
X389500Y328000D02*
X393500D01*
X389500D02*
Y362000D01*
X393500D01*
X403500D02*
X407500D01*
Y328000D02*
Y362000D01*
X403500Y328000D02*
X407500D01*
X389500Y345000D02*
X407500D01*
X402650Y198250D02*
Y212250D01*
X416650Y198250D02*
Y201250D01*
X388650Y198250D02*
X416650D01*
X388650D02*
Y201250D01*
Y209250D02*
Y212250D01*
X416650D01*
Y209250D02*
Y212250D01*
X420500Y225000D02*
X434500D01*
X420500Y211000D02*
X423500D01*
X420500D02*
Y239000D01*
X423500D01*
X431500D02*
X434500D01*
Y211000D02*
Y239000D01*
X431500Y211000D02*
X434500D01*
X190020Y373238D02*
X202020D01*
Y358238D02*
Y388239D01*
X200100Y358238D02*
X202020D01*
X200100Y388239D02*
X202020D01*
X190020D02*
X191940D01*
X190020Y358238D02*
Y388239D01*
Y358238D02*
X191940D01*
X379000Y189000D02*
X382000D01*
Y217000D01*
X379000D02*
X382000D01*
X368000D02*
X371000D01*
X368000Y189000D02*
Y217000D01*
Y189000D02*
X371000D01*
X368000Y203000D02*
X382000D01*
X328000Y203000D02*
X342000D01*
X328000Y189000D02*
X331000D01*
X328000D02*
Y217000D01*
X331000D01*
X339000D02*
X342000D01*
Y189000D02*
Y217000D01*
X339000Y189000D02*
X342000D01*
X417730Y253999D02*
Y265999D01*
X402730D02*
X432730D01*
Y264079D02*
Y265999D01*
X402730Y264079D02*
Y265999D01*
Y253999D02*
Y255919D01*
Y253999D02*
X432730D01*
Y255919D01*
X417730Y266499D02*
Y278499D01*
X402730Y266499D02*
X432730D01*
X402730D02*
Y268419D01*
X432730Y266499D02*
Y268419D01*
Y276579D02*
Y278499D01*
X402730D02*
X432730D01*
X402730Y276579D02*
Y278499D01*
D16*
X219216Y311785D02*
X252788D01*
Y271213D02*
Y311785D01*
X219216Y271213D02*
X252788D01*
X219216D02*
Y311785D01*
X216929Y314071D02*
X233501D01*
X216929Y295499D02*
Y314071D01*
D17*
X411150Y235300D02*
X412950D01*
Y231300D02*
Y235300D01*
Y214700D02*
Y218700D01*
X411150Y214700D02*
X412950D01*
X392350D02*
X394150D01*
X392350D02*
Y218700D01*
Y235300D02*
X394150D01*
X392350Y231300D02*
Y235300D01*
D18*
X491104Y169004D02*
X483106D01*
Y173002D01*
X484439Y174335D01*
X487105D01*
X488438Y173002D01*
Y169004D01*
X483106Y177001D02*
X491104D01*
X488438Y179667D01*
X491104Y182333D01*
X483106D01*
X491104Y184998D02*
X483106D01*
Y188997D01*
X484439Y190330D01*
X487105D01*
X488438Y188997D01*
Y184998D01*
Y187664D02*
X491104Y190330D01*
X169200Y176013D02*
Y184010D01*
X173199D01*
X174532Y182677D01*
Y180011D01*
X173199Y178678D01*
X169200D01*
X171866D02*
X174532Y176013D01*
X182529Y182677D02*
X181196Y184010D01*
X178530D01*
X177197Y182677D01*
Y181344D01*
X178530Y180011D01*
X181196D01*
X182529Y178678D01*
Y177346D01*
X181196Y176013D01*
X178530D01*
X177197Y177346D01*
X185195Y184010D02*
X190527D01*
X187861D01*
Y176013D01*
X169199Y261276D02*
Y253279D01*
X173198D01*
X174531Y254611D01*
Y259943D01*
X173198Y261276D01*
X169199D01*
X182528D02*
X177197D01*
Y257277D01*
X179862D01*
X177197D01*
Y253279D01*
X185194Y261276D02*
Y254611D01*
X186527Y253279D01*
X189193D01*
X190526Y254611D01*
Y261276D01*
X174531Y339675D02*
X169199D01*
Y335676D01*
X171865D01*
X169199D01*
Y331677D01*
X177197Y339675D02*
Y331677D01*
X182528D01*
X185194D02*
Y337009D01*
X187860Y339675D01*
X190526Y337009D01*
Y331677D01*
Y335676D01*
X185194D01*
X198523Y338342D02*
X197190Y339675D01*
X194524D01*
X193192Y338342D01*
Y337009D01*
X194524Y335676D01*
X197190D01*
X198523Y334343D01*
Y333010D01*
X197190Y331677D01*
X194524D01*
X193192Y333010D01*
X201189Y339675D02*
Y331677D01*
Y335676D01*
X206521D01*
Y339675D01*
Y331677D01*
X498646Y170336D02*
Y173002D01*
Y171669D01*
X506644D01*
Y170336D01*
Y173002D01*
Y177001D02*
X498646D01*
X501312Y179667D01*
X498646Y182332D01*
X506644D01*
X498646Y184998D02*
X505311D01*
X506644Y186331D01*
Y188997D01*
X505311Y190330D01*
X498646D01*
X281666Y175364D02*
X280333Y176697D01*
X277667D01*
X276334Y175364D01*
Y170033D01*
X277667Y168700D01*
X280333D01*
X281666Y170033D01*
Y172699D01*
X279000D01*
X297736Y439797D02*
X303067D01*
X300401D01*
Y431800D01*
X311064D02*
X305733D01*
X311064Y437132D01*
Y438464D01*
X309732Y439797D01*
X307066D01*
X305733Y438464D01*
X323135Y431800D02*
Y439797D01*
X327134D01*
X328467Y438464D01*
Y435799D01*
X327134Y434466D01*
X323135D01*
X325801D02*
X328467Y431800D01*
X336465D02*
X331133D01*
X336465Y437132D01*
Y438464D01*
X335132Y439797D01*
X332466D01*
X331133Y438464D01*
X383266D02*
X381933Y439797D01*
X379267D01*
X377934Y438464D01*
Y433133D01*
X379267Y431800D01*
X381933D01*
X383266Y433133D01*
Y435799D01*
X380600D01*
X273668Y404967D02*
X272335Y406300D01*
X269670D01*
X268337Y404967D01*
Y399636D01*
X269670Y398303D01*
X272335D01*
X273668Y399636D01*
X276334Y398303D02*
Y403634D01*
X279000Y406300D01*
X281666Y403634D01*
Y398303D01*
Y402301D01*
X276334D01*
X284332Y398303D02*
Y406300D01*
X286997Y403634D01*
X289663Y406300D01*
Y398303D01*
X353867Y439797D02*
X348535D01*
Y435799D01*
X351201Y437132D01*
X352534D01*
X353867Y435799D01*
Y433133D01*
X352534Y431800D01*
X349868D01*
X348535Y433133D01*
X356533Y439797D02*
Y434466D01*
X359199Y431800D01*
X361865Y434466D01*
Y439797D01*
X408666Y404967D02*
X407333Y406300D01*
X404667D01*
X403334Y404967D01*
Y399636D01*
X404667Y398303D01*
X407333D01*
X408666Y399636D01*
Y402301D01*
X406000D01*
X303067Y404967D02*
X301734Y406300D01*
X299068D01*
X297736Y404967D01*
Y399636D01*
X299068Y398303D01*
X301734D01*
X303067Y399636D01*
X311064Y404967D02*
X309732Y406300D01*
X307066D01*
X305733Y404967D01*
Y399636D01*
X307066Y398303D01*
X309732D01*
X311064Y399636D01*
X348535Y406300D02*
X353867D01*
X351201D01*
Y398303D01*
X361865Y406300D02*
X356533D01*
Y402301D01*
X359199Y403634D01*
X360532D01*
X361865Y402301D01*
Y399636D01*
X360532Y398303D01*
X357866D01*
X356533Y399636D01*
X379267Y406300D02*
X373936D01*
Y402301D01*
X376601Y403634D01*
X377934D01*
X379267Y402301D01*
Y399636D01*
X377934Y398303D01*
X375268D01*
X373936Y399636D01*
X381933Y406300D02*
Y400968D01*
X384599Y398303D01*
X387265Y400968D01*
Y406300D01*
X323135Y398303D02*
Y406300D01*
X327134D01*
X328467Y404967D01*
Y402301D01*
X327134Y400968D01*
X323135D01*
X325801D02*
X328467Y398303D01*
X336465Y406300D02*
X331133D01*
Y402301D01*
X333799Y403634D01*
X335132D01*
X336465Y402301D01*
Y399636D01*
X335132Y398303D01*
X332466D01*
X331133Y399636D01*
X281666Y141862D02*
X280333Y143195D01*
X277667D01*
X276334Y141862D01*
Y136531D01*
X277667Y135198D01*
X280333D01*
X281666Y136531D01*
Y139197D01*
X279000D01*
X399336Y135198D02*
Y143195D01*
X403334D01*
X404667Y141862D01*
Y139197D01*
X403334Y137864D01*
X399336D01*
X402001D02*
X404667Y135198D01*
X407333Y141862D02*
X408666Y143195D01*
X411332D01*
X412664Y141862D01*
Y140529D01*
X411332Y139197D01*
X409999D01*
X411332D01*
X412664Y137864D01*
Y136531D01*
X411332Y135198D01*
X408666D01*
X407333Y136531D01*
X319137Y143195D02*
Y135198D01*
X323135D01*
X324468Y136531D01*
Y137864D01*
X323135Y139197D01*
X319137D01*
X323135D01*
X324468Y140529D01*
Y141862D01*
X323135Y143195D01*
X319137D01*
X327134Y135198D02*
Y140529D01*
X329800Y143195D01*
X332466Y140529D01*
Y135198D01*
Y139197D01*
X327134D01*
X335132Y143195D02*
X340463D01*
X337797D01*
Y135198D01*
X303067Y143195D02*
X297736D01*
Y139197D01*
X300401Y140529D01*
X301734D01*
X303067Y139197D01*
Y136531D01*
X301734Y135198D01*
X299068D01*
X297736Y136531D01*
X305733Y143195D02*
Y137864D01*
X308399Y135198D01*
X311064Y137864D01*
Y143195D01*
X348535Y176697D02*
X353867D01*
X351201D01*
Y168700D01*
X360532D02*
Y176697D01*
X356533Y172699D01*
X361865D01*
X400668Y175364D02*
X399336Y176697D01*
X396670D01*
X395337Y175364D01*
Y174032D01*
X396670Y172699D01*
X399336D01*
X400668Y171366D01*
Y170033D01*
X399336Y168700D01*
X396670D01*
X395337Y170033D01*
X408666Y175364D02*
X407333Y176697D01*
X404667D01*
X403334Y175364D01*
Y170033D01*
X404667Y168700D01*
X407333D01*
X408666Y170033D01*
X411332Y176697D02*
Y168700D01*
X416663D01*
X303067Y176697D02*
X297736D01*
Y172699D01*
X300401Y174032D01*
X301734D01*
X303067Y172699D01*
Y170033D01*
X301734Y168700D01*
X299068D01*
X297736Y170033D01*
X305733Y176697D02*
Y171366D01*
X308399Y168700D01*
X311064Y171366D01*
Y176697D01*
X323135Y168700D02*
Y176697D01*
X327134D01*
X328467Y175364D01*
Y172699D01*
X327134Y171366D01*
X323135D01*
X325801D02*
X328467Y168700D01*
X331133Y176697D02*
X336465Y168700D01*
Y176697D02*
X331133Y168700D01*
X373936Y143195D02*
X379267D01*
X376601D01*
Y135198D01*
X381933Y141862D02*
X383266Y143195D01*
X385932D01*
X387265Y141862D01*
Y140529D01*
X385932Y139197D01*
X384599D01*
X385932D01*
X387265Y137864D01*
Y136531D01*
X385932Y135198D01*
X383266D01*
X381933Y136531D01*
X375268Y175364D02*
X373936Y176697D01*
X371270D01*
X369937Y175364D01*
Y174032D01*
X371270Y172699D01*
X373936D01*
X375268Y171366D01*
Y170033D01*
X373936Y168700D01*
X371270D01*
X369937Y170033D01*
X377934Y176697D02*
Y168700D01*
X381933D01*
X383266Y170033D01*
Y175364D01*
X381933Y176697D01*
X377934D01*
X385932Y168700D02*
Y174032D01*
X388597Y176697D01*
X391263Y174032D01*
Y168700D01*
Y172699D01*
X385932D01*
X344537Y143195D02*
Y137864D01*
X347203Y135198D01*
X349868Y137864D01*
Y143195D01*
X352534D02*
X357866D01*
X355200D01*
Y135198D01*
X360532Y143195D02*
X365863Y135198D01*
Y143195D02*
X360532Y135198D01*
M02*
