G04*
G04 #@! TF.GenerationSoftware,Altium Limited,Altium Designer,25.6.2 (33)*
G04*
G04 Layer_Color=32896*
%FSLAX44Y44*%
%MOMM*%
G71*
G04*
G04 #@! TF.SameCoordinates,86BBD976-67B5-41F1-AD37-A89888A357BC*
G04*
G04*
G04 #@! TF.FilePolarity,Positive*
G04*
G01*
G75*
%ADD11C,0.2500*%
%ADD13C,0.2000*%
%ADD14C,0.2540*%
%ADD15C,0.1500*%
%ADD16C,0.1524*%
%ADD17C,0.1270*%
%ADD18C,0.1200*%
%ADD113R,0.9921X1.3947*%
G36*
X201429Y328239D02*
X198429Y325239D01*
X196929D01*
Y330239D01*
X201429D01*
Y328239D01*
D02*
G37*
G36*
X389750Y278823D02*
X386702D01*
Y282523D01*
X389750D01*
Y278823D01*
D02*
G37*
G36*
X404020Y267420D02*
X398940Y272500D01*
X404020Y277580D01*
Y267420D01*
D02*
G37*
G36*
X389750Y262475D02*
X386702D01*
Y266175D01*
X389750Y266175D01*
Y262475D01*
D02*
G37*
G36*
X292078Y261564D02*
X289030Y261563D01*
Y265264D01*
X292078D01*
Y261564D01*
D02*
G37*
G36*
X279840Y255239D02*
X274760Y250159D01*
Y260319D01*
X279840Y255239D01*
D02*
G37*
G36*
X292078Y245215D02*
X289030D01*
Y248916D01*
X292078D01*
Y245215D01*
D02*
G37*
D11*
X308750Y377854D02*
G03*
X308750Y377854I-1250J0D01*
G01*
X195679Y338989D02*
G03*
X195679Y338989I-1250J0D01*
G01*
D13*
X196929Y325239D02*
G03*
X201429Y329739I0J4500D01*
G01*
X233429Y360239D02*
X251429D01*
X247429Y375989D02*
X251429D01*
Y344489D02*
Y375989D01*
X247429Y344489D02*
X251429D01*
X233429Y375989D02*
X237429D01*
X233429Y344489D02*
Y375989D01*
Y344489D02*
X237429D01*
X236929Y290239D02*
X242929D01*
X380000Y323500D02*
X385000D01*
X382500Y321000D02*
Y326000D01*
X391501Y347750D02*
Y352250D01*
X373500Y347750D02*
Y352250D01*
X420000Y323500D02*
X425000D01*
X422500Y321000D02*
Y326000D01*
X431501Y347750D02*
Y352250D01*
X413500Y347750D02*
Y352250D01*
X248929Y275238D02*
Y325239D01*
X300929Y275238D02*
Y325239D01*
X248929D02*
X261929D01*
X248929Y275238D02*
X261929D01*
X287929Y325239D02*
X300929D01*
X287929Y275238D02*
X300929D01*
X304500Y436854D02*
X380500D01*
X292500Y394354D02*
Y416854D01*
Y394354D02*
X300500D01*
X384500D02*
X392500D01*
Y416854D01*
X196929Y320239D02*
Y330239D01*
X227929Y320239D02*
Y330239D01*
X196929D02*
X227929D01*
X196929Y320239D02*
X227929D01*
X201430Y329739D02*
Y330239D01*
X330130Y149750D02*
X344880D01*
X377000Y304500D02*
Y310500D01*
X348000D02*
X377000D01*
X348000Y304500D02*
Y310500D01*
Y304500D02*
X377000D01*
X377500Y289000D02*
Y301000D01*
X417500Y289000D02*
Y301000D01*
X388000Y304500D02*
X417000D01*
X388000D02*
Y310500D01*
X417000D01*
Y304500D02*
Y310500D01*
D14*
X252179Y338239D02*
Y362738D01*
X255429Y365989D01*
X322679D01*
X252179Y338239D02*
X254930Y335489D01*
X322679D01*
Y365989D01*
D15*
X206509Y240239D02*
X208429D01*
Y270239D01*
X206509D02*
X208429D01*
X196429D02*
X198349D01*
X196429Y240239D02*
X198349D01*
X196429D02*
Y270239D01*
Y255239D02*
X208429D01*
X217929Y346239D02*
X220929D01*
X217929D02*
Y374239D01*
X220929D01*
X228929D02*
X231929D01*
Y346239D02*
Y374239D01*
X228929Y346239D02*
X231929D01*
X217929Y360239D02*
X231929D01*
X235929Y255239D02*
X253930D01*
X249930Y272239D02*
X253930D01*
Y238238D02*
Y272239D01*
X249930Y238238D02*
X253930D01*
X235929D02*
X239930D01*
X235929D02*
Y272239D01*
X239930D01*
X216179Y255239D02*
X234180D01*
X230180Y272239D02*
X234180D01*
Y238238D02*
Y272239D01*
X230180Y238238D02*
X234180D01*
X216179D02*
X220180D01*
X216179D02*
Y272239D01*
X220180D01*
X353500Y350000D02*
X371501D01*
X353500Y333000D02*
X357500D01*
X353500D02*
Y367000D01*
X357500D01*
X367500D02*
X371501D01*
Y333000D02*
Y367000D01*
X367500Y333000D02*
X371501D01*
X393500Y350000D02*
X411501D01*
X393500Y333000D02*
X397500D01*
X393500D02*
Y367000D01*
X397500D01*
X407500D02*
X411501D01*
Y333000D02*
Y367000D01*
X407500Y333000D02*
X411501D01*
X308750Y145500D02*
Y159500D01*
X294750Y145500D02*
Y148500D01*
Y145500D02*
X322750D01*
Y148500D01*
Y156500D02*
Y159500D01*
X294750D02*
X322750D01*
X294750Y156500D02*
Y159500D01*
X425500Y156250D02*
Y174250D01*
X408500Y170250D02*
Y174250D01*
X442500D01*
Y170250D02*
Y174250D01*
Y156250D02*
Y160250D01*
X408500Y156250D02*
X442500D01*
X408500D02*
Y160250D01*
X422500Y204249D02*
Y218250D01*
X408500Y204249D02*
Y207250D01*
Y204249D02*
X436500D01*
Y207250D01*
Y215250D02*
Y218250D01*
X408500D02*
X436500D01*
X408500Y215250D02*
Y218250D01*
X422500Y190500D02*
Y204500D01*
X408500Y190500D02*
Y193500D01*
Y190500D02*
X436500D01*
Y193500D01*
Y201500D02*
Y204500D01*
X408500D02*
X436500D01*
X408500Y201500D02*
Y204500D01*
Y186750D02*
Y189750D01*
X436500D01*
Y186750D02*
Y189750D01*
Y175750D02*
Y178750D01*
X408500Y175750D02*
X436500D01*
X408500D02*
Y178750D01*
X422500Y175750D02*
Y189750D01*
X203929Y376239D02*
X205849D01*
X203929Y346239D02*
Y376239D01*
Y346239D02*
X205849D01*
X214009D02*
X215929D01*
X214009Y376239D02*
X215929D01*
Y346239D02*
Y376239D01*
X203929Y361239D02*
X215929D01*
X221429Y302739D02*
X223349D01*
X221429Y272739D02*
Y302739D01*
Y272739D02*
X223349D01*
X231509D02*
X233429D01*
X231509Y302739D02*
X233429D01*
Y272739D02*
Y302739D01*
X221429Y287739D02*
X233429D01*
X208929D02*
X220929D01*
Y272738D02*
Y302739D01*
X219009D02*
X220929D01*
X219009Y272738D02*
X220929D01*
X208929D02*
X210849D01*
X208929D02*
Y302739D01*
X210849D01*
X201509Y346239D02*
X203429D01*
Y376239D01*
X201509D02*
X203429D01*
X191429D02*
X193349D01*
X191429Y346239D02*
X193349D01*
X191429D02*
Y376239D01*
Y361238D02*
X203429D01*
X206509Y272738D02*
X208429D01*
Y302739D01*
X206509D02*
X208429D01*
X196429D02*
X198349D01*
X196429Y272738D02*
X198349D01*
X196429D02*
Y302739D01*
Y287739D02*
X208429D01*
X301500Y300000D02*
X313500D01*
X301500Y285000D02*
Y315000D01*
Y285000D02*
X303420D01*
X301500Y315000D02*
X303420D01*
X311580D02*
X313500D01*
Y285000D02*
Y315000D01*
X311580Y285000D02*
X313500D01*
X314000Y315000D02*
X315920D01*
X314000Y285000D02*
Y315000D01*
Y285000D02*
X315920D01*
X324080D02*
X326000D01*
X324080Y315000D02*
X326000D01*
Y285000D02*
Y315000D01*
X314000Y300000D02*
X326000D01*
X462259Y275480D02*
Y277400D01*
Y275480D02*
X492260D01*
Y277400D01*
Y285560D02*
Y287480D01*
X462259Y285560D02*
Y287480D01*
X492260D01*
X477259Y275480D02*
Y287480D01*
Y287520D02*
Y299520D01*
X462259D02*
X492260D01*
X462259Y297600D02*
Y299520D01*
X492260Y297600D02*
Y299520D01*
Y287520D02*
Y289440D01*
X462259Y287520D02*
X492260D01*
X462259D02*
Y289440D01*
X444500Y162750D02*
X456500D01*
X444500Y147750D02*
Y177750D01*
Y147750D02*
X446421D01*
X444500Y177750D02*
X446421D01*
X454580D02*
X456500D01*
Y147750D02*
Y177750D01*
X454580Y147750D02*
X456500D01*
X444500Y192750D02*
X456500D01*
Y177750D02*
Y207750D01*
X454580D02*
X456500D01*
X454580Y177750D02*
X456500D01*
X444500D02*
X446420D01*
X444500D02*
Y207750D01*
X446420D01*
X423500Y244250D02*
Y256250D01*
X408500D02*
X438501D01*
X408500Y254330D02*
Y256250D01*
X438501Y254330D02*
Y256250D01*
Y244250D02*
Y246170D01*
X408500Y244250D02*
X438501D01*
X408500D02*
Y246170D01*
X423500Y231750D02*
Y243750D01*
X408500D02*
X438501D01*
X408500Y241830D02*
Y243750D01*
X438501Y241830D02*
Y243750D01*
Y231750D02*
Y233670D01*
X408500Y231750D02*
X438501D01*
X408500D02*
Y233670D01*
X423500Y219250D02*
Y231250D01*
X408500D02*
X438501D01*
X408500Y229330D02*
Y231250D01*
X438501Y229330D02*
Y231250D01*
Y219250D02*
Y221170D01*
X408500Y219250D02*
X438501D01*
X408500D02*
Y221170D01*
X329500Y270500D02*
Y273500D01*
X301500Y270500D02*
X329500D01*
X301500D02*
Y273500D01*
Y281500D02*
Y284500D01*
X329500D01*
Y281500D02*
Y284500D01*
X315500Y270500D02*
Y284500D01*
X408500Y138750D02*
Y142750D01*
Y138750D02*
X442500D01*
Y142750D01*
Y152750D02*
Y156750D01*
X408500D02*
X442500D01*
X408500Y152750D02*
Y156750D01*
X425500Y138750D02*
Y156750D01*
X496770Y223400D02*
X498690D01*
X496770Y193400D02*
Y223400D01*
Y193400D02*
X498690D01*
X506850D02*
X508770D01*
X506850Y223400D02*
X508770D01*
Y193400D02*
Y223400D01*
X496770Y208400D02*
X508770D01*
X481230Y208400D02*
X493230D01*
Y193400D02*
Y223400D01*
X491310D02*
X493230D01*
X491310Y193400D02*
X493230D01*
X481230D02*
X483150D01*
X481230D02*
Y223400D01*
X483150D01*
X230429Y311239D02*
X233429D01*
X230429D02*
Y339239D01*
X233429D01*
X241429D02*
X244429D01*
Y311239D02*
Y339239D01*
X241429Y311239D02*
X244429D01*
X230429Y325239D02*
X244429D01*
D16*
X285699Y245978D02*
Y264502D01*
X262268Y245978D02*
Y248408D01*
Y245978D02*
X289793D01*
X262268Y262072D02*
Y264502D01*
X289793D01*
X388988Y263237D02*
X416513D01*
Y265667D01*
X388988Y281761D02*
X416513D01*
Y279331D02*
Y281761D01*
X393082Y263237D02*
X393082Y281761D01*
D17*
X327431Y198861D02*
Y206381D01*
X319911D02*
X327431D01*
X291499Y204501D02*
X325499D01*
X291499Y163501D02*
X325499D01*
X291499D02*
Y204501D01*
X325499Y163501D02*
Y204501D01*
D18*
X421499Y373474D02*
Y378805D01*
Y376139D01*
X413501D01*
X421499Y386803D02*
Y381471D01*
X413501D01*
Y386803D01*
X417500Y381471D02*
Y384137D01*
X421499Y389468D02*
X413501D01*
Y394800D01*
X432666Y378805D02*
X433999Y377472D01*
Y374806D01*
X432666Y373474D01*
X427334D01*
X426001Y374806D01*
Y377472D01*
X427334Y378805D01*
X433999Y381471D02*
X427334D01*
X426001Y382804D01*
Y385470D01*
X427334Y386803D01*
X433999D01*
X426001Y389468D02*
X433999D01*
Y393467D01*
X432666Y394800D01*
X430000D01*
X428667Y393467D01*
Y389468D01*
Y392134D02*
X426001Y394800D01*
X438501Y381471D02*
X446499D01*
X443833Y384137D01*
X446499Y386803D01*
X438501D01*
Y393467D02*
X446499D01*
X442500Y389468D01*
Y394800D01*
X451001Y381471D02*
X458999D01*
X456333Y384137D01*
X458999Y386803D01*
X451001D01*
X457666Y389468D02*
X458999Y390801D01*
Y393467D01*
X457666Y394800D01*
X456333D01*
X455000Y393467D01*
Y392134D01*
Y393467D01*
X453667Y394800D01*
X452334D01*
X451001Y393467D01*
Y390801D01*
X452334Y389468D01*
X463501Y381471D02*
X471499D01*
X468833Y384137D01*
X471499Y386803D01*
X463501D01*
Y394800D02*
Y389468D01*
X468833Y394800D01*
X470166D01*
X471499Y393467D01*
Y390801D01*
X470166Y389468D01*
X476001Y384137D02*
X483999D01*
X481333Y386803D01*
X483999Y389468D01*
X476001D01*
Y392134D02*
Y394800D01*
Y393467D01*
X483999D01*
X482666Y392134D01*
X496499Y373474D02*
X488501D01*
Y377472D01*
X489834Y378805D01*
X491167D01*
X492500Y377472D01*
Y373474D01*
Y377472D01*
X493833Y378805D01*
X495166D01*
X496499Y377472D01*
Y373474D01*
X488501Y381471D02*
X493833D01*
X496499Y384137D01*
X493833Y386803D01*
X488501D01*
X492500D01*
Y381471D01*
X496499Y389468D02*
Y394800D01*
Y392134D01*
X488501D01*
X507666Y394800D02*
X508999Y393467D01*
Y390801D01*
X507666Y389468D01*
X502334D01*
X501001Y390801D01*
Y393467D01*
X502334Y394800D01*
X505000D01*
Y392134D01*
D113*
X417461Y404474D02*
D03*
X429961D02*
D03*
X442461D02*
D03*
X454961D02*
D03*
X467461D02*
D03*
X479961D02*
D03*
X492461D02*
D03*
X504961D02*
D03*
M02*
