G04*
G04 #@! TF.GenerationSoftware,Altium Limited,Altium Designer,25.6.2 (33)*
G04*
G04 Layer_Color=8388736*
%FSLAX44Y44*%
%MOMM*%
G71*
G04*
G04 #@! TF.SameCoordinates,86BBD976-67B5-41F1-AD37-A89888A357BC*
G04*
G04*
G04 #@! TF.FilePolarity,Negative*
G04*
G01*
G75*
%ADD38R,2.6032X0.9632*%
%ADD39R,0.8032X0.5032*%
%ADD40R,0.5032X0.8032*%
%ADD41R,1.7032X2.2032*%
%ADD42R,1.3400X0.7000*%
%ADD43R,1.2032X1.1032*%
%ADD44R,1.1032X1.0032*%
G04:AMPARAMS|DCode=45|XSize=0.5832mm|YSize=0.5532mm|CornerRadius=0.1174mm|HoleSize=0mm|Usage=FLASHONLY|Rotation=270.000|XOffset=0mm|YOffset=0mm|HoleType=Round|Shape=RoundedRectangle|*
%AMROUNDEDRECTD45*
21,1,0.5832,0.3185,0,0,270.0*
21,1,0.3485,0.5532,0,0,270.0*
1,1,0.2347,-0.1593,-0.1743*
1,1,0.2347,-0.1593,0.1743*
1,1,0.2347,0.1593,0.1743*
1,1,0.2347,0.1593,-0.1743*
%
%ADD45ROUNDEDRECTD45*%
%ADD46R,1.4032X0.8032*%
%ADD47R,1.6032X1.5032*%
%ADD48R,1.1032X1.2032*%
%ADD49O,0.5032X2.3032*%
%ADD50O,2.3032X0.5032*%
%ADD51R,1.4032X1.6032*%
%ADD52R,1.0032X1.1032*%
%ADD53R,1.4032X0.8032*%
%ADD54R,1.7032X0.9032*%
G04:AMPARAMS|DCode=55|XSize=1.0032mm|YSize=1.1032mm|CornerRadius=0.3016mm|HoleSize=0mm|Usage=FLASHONLY|Rotation=270.000|XOffset=0mm|YOffset=0mm|HoleType=Round|Shape=RoundedRectangle|*
%AMROUNDEDRECTD55*
21,1,1.0032,0.5000,0,0,270.0*
21,1,0.4000,1.1032,0,0,270.0*
1,1,0.6032,-0.2500,-0.2000*
1,1,0.6032,-0.2500,0.2000*
1,1,0.6032,0.2500,0.2000*
1,1,0.6032,0.2500,-0.2000*
%
%ADD55ROUNDEDRECTD55*%
%ADD56R,1.1032X1.0032*%
%ADD57R,1.0032X1.2032*%
%ADD58R,1.3400X0.4000*%
%ADD59O,2.2000X1.1000*%
%ADD60O,1.9000X1.1000*%
%ADD61C,4.7032*%
G36*
X173100Y197712D02*
X173196Y197683D01*
X173243Y197658D01*
X173285Y197636D01*
X173362Y197572D01*
Y197572D01*
X173362D01*
X173426Y197495D01*
X173448Y197453D01*
X173473Y197406D01*
X173503Y197310D01*
X173512Y197210D01*
X173513Y193722D01*
X179500D01*
X179600Y193712D01*
X179696Y193683D01*
X179785Y193636D01*
X179863Y193572D01*
X179926Y193494D01*
X179974Y193406D01*
X180003Y193310D01*
X180013Y193210D01*
Y186710D01*
X180003Y186610D01*
X179974Y186514D01*
X179926Y186425D01*
X179863Y186348D01*
X179785Y186284D01*
X179696Y186236D01*
X179600Y186207D01*
X179500Y186197D01*
X166500D01*
X166400Y186207D01*
X166304Y186236D01*
X166215Y186284D01*
X166138Y186348D01*
X166074Y186425D01*
X166027Y186514D01*
X165997Y186610D01*
X165988Y186710D01*
Y197210D01*
X165997Y197310D01*
X166027Y197406D01*
X166074Y197495D01*
X166138Y197572D01*
X166215Y197636D01*
X166304Y197683D01*
X166400Y197712D01*
X166500Y197722D01*
X173000D01*
X173100Y197712D01*
D02*
G37*
G36*
X179600Y240210D02*
X179696Y240181D01*
X179785Y240134D01*
X179863Y240070D01*
X179926Y239992D01*
X179974Y239904D01*
X180003Y239808D01*
X180013Y239708D01*
Y233208D01*
X180003Y233108D01*
X179974Y233012D01*
X179926Y232923D01*
X179863Y232846D01*
X179785Y232782D01*
X179696Y232735D01*
X179600Y232705D01*
X179500Y232696D01*
X173513D01*
Y229208D01*
X173503Y229108D01*
X173474Y229012D01*
X173426Y228923D01*
X173374Y228860D01*
X173363Y228846D01*
X173363D01*
Y228846D01*
X173349Y228834D01*
X173285Y228782D01*
X173196Y228734D01*
X173100Y228705D01*
X173000Y228696D01*
X166500Y228695D01*
X166500D01*
D01*
X166400Y228705D01*
X166304Y228734D01*
X166215Y228782D01*
X166152Y228834D01*
X166138Y228845D01*
Y228845D01*
X166138D01*
X166126Y228859D01*
X166074Y228923D01*
X166027Y229012D01*
X165997Y229108D01*
X165988Y229208D01*
Y229208D01*
D01*
Y239708D01*
X165997Y239808D01*
X166027Y239904D01*
X166074Y239992D01*
X166138Y240070D01*
X166215Y240134D01*
X166304Y240181D01*
X166400Y240210D01*
X166500Y240220D01*
X179500D01*
X179600Y240210D01*
D02*
G37*
D38*
X460079Y389303D02*
D03*
Y376603D02*
D03*
Y363903D02*
D03*
Y351203D02*
D03*
X499079D02*
D03*
Y402003D02*
D03*
Y389303D02*
D03*
Y376603D02*
D03*
Y363903D02*
D03*
X460079Y402003D02*
D03*
D39*
X429230Y382500D02*
D03*
Y377500D02*
D03*
X406230D02*
D03*
Y372500D02*
D03*
X429230D02*
D03*
X406230Y367500D02*
D03*
Y382500D02*
D03*
X429230Y367500D02*
D03*
D40*
X422730Y366000D02*
D03*
X417730D02*
D03*
X422730Y384000D02*
D03*
X417730D02*
D03*
X412730D02*
D03*
Y366000D02*
D03*
D41*
X406000Y419002D02*
D03*
X380600Y452497D02*
D03*
X279000Y122498D02*
D03*
Y155998D02*
D03*
X329800Y122498D02*
D03*
X406000Y155998D02*
D03*
X380600D02*
D03*
X355200D02*
D03*
X329800D02*
D03*
X304400D02*
D03*
X355200Y452497D02*
D03*
X380600Y419002D02*
D03*
X304400Y122498D02*
D03*
X406000D02*
D03*
X380600D02*
D03*
X355200D02*
D03*
X329800Y452497D02*
D03*
X304400D02*
D03*
X355200Y419002D02*
D03*
X329800D02*
D03*
X304400D02*
D03*
X279000D02*
D03*
D42*
X450159Y319499D02*
D03*
Y255501D02*
D03*
Y311500D02*
D03*
Y263500D02*
D03*
D43*
X429000Y338250D02*
D03*
X415000D02*
D03*
X427500Y231750D02*
D03*
X382500Y351750D02*
D03*
X375000Y196250D02*
D03*
X270000Y356750D02*
D03*
X254750D02*
D03*
X245781Y249750D02*
D03*
X230603D02*
D03*
X335000Y196250D02*
D03*
X297500Y196250D02*
D03*
X429000Y351750D02*
D03*
X415000D02*
D03*
X270000Y343250D02*
D03*
X254750D02*
D03*
X245781Y263250D02*
D03*
X382500Y338250D02*
D03*
X297500Y209750D02*
D03*
X230603Y263250D02*
D03*
X427500Y218250D02*
D03*
X375000Y209750D02*
D03*
X335000Y209750D02*
D03*
D44*
X426230Y259999D02*
D03*
X451500Y138980D02*
D03*
X434500D02*
D03*
X451500Y151020D02*
D03*
X434500D02*
D03*
X409230Y259999D02*
D03*
X426230Y272499D02*
D03*
X409230D02*
D03*
D45*
X407650Y232650D02*
D03*
X402650Y217350D02*
D03*
X397650D02*
D03*
X410300Y227500D02*
D03*
X402650Y232650D02*
D03*
X397650D02*
D03*
X395000Y227500D02*
D03*
Y222500D02*
D03*
X407650Y217350D02*
D03*
X410300Y222500D02*
D03*
D46*
X406230Y296976D02*
D03*
X429230Y287476D02*
D03*
Y306477D02*
D03*
X406230Y287476D02*
D03*
Y306477D02*
D03*
X429230Y296976D02*
D03*
D47*
X398500Y353000D02*
D03*
X357500Y192000D02*
D03*
X238500Y355000D02*
D03*
Y339000D02*
D03*
X357500Y208000D02*
D03*
X398500Y337000D02*
D03*
D48*
X395900Y205250D02*
D03*
X242750Y320395D02*
D03*
X229250D02*
D03*
X409400Y205250D02*
D03*
D49*
X292500Y343500D02*
D03*
X342500Y231500D02*
D03*
X292500D02*
D03*
X302500Y343500D02*
D03*
X297500D02*
D03*
X347500D02*
D03*
X327500D02*
D03*
X302500Y231500D02*
D03*
X312500D02*
D03*
X317500D02*
D03*
X307500D02*
D03*
X352500D02*
D03*
X347500D02*
D03*
X322500Y343500D02*
D03*
X352500D02*
D03*
X357500D02*
D03*
X312500D02*
D03*
X332500D02*
D03*
X362500D02*
D03*
X332500Y231500D02*
D03*
X327500D02*
D03*
X322500D02*
D03*
X287500D02*
D03*
X337500D02*
D03*
X307500Y343500D02*
D03*
X317500D02*
D03*
X337500D02*
D03*
X342500D02*
D03*
X362500Y231500D02*
D03*
X297500D02*
D03*
X287500Y343500D02*
D03*
X357500Y231500D02*
D03*
D50*
X269000Y270000D02*
D03*
Y255000D02*
D03*
Y260000D02*
D03*
X381000Y305000D02*
D03*
Y310000D02*
D03*
X269000Y320000D02*
D03*
X381000Y270000D02*
D03*
Y275000D02*
D03*
Y300000D02*
D03*
Y280000D02*
D03*
Y320000D02*
D03*
Y315000D02*
D03*
Y295000D02*
D03*
Y290000D02*
D03*
X269000Y250000D02*
D03*
Y280000D02*
D03*
Y285000D02*
D03*
Y290000D02*
D03*
Y310000D02*
D03*
Y315000D02*
D03*
Y295000D02*
D03*
X381000Y255000D02*
D03*
Y265000D02*
D03*
Y250000D02*
D03*
Y260000D02*
D03*
X269000Y305000D02*
D03*
Y300000D02*
D03*
X381000Y285000D02*
D03*
X269000Y275000D02*
D03*
Y265000D02*
D03*
Y325000D02*
D03*
X381000D02*
D03*
D51*
X244500Y302500D02*
D03*
X227500Y280499D02*
D03*
Y302500D02*
D03*
X244500Y280499D02*
D03*
D52*
X196020Y364739D02*
D03*
Y381738D02*
D03*
D53*
X192500Y196207D02*
D03*
Y230207D02*
D03*
D54*
X199501Y306477D02*
D03*
Y296477D02*
D03*
Y286477D02*
D03*
D55*
X502770Y216530D02*
D03*
X487230Y216530D02*
D03*
X182230Y365111D02*
D03*
D56*
X487230Y200030D02*
D03*
X182230Y381610D02*
D03*
X502770Y200030D02*
D03*
D57*
X170499Y268976D02*
D03*
Y323977D02*
D03*
X192501Y268976D02*
D03*
Y323977D02*
D03*
D58*
X450159Y289999D02*
D03*
Y269999D02*
D03*
Y275001D02*
D03*
Y279999D02*
D03*
Y299999D02*
D03*
Y295001D02*
D03*
Y285001D02*
D03*
Y305001D02*
D03*
D59*
X456359Y330700D02*
D03*
Y244300D02*
D03*
D60*
X498160Y330700D02*
D03*
Y244300D02*
D03*
D61*
X190000Y440000D02*
D03*
Y135000D02*
D03*
X495000D02*
D03*
Y440000D02*
D03*
M02*
