G04*
G04 #@! TF.GenerationSoftware,Altium Limited,Altium Designer,25.6.2 (33)*
G04*
G04 Layer_Physical_Order=2*
G04 Layer_Color=32768*
%FSLAX44Y44*%
%MOMM*%
G71*
G04*
G04 #@! TF.SameCoordinates,86BBD976-67B5-41F1-AD37-A89888A357BC*
G04*
G04*
G04 #@! TF.FilePolarity,Negative*
G04*
G01*
G75*
%ADD76C,1.0160*%
%ADD77O,2.7160X1.6160*%
%ADD78O,2.4160X1.6160*%
%ADD79C,5.0160*%
G04:AMPARAMS|DCode=80|XSize=1.824mm|YSize=1.824mm|CornerRadius=0mm|HoleSize=0mm|Usage=FLASHONLY|Rotation=0.000|XOffset=0mm|YOffset=0mm|HoleType=Round|Shape=Relief|Width=0.254mm|Gap=0.254mm|Entries=4|*
%AMTHD80*
7,0,0,1.8240,1.3160,0.2540,45*
%
%ADD80THD80*%
%ADD81C,1.3160*%
G36*
X461358Y319650D02*
X462001Y319646D01*
X463189Y319148D01*
X464097Y318235D01*
X464588Y317045D01*
X464588Y315757D01*
X464097Y314566D01*
X463190Y313653D01*
X462002Y313155D01*
X461358Y313151D01*
X460715Y313154D01*
X459527Y313653D01*
X458620Y314566D01*
X458129Y315756D01*
X458128Y317044D01*
X458619Y318234D01*
X459527Y319148D01*
X460714Y319646D01*
X461358Y319650D01*
X461358Y319650D01*
D02*
G37*
G36*
X182389Y315965D02*
X184026Y315272D01*
X185276Y314008D01*
X185952Y312364D01*
Y310586D01*
X185276Y308941D01*
X184026Y307678D01*
X182389Y306984D01*
X181500Y306975D01*
X181500D01*
X180611Y306984D01*
X178974Y307678D01*
X177724Y308941D01*
X177048Y310586D01*
Y312364D01*
X177724Y314008D01*
X178974Y315272D01*
X180611Y315965D01*
X181500Y315975D01*
X182389Y315965D01*
D02*
G37*
G36*
Y285965D02*
X184026Y285272D01*
X185276Y284008D01*
X185952Y282364D01*
Y280586D01*
X185276Y278942D01*
X184026Y277678D01*
X182389Y276984D01*
X181500Y276975D01*
X181500D01*
X180611Y276984D01*
X178974Y277678D01*
X177724Y278942D01*
X177048Y280586D01*
Y282364D01*
X177724Y284008D01*
X178974Y285272D01*
X180611Y285965D01*
X181500Y285975D01*
X182389Y285965D01*
D02*
G37*
G36*
X461358Y261751D02*
X462001Y261747D01*
X463189Y261249D01*
X464097Y260336D01*
X464588Y259145D01*
X464588Y257858D01*
X464097Y256667D01*
X463190Y255754D01*
X462002Y255255D01*
X461358Y255251D01*
X460715Y255255D01*
X459527Y255753D01*
X458620Y256667D01*
X458129Y257857D01*
X458128Y259144D01*
X458619Y260335D01*
X459527Y261248D01*
X460714Y261747D01*
X461358Y261751D01*
X461358Y261751D01*
D02*
G37*
G36*
X180191Y225200D02*
X181462Y224660D01*
X182433Y223677D01*
X182958Y222400D01*
X182958Y221018D01*
X182434Y219740D01*
X181463Y218757D01*
X180191Y218217D01*
X179501Y218209D01*
X179501Y218209D01*
X178810Y218217D01*
X177539Y218757D01*
X176567Y219739D01*
X176042Y221017D01*
X176042Y222399D01*
X176567Y223677D01*
X177538Y224660D01*
X178809Y225200D01*
X179500Y225208D01*
X179500Y225208D01*
X180191Y225200D01*
D02*
G37*
G36*
Y208200D02*
X181462Y207660D01*
X182433Y206677D01*
X182958Y205399D01*
X182958Y204018D01*
X182434Y202740D01*
X181463Y201757D01*
X180191Y201217D01*
X179501Y201208D01*
X179501Y201208D01*
X178810Y201217D01*
X177539Y201757D01*
X176567Y202739D01*
X176042Y204017D01*
X176042Y205399D01*
X176567Y206677D01*
X177538Y207659D01*
X178809Y208200D01*
X179500Y208208D01*
X179500Y208208D01*
X180191Y208200D01*
D02*
G37*
D76*
X181500Y285975D02*
X182389Y285965D01*
X184026Y285272D01*
X185276Y284008D01*
X185952Y282364D01*
Y280586D02*
Y282364D01*
X185276Y278942D02*
X185952Y280586D01*
X184026Y277678D02*
X185276Y278942D01*
X182389Y276984D02*
X184026Y277678D01*
X181500Y276975D02*
X182389Y276984D01*
X181500Y276975D02*
X181500D01*
X180611Y276984D02*
X181500Y276975D01*
X178974Y277678D02*
X180611Y276984D01*
X177724Y278942D02*
X178974Y277678D01*
X177048Y280586D02*
X177724Y278942D01*
X177048Y280586D02*
Y282364D01*
X177724Y284008D01*
X178974Y285272D01*
X180611Y285965D01*
X181500Y285975D01*
Y315975D02*
X182389Y315965D01*
X184026Y315272D01*
X185276Y314008D01*
X185952Y312364D01*
Y310586D02*
Y312364D01*
X185276Y308941D02*
X185952Y310586D01*
X184026Y307678D02*
X185276Y308941D01*
X182389Y306984D02*
X184026Y307678D01*
X181500Y306975D02*
X182389Y306984D01*
X181500Y306975D02*
X181500D01*
X180611Y306984D02*
X181500Y306975D01*
X178974Y307678D02*
X180611Y306984D01*
X177724Y308941D02*
X178974Y307678D01*
X177048Y310586D02*
X177724Y308941D01*
X177048Y310586D02*
Y312364D01*
X177724Y314008D01*
X178974Y315272D01*
X180611Y315965D01*
X181500Y315975D01*
X179500Y208208D02*
X180191Y208200D01*
X181462Y207660D01*
X182433Y206677D01*
X182958Y205399D01*
X182958Y204018D01*
X182434Y202740D02*
X182958Y204018D01*
X181463Y201757D02*
X182434Y202740D01*
X180191Y201217D02*
X181463Y201757D01*
X179501Y201208D02*
X180191Y201217D01*
X179501Y201208D02*
X179501Y201208D01*
X178810Y201217D02*
X179501Y201208D01*
X177539Y201757D02*
X178810Y201217D01*
X176567Y202739D02*
X177539Y201757D01*
X176042Y204017D02*
X176567Y202739D01*
X176042Y205399D02*
X176042Y204017D01*
X176042Y205399D02*
X176567Y206677D01*
X177538Y207659D01*
X178809Y208200D01*
X179500Y208208D01*
X179500Y208208D01*
Y225208D02*
X180191Y225200D01*
X181462Y224660D01*
X182433Y223677D01*
X182958Y222400D01*
X182958Y221018D01*
X182434Y219740D02*
X182958Y221018D01*
X181463Y218757D02*
X182434Y219740D01*
X180191Y218217D02*
X181463Y218757D01*
X179501Y218209D02*
X180191Y218217D01*
X179501Y218209D02*
X179501Y218209D01*
X178810Y218217D02*
X179501Y218209D01*
X177539Y218757D02*
X178810Y218217D01*
X176567Y219739D02*
X177539Y218757D01*
X176042Y221017D02*
X176567Y219739D01*
X176042Y222399D02*
X176042Y221017D01*
X176042Y222399D02*
X176567Y223677D01*
X177538Y224660D01*
X178809Y225200D01*
X179500Y225208D01*
X179500Y225208D01*
X461358Y261751D02*
X461358Y261751D01*
X461358Y261751D02*
X462001Y261747D01*
X463189Y261249D01*
X464097Y260336D01*
X464588Y259145D01*
X464588Y257858D01*
X464097Y256667D02*
X464588Y257858D01*
X463190Y255754D02*
X464097Y256667D01*
X462002Y255255D02*
X463190Y255754D01*
X461358Y255251D02*
X462002Y255255D01*
X460715Y255255D02*
X461358Y255251D01*
X459527Y255753D02*
X460715Y255255D01*
X458620Y256667D02*
X459527Y255753D01*
X458129Y257857D02*
X458620Y256667D01*
X458128Y259144D02*
X458129Y257857D01*
X458128Y259144D02*
X458619Y260335D01*
X459527Y261248D01*
X460714Y261747D01*
X461358Y261751D01*
X461358Y319650D02*
X461358Y319650D01*
X461358Y319650D02*
X462001Y319646D01*
X463189Y319148D01*
X464097Y318235D01*
X464588Y317045D01*
X464588Y315757D01*
X464097Y314566D02*
X464588Y315757D01*
X463190Y313653D02*
X464097Y314566D01*
X462002Y313155D02*
X463190Y313653D01*
X461358Y313151D02*
X462002Y313155D01*
X460715Y313154D02*
X461358Y313151D01*
X459527Y313653D02*
X460715Y313154D01*
X458620Y314566D02*
X459527Y313653D01*
X458129Y315756D02*
X458620Y314566D01*
X458128Y317044D02*
X458129Y315756D01*
X458128Y317044D02*
X458619Y318234D01*
X459527Y319148D01*
X460714Y319646D01*
X461358Y319650D01*
X160000Y135000D02*
X160000Y440000D01*
X190000Y470000D02*
X495000Y470000D01*
X188034D02*
X190000Y470000D01*
X184135Y469487D02*
X188034Y470000D01*
X180336Y468469D02*
X184135Y469487D01*
X176703Y466964D02*
X180336Y468469D01*
X173297Y464998D02*
X176703Y466964D01*
X170177Y462604D02*
X173297Y464998D01*
X167396Y459823D02*
X170177Y462604D01*
X165002Y456703D02*
X167396Y459823D01*
X163036Y453297D02*
X165002Y456703D01*
X161531Y449664D02*
X163036Y453297D01*
X160513Y445865D02*
X161531Y449664D01*
X160000Y441966D02*
X160513Y445865D01*
X160000Y440000D02*
Y441966D01*
X160000Y133034D02*
X160000Y135000D01*
X160000Y133034D02*
X160513Y129135D01*
X161531Y125336D01*
X163036Y121703D01*
X165002Y118297D01*
X167396Y115177D01*
X170177Y112396D01*
X173297Y110002D01*
X176703Y108036D01*
X180336Y106531D01*
X184135Y105513D01*
X188034Y105000D01*
X496966D01*
X500865Y105513D01*
X504664Y106531D01*
X508297Y108036D01*
X511703Y110002D01*
X514823Y112396D01*
X517604Y115177D01*
X519998Y118297D01*
X521964Y121703D01*
X523469Y125336D01*
X524487Y129135D01*
X525000Y133034D01*
X525000Y135000D02*
X525000Y133034D01*
X525000Y135000D02*
X525000Y440000D01*
X525000Y441966D02*
X525000Y440000D01*
X524487Y445865D02*
X525000Y441966D01*
X523469Y449664D02*
X524487Y445865D01*
X521964Y453297D02*
X523469Y449664D01*
X519998Y456703D02*
X521964Y453297D01*
X517604Y459823D02*
X519998Y456703D01*
X514823Y462604D02*
X517604Y459823D01*
X511703Y464998D02*
X514823Y462604D01*
X508297Y466964D02*
X511703Y464998D01*
X504664Y468469D02*
X508297Y466964D01*
X500865Y469487D02*
X504664Y468469D01*
X496966Y470000D02*
X500865Y469487D01*
X495000Y470000D02*
X496966D01*
D77*
X456359Y330700D02*
D03*
Y244300D02*
D03*
D78*
X498160Y330700D02*
D03*
Y244300D02*
D03*
D79*
X190000Y440000D02*
D03*
Y135000D02*
D03*
X495000D02*
D03*
Y440000D02*
D03*
D80*
X280000Y350000D02*
D03*
X206514Y272988D02*
D03*
X325384Y177251D02*
D03*
X393333Y361466D02*
D03*
X416000Y375000D02*
D03*
X257000Y370000D02*
D03*
X202000Y326000D02*
D03*
X480000Y240000D02*
D03*
Y160000D02*
D03*
X440000Y360000D02*
D03*
Y120000D02*
D03*
X400000Y400000D02*
D03*
X280000D02*
D03*
X240000D02*
D03*
Y200000D02*
D03*
Y160000D02*
D03*
Y120000D02*
D03*
X202000Y400000D02*
D03*
X439750Y177251D02*
D03*
X225000Y376000D02*
D03*
X440000Y322000D02*
D03*
X418250Y305250D02*
D03*
X403000Y322000D02*
D03*
X406250Y239000D02*
D03*
X374500Y177251D02*
D03*
X250250Y318000D02*
D03*
X315125Y300669D02*
D03*
X319500Y265000D02*
D03*
X291750D02*
D03*
X237866Y293629D02*
D03*
X346583Y246682D02*
D03*
X212000Y247000D02*
D03*
D81*
X444000Y396000D02*
D03*
X329000Y136000D02*
D03*
X321745Y319745D02*
D03*
X335719Y270281D02*
D03*
X355000Y137000D02*
D03*
X253750Y270034D02*
D03*
X303000Y170000D02*
D03*
X304000Y136000D02*
D03*
X453000Y163000D02*
D03*
X184000Y297000D02*
D03*
X211935Y291549D02*
D03*
X368000Y443500D02*
D03*
X393570Y420854D02*
D03*
X325000Y260000D02*
D03*
X411230Y391000D02*
D03*
X424230D02*
D03*
X417730D02*
D03*
X431000Y360000D02*
D03*
X411501Y359000D02*
D03*
X350000Y369000D02*
D03*
X364000D02*
D03*
X357000D02*
D03*
X497917Y207000D02*
D03*
X491000D02*
D03*
X485479Y384340D02*
D03*
X485757Y371742D02*
D03*
X475479Y395653D02*
D03*
Y370253D02*
D03*
X464000Y274000D02*
D03*
Y301000D02*
D03*
X469000Y307000D02*
D03*
X460009Y290000D02*
D03*
X460009Y280000D02*
D03*
X469000Y268000D02*
D03*
X406250Y246000D02*
D03*
X385135Y244250D02*
D03*
X300594Y274594D02*
D03*
X314000Y247000D02*
D03*
Y255000D02*
D03*
X306000D02*
D03*
Y247000D02*
D03*
X310500Y320000D02*
D03*
X363500Y263000D02*
D03*
X357000D02*
D03*
X350500D02*
D03*
X344000D02*
D03*
X287000Y295000D02*
D03*
X253000Y423000D02*
D03*
X267000D02*
D03*
X260000D02*
D03*
X207250Y229750D02*
D03*
X502770Y227000D02*
D03*
X487230D02*
D03*
X307500Y215000D02*
D03*
X271182Y238818D02*
D03*
X261000Y333000D02*
D03*
X287000Y327000D02*
D03*
X403800Y225958D02*
D03*
X427000Y279726D02*
D03*
X377000Y331000D02*
D03*
X317500Y215000D02*
D03*
X308000Y203000D02*
D03*
X375000Y220000D02*
D03*
X481000Y338000D02*
D03*
M02*
