G04*
G04 #@! TF.GenerationSoftware,Altium Limited,Altium Designer,25.6.2 (33)*
G04*
G04 Layer_Color=8421504*
%FSLAX44Y44*%
%MOMM*%
G71*
G04*
G04 #@! TF.SameCoordinates,86BBD976-67B5-41F1-AD37-A89888A357BC*
G04*
G04*
G04 #@! TF.FilePolarity,Positive*
G04*
G01*
G75*
%ADD19R,2.4000X0.7600*%
%ADD20R,0.6000X0.3000*%
%ADD21R,0.3000X0.6000*%
%ADD22R,1.5000X2.0000*%
%ADD23R,1.0000X0.9000*%
%ADD24R,0.9000X0.8000*%
G04:AMPARAMS|DCode=25|XSize=0.38mm|YSize=0.35mm|CornerRadius=0.0158mm|HoleSize=0mm|Usage=FLASHONLY|Rotation=270.000|XOffset=0mm|YOffset=0mm|HoleType=Round|Shape=RoundedRectangle|*
%AMROUNDEDRECTD25*
21,1,0.3800,0.3185,0,0,270.0*
21,1,0.3485,0.3500,0,0,270.0*
1,1,0.0315,-0.1593,-0.1743*
1,1,0.0315,-0.1593,0.1743*
1,1,0.0315,0.1593,0.1743*
1,1,0.0315,0.1593,-0.1743*
%
%ADD25ROUNDEDRECTD25*%
%ADD26R,1.2000X0.6000*%
%ADD27R,1.4000X1.3000*%
%ADD28R,0.9000X1.0000*%
%ADD29O,0.3000X2.1000*%
%ADD30O,2.1000X0.3000*%
%ADD31R,1.2000X1.4000*%
%ADD32R,0.8000X0.9000*%
%ADD33R,1.2000X0.6000*%
%ADD34R,1.5000X0.7000*%
G04:AMPARAMS|DCode=35|XSize=0.8mm|YSize=0.9mm|CornerRadius=0.2mm|HoleSize=0mm|Usage=FLASHONLY|Rotation=270.000|XOffset=0mm|YOffset=0mm|HoleType=Round|Shape=RoundedRectangle|*
%AMROUNDEDRECTD35*
21,1,0.8000,0.5000,0,0,270.0*
21,1,0.4000,0.9000,0,0,270.0*
1,1,0.4000,-0.2500,-0.2000*
1,1,0.4000,-0.2500,0.2000*
1,1,0.4000,0.2500,0.2000*
1,1,0.4000,0.2500,-0.2000*
%
%ADD35ROUNDEDRECTD35*%
%ADD36R,0.9000X0.8000*%
%ADD37R,0.8000X1.0000*%
G36*
X502410Y335695D02*
X502658Y335676D01*
X502905Y335645D01*
X503151Y335602D01*
X503394Y335546D01*
X503634Y335479D01*
X503870Y335400D01*
X504102Y335308D01*
X504329Y335206D01*
X504552Y335092D01*
X504767Y334967D01*
X504977Y334832D01*
X505179Y334687D01*
X505374Y334532D01*
X505561Y334366D01*
X505739Y334193D01*
X505909Y334010D01*
X506069Y333818D01*
X506220Y333619D01*
X506360Y333414D01*
X506490Y333201D01*
X506609Y332982D01*
X506718Y332758D01*
X506814Y332528D01*
X506900Y332293D01*
X506973Y332055D01*
X507035Y331814D01*
X507084Y331569D01*
X507121Y331323D01*
X507146Y331075D01*
X507159Y330825D01*
Y330577D01*
X507146Y330328D01*
X507121Y330079D01*
X507084Y329833D01*
X507035Y329589D01*
X506973Y329347D01*
X506900Y329109D01*
X506814Y328874D01*
X506718Y328645D01*
X506609Y328420D01*
X506490Y328201D01*
X506360Y327989D01*
X506220Y327782D01*
X506069Y327584D01*
X505909Y327392D01*
X505739Y327210D01*
X505561Y327036D01*
X505374Y326870D01*
X505179Y326716D01*
X504977Y326569D01*
X504767Y326435D01*
X504552Y326310D01*
X504329Y326196D01*
X504102Y326094D01*
X503870Y326003D01*
X503634Y325923D01*
X503394Y325856D01*
X503151Y325800D01*
X502905Y325757D01*
X502658Y325726D01*
X502410Y325707D01*
X502160Y325701D01*
X494160D01*
X493911Y325707D01*
X493662Y325726D01*
X493415Y325757D01*
X493169Y325800D01*
X492926Y325856D01*
X492686Y325923D01*
X492450Y326003D01*
X492218Y326094D01*
X491990Y326196D01*
X491769Y326310D01*
X491553Y326435D01*
X491343Y326569D01*
X491141Y326716D01*
X490946Y326870D01*
X490759Y327036D01*
X490580Y327210D01*
X490411Y327392D01*
X490251Y327584D01*
X490100Y327782D01*
X489960Y327989D01*
X489830Y328201D01*
X489710Y328420D01*
X489602Y328645D01*
X489505Y328874D01*
X489420Y329109D01*
X489347Y329347D01*
X489285Y329589D01*
X489236Y329833D01*
X489199Y330079D01*
X489174Y330328D01*
X489161Y330577D01*
Y330825D01*
X489174Y331075D01*
X489199Y331323D01*
X489236Y331569D01*
X489285Y331814D01*
X489347Y332055D01*
X489420Y332293D01*
X489505Y332528D01*
X489602Y332758D01*
X489710Y332982D01*
X489830Y333201D01*
X489960Y333414D01*
X490100Y333619D01*
X490251Y333818D01*
X490411Y334010D01*
X490580Y334193D01*
X490759Y334366D01*
X490946Y334532D01*
X491141Y334687D01*
X491343Y334832D01*
X491553Y334967D01*
X491769Y335092D01*
X491990Y335206D01*
X492218Y335308D01*
X492450Y335400D01*
X492686Y335479D01*
X492926Y335546D01*
X493169Y335602D01*
X493415Y335645D01*
X493662Y335676D01*
X493911Y335695D01*
X494160Y335701D01*
X502160D01*
X502410Y335695D01*
D02*
G37*
G36*
X462108D02*
X462357Y335676D01*
X462605Y335645D01*
X462850Y335602D01*
X463093Y335546D01*
X463333Y335479D01*
X463570Y335400D01*
X463801Y335308D01*
X464029Y335206D01*
X464250Y335092D01*
X464466Y334967D01*
X464676Y334832D01*
X464878Y334687D01*
X465074Y334532D01*
X465260Y334366D01*
X465439Y334193D01*
X465608Y334010D01*
X465768Y333818D01*
X465919Y333619D01*
X466059Y333414D01*
X466190Y333201D01*
X466309Y332982D01*
X466417Y332758D01*
X466514Y332528D01*
X466599Y332293D01*
X466672Y332055D01*
X466734Y331814D01*
X466783Y331569D01*
X466820Y331323D01*
X466845Y331075D01*
X466858Y330825D01*
Y330577D01*
X466845Y330328D01*
X466820Y330079D01*
X466783Y329833D01*
X466734Y329589D01*
X466672Y329347D01*
X466599Y329109D01*
X466514Y328874D01*
X466417Y328645D01*
X466309Y328420D01*
X466190Y328201D01*
X466059Y327989D01*
X465919Y327782D01*
X465768Y327584D01*
X465608Y327392D01*
X465439Y327210D01*
X465260Y327036D01*
X465074Y326870D01*
X464878Y326716D01*
X464676Y326569D01*
X464466Y326435D01*
X464250Y326310D01*
X464029Y326196D01*
X463801Y326094D01*
X463570Y326003D01*
X463333Y325923D01*
X463093Y325856D01*
X462850Y325800D01*
X462605Y325757D01*
X462357Y325726D01*
X462108Y325707D01*
X461859Y325701D01*
X450859D01*
X450610Y325707D01*
X450361Y325726D01*
X450114Y325757D01*
X449868Y325800D01*
X449625Y325856D01*
X449385Y325923D01*
X449149Y326003D01*
X448917Y326094D01*
X448690Y326196D01*
X448468Y326310D01*
X448252Y326435D01*
X448042Y326569D01*
X447840Y326716D01*
X447645Y326870D01*
X447458Y327036D01*
X447280Y327210D01*
X447110Y327392D01*
X446950Y327584D01*
X446799Y327782D01*
X446659Y327989D01*
X446529Y328201D01*
X446410Y328420D01*
X446302Y328645D01*
X446205Y328874D01*
X446119Y329109D01*
X446046Y329347D01*
X445984Y329589D01*
X445935Y329833D01*
X445898Y330079D01*
X445873Y330328D01*
X445860Y330577D01*
Y330825D01*
X445873Y331075D01*
X445898Y331323D01*
X445935Y331569D01*
X445984Y331814D01*
X446046Y332055D01*
X446119Y332293D01*
X446205Y332528D01*
X446302Y332758D01*
X446410Y332982D01*
X446529Y333201D01*
X446659Y333414D01*
X446799Y333619D01*
X446950Y333818D01*
X447110Y334010D01*
X447280Y334193D01*
X447458Y334366D01*
X447645Y334532D01*
X447840Y334687D01*
X448042Y334832D01*
X448252Y334967D01*
X448468Y335092D01*
X448690Y335206D01*
X448917Y335308D01*
X449149Y335400D01*
X449385Y335479D01*
X449625Y335546D01*
X449868Y335602D01*
X450114Y335645D01*
X450361Y335676D01*
X450610Y335695D01*
X450859Y335701D01*
X461859D01*
X462108Y335695D01*
D02*
G37*
G36*
X456361Y316501D02*
X443961D01*
Y322501D01*
X456361D01*
Y316501D01*
D02*
G37*
G36*
Y308501D02*
X443961D01*
Y314501D01*
X456361D01*
Y308501D01*
D02*
G37*
G36*
Y303501D02*
X443961D01*
Y306501D01*
X456361D01*
Y303501D01*
D02*
G37*
G36*
Y298501D02*
X443961D01*
Y301501D01*
X456361D01*
Y298501D01*
D02*
G37*
G36*
Y293501D02*
X443961D01*
Y296501D01*
X456361D01*
Y293501D01*
D02*
G37*
G36*
Y288502D02*
X443961D01*
Y291501D01*
X456361D01*
Y288502D01*
D02*
G37*
G36*
Y283502D02*
X443961D01*
Y286502D01*
X456361D01*
Y283502D01*
D02*
G37*
G36*
Y278501D02*
X443961D01*
Y281502D01*
X456361D01*
Y278501D01*
D02*
G37*
G36*
Y273501D02*
X443961D01*
Y276502D01*
X456361D01*
Y273501D01*
D02*
G37*
G36*
Y268501D02*
X443961D01*
Y271502D01*
X456361D01*
Y268501D01*
D02*
G37*
G36*
Y260501D02*
X443961D01*
Y266502D01*
X456361D01*
Y260501D01*
D02*
G37*
G36*
Y252501D02*
X443961D01*
Y258501D01*
X456361D01*
Y252501D01*
D02*
G37*
G36*
X502410Y249294D02*
X502658Y249276D01*
X502905Y249244D01*
X503151Y249201D01*
X503394Y249146D01*
X503634Y249078D01*
X503870Y248999D01*
X504102Y248908D01*
X504329Y248805D01*
X504552Y248692D01*
X504767Y248567D01*
X504977Y248432D01*
X505179Y248286D01*
X505374Y248130D01*
X505561Y247965D01*
X505739Y247792D01*
X505909Y247609D01*
X506069Y247418D01*
X506220Y247219D01*
X506360Y247013D01*
X506490Y246800D01*
X506609Y246582D01*
X506718Y246357D01*
X506814Y246127D01*
X506900Y245892D01*
X506973Y245654D01*
X507035Y245413D01*
X507084Y245169D01*
X507121Y244922D01*
X507146Y244674D01*
X507159Y244425D01*
Y244175D01*
X507146Y243927D01*
X507121Y243679D01*
X507084Y243432D01*
X507035Y243188D01*
X506973Y242946D01*
X506900Y242708D01*
X506814Y242474D01*
X506718Y242244D01*
X506609Y242019D01*
X506490Y241801D01*
X506360Y241588D01*
X506220Y241382D01*
X506069Y241183D01*
X505909Y240992D01*
X505739Y240809D01*
X505561Y240635D01*
X505374Y240470D01*
X505179Y240315D01*
X504977Y240169D01*
X504767Y240034D01*
X504552Y239909D01*
X504329Y239795D01*
X504102Y239693D01*
X503870Y239602D01*
X503634Y239523D01*
X503394Y239455D01*
X503151Y239399D01*
X502905Y239356D01*
X502658Y239325D01*
X502410Y239307D01*
X502160Y239300D01*
X494160D01*
X493911Y239307D01*
X493662Y239325D01*
X493415Y239356D01*
X493169Y239399D01*
X492926Y239455D01*
X492686Y239523D01*
X492450Y239602D01*
X492218Y239693D01*
X491990Y239795D01*
X491769Y239909D01*
X491553Y240034D01*
X491343Y240169D01*
X491141Y240315D01*
X490946Y240470D01*
X490759Y240635D01*
X490580Y240809D01*
X490411Y240992D01*
X490251Y241183D01*
X490100Y241382D01*
X489960Y241588D01*
X489830Y241801D01*
X489710Y242019D01*
X489602Y242244D01*
X489505Y242474D01*
X489420Y242708D01*
X489347Y242946D01*
X489285Y243188D01*
X489236Y243432D01*
X489199Y243679D01*
X489174Y243927D01*
X489161Y244175D01*
Y244425D01*
X489174Y244674D01*
X489199Y244922D01*
X489236Y245169D01*
X489285Y245413D01*
X489347Y245654D01*
X489420Y245892D01*
X489505Y246127D01*
X489602Y246357D01*
X489710Y246582D01*
X489830Y246800D01*
X489960Y247013D01*
X490100Y247219D01*
X490251Y247418D01*
X490411Y247609D01*
X490580Y247792D01*
X490759Y247965D01*
X490946Y248130D01*
X491141Y248286D01*
X491343Y248432D01*
X491553Y248567D01*
X491769Y248692D01*
X491990Y248805D01*
X492218Y248908D01*
X492450Y248999D01*
X492686Y249078D01*
X492926Y249146D01*
X493169Y249201D01*
X493415Y249244D01*
X493662Y249276D01*
X493911Y249294D01*
X494160Y249300D01*
X502160D01*
X502410Y249294D01*
D02*
G37*
G36*
X462108D02*
X462357Y249276D01*
X462605Y249244D01*
X462850Y249201D01*
X463093Y249146D01*
X463333Y249078D01*
X463570Y248999D01*
X463801Y248908D01*
X464029Y248805D01*
X464250Y248692D01*
X464466Y248567D01*
X464676Y248432D01*
X464878Y248286D01*
X465074Y248130D01*
X465260Y247965D01*
X465439Y247792D01*
X465608Y247609D01*
X465768Y247418D01*
X465919Y247219D01*
X466059Y247013D01*
X466190Y246800D01*
X466309Y246582D01*
X466417Y246357D01*
X466514Y246127D01*
X466599Y245892D01*
X466672Y245654D01*
X466734Y245413D01*
X466783Y245169D01*
X466820Y244922D01*
X466845Y244674D01*
X466858Y244425D01*
Y244175D01*
X466845Y243927D01*
X466820Y243679D01*
X466783Y243432D01*
X466734Y243188D01*
X466672Y242946D01*
X466599Y242708D01*
X466514Y242474D01*
X466417Y242244D01*
X466309Y242019D01*
X466190Y241801D01*
X466059Y241588D01*
X465919Y241382D01*
X465768Y241183D01*
X465608Y240992D01*
X465439Y240809D01*
X465260Y240635D01*
X465074Y240470D01*
X464878Y240315D01*
X464676Y240169D01*
X464466Y240034D01*
X464250Y239909D01*
X464029Y239795D01*
X463801Y239693D01*
X463570Y239602D01*
X463333Y239523D01*
X463093Y239455D01*
X462850Y239399D01*
X462605Y239356D01*
X462357Y239325D01*
X462108Y239307D01*
X461859Y239300D01*
X450859D01*
X450610Y239307D01*
X450361Y239325D01*
X450114Y239356D01*
X449868Y239399D01*
X449625Y239455D01*
X449385Y239523D01*
X449149Y239602D01*
X448917Y239693D01*
X448690Y239795D01*
X448468Y239909D01*
X448252Y240034D01*
X448042Y240169D01*
X447840Y240315D01*
X447645Y240470D01*
X447458Y240635D01*
X447280Y240809D01*
X447110Y240992D01*
X446950Y241183D01*
X446799Y241382D01*
X446659Y241588D01*
X446529Y241801D01*
X446410Y242019D01*
X446302Y242244D01*
X446205Y242474D01*
X446119Y242708D01*
X446046Y242946D01*
X445984Y243188D01*
X445935Y243432D01*
X445898Y243679D01*
X445873Y243927D01*
X445860Y244175D01*
Y244425D01*
X445873Y244674D01*
X445898Y244922D01*
X445935Y245169D01*
X445984Y245413D01*
X446046Y245654D01*
X446119Y245892D01*
X446205Y246127D01*
X446302Y246357D01*
X446410Y246582D01*
X446529Y246800D01*
X446659Y247013D01*
X446799Y247219D01*
X446950Y247418D01*
X447110Y247609D01*
X447280Y247792D01*
X447458Y247965D01*
X447645Y248130D01*
X447840Y248286D01*
X448042Y248432D01*
X448252Y248567D01*
X448468Y248692D01*
X448690Y248805D01*
X448917Y248908D01*
X449149Y248999D01*
X449385Y249078D01*
X449625Y249146D01*
X449868Y249201D01*
X450114Y249244D01*
X450361Y249276D01*
X450610Y249294D01*
X450859Y249300D01*
X461859D01*
X462108Y249294D01*
D02*
G37*
G36*
X179500Y233208D02*
X173000D01*
Y229208D01*
X166500Y229208D01*
Y239708D01*
X179500D01*
Y233208D01*
D02*
G37*
G36*
X173000Y193210D02*
X179500D01*
Y186710D01*
X166500D01*
Y197210D01*
X173000D01*
X173000Y193210D01*
D02*
G37*
D19*
X460079Y389303D02*
D03*
Y376603D02*
D03*
Y363903D02*
D03*
Y351203D02*
D03*
X499079D02*
D03*
Y402003D02*
D03*
Y389303D02*
D03*
Y376603D02*
D03*
Y363903D02*
D03*
X460079Y402003D02*
D03*
D20*
X429230Y382500D02*
D03*
Y377500D02*
D03*
X406230D02*
D03*
Y372500D02*
D03*
X429230D02*
D03*
X406230Y367500D02*
D03*
Y382500D02*
D03*
X429230Y367500D02*
D03*
D21*
X422730Y366000D02*
D03*
X417730D02*
D03*
X422730Y384000D02*
D03*
X417730D02*
D03*
X412730D02*
D03*
Y366000D02*
D03*
D22*
X406000Y419002D02*
D03*
X380600Y452497D02*
D03*
X279000Y122498D02*
D03*
Y155998D02*
D03*
X329800Y122498D02*
D03*
X406000Y155998D02*
D03*
X380600D02*
D03*
X355200D02*
D03*
X329800D02*
D03*
X304400D02*
D03*
X355200Y452497D02*
D03*
X380600Y419002D02*
D03*
X304400Y122498D02*
D03*
X406000D02*
D03*
X380600D02*
D03*
X355200D02*
D03*
X329800Y452497D02*
D03*
X304400D02*
D03*
X355200Y419002D02*
D03*
X329800D02*
D03*
X304400D02*
D03*
X279000D02*
D03*
D23*
X429000Y338250D02*
D03*
X415000D02*
D03*
X427500Y231750D02*
D03*
X382500Y351750D02*
D03*
X375000Y196250D02*
D03*
X270000Y356750D02*
D03*
X254750D02*
D03*
X245781Y249750D02*
D03*
X230603D02*
D03*
X335000Y196250D02*
D03*
X297500Y196250D02*
D03*
X429000Y351750D02*
D03*
X415000D02*
D03*
X270000Y343250D02*
D03*
X254750D02*
D03*
X245781Y263250D02*
D03*
X382500Y338250D02*
D03*
X297500Y209750D02*
D03*
X230603Y263250D02*
D03*
X427500Y218250D02*
D03*
X375000Y209750D02*
D03*
X335000Y209750D02*
D03*
D24*
X426230Y259999D02*
D03*
X451500Y138980D02*
D03*
X434500D02*
D03*
X451500Y151020D02*
D03*
X434500D02*
D03*
X409230Y259999D02*
D03*
X426230Y272499D02*
D03*
X409230D02*
D03*
D25*
X407650Y232650D02*
D03*
X402650Y217350D02*
D03*
X397650D02*
D03*
X410300Y227500D02*
D03*
X402650Y232650D02*
D03*
X397650D02*
D03*
X395000Y227500D02*
D03*
Y222500D02*
D03*
X407650Y217350D02*
D03*
X410300Y222500D02*
D03*
D26*
X406230Y296976D02*
D03*
X429230Y287476D02*
D03*
Y306477D02*
D03*
X406230Y287476D02*
D03*
Y306477D02*
D03*
X429230Y296976D02*
D03*
D27*
X398500Y353000D02*
D03*
X357500Y192000D02*
D03*
X238500Y355000D02*
D03*
Y339000D02*
D03*
X357500Y208000D02*
D03*
X398500Y337000D02*
D03*
D28*
X395900Y205250D02*
D03*
X242750Y320395D02*
D03*
X229250D02*
D03*
X409400Y205250D02*
D03*
D29*
X292500Y343500D02*
D03*
X342500Y231500D02*
D03*
X292500D02*
D03*
X302500Y343500D02*
D03*
X297500D02*
D03*
X347500D02*
D03*
X327500D02*
D03*
X302500Y231500D02*
D03*
X312500D02*
D03*
X317500D02*
D03*
X307500D02*
D03*
X352500D02*
D03*
X347500D02*
D03*
X322500Y343500D02*
D03*
X352500D02*
D03*
X357500D02*
D03*
X312500D02*
D03*
X332500D02*
D03*
X362500D02*
D03*
X332500Y231500D02*
D03*
X327500D02*
D03*
X322500D02*
D03*
X287500D02*
D03*
X337500D02*
D03*
X307500Y343500D02*
D03*
X317500D02*
D03*
X337500D02*
D03*
X342500D02*
D03*
X362500Y231500D02*
D03*
X297500D02*
D03*
X287500Y343500D02*
D03*
X357500Y231500D02*
D03*
D30*
X269000Y270000D02*
D03*
Y255000D02*
D03*
Y260000D02*
D03*
X381000Y305000D02*
D03*
Y310000D02*
D03*
X269000Y320000D02*
D03*
X381000Y270000D02*
D03*
Y275000D02*
D03*
Y300000D02*
D03*
Y280000D02*
D03*
Y320000D02*
D03*
Y315000D02*
D03*
Y295000D02*
D03*
Y290000D02*
D03*
X269000Y250000D02*
D03*
Y280000D02*
D03*
Y285000D02*
D03*
Y290000D02*
D03*
Y310000D02*
D03*
Y315000D02*
D03*
Y295000D02*
D03*
X381000Y255000D02*
D03*
Y265000D02*
D03*
Y250000D02*
D03*
Y260000D02*
D03*
X269000Y305000D02*
D03*
Y300000D02*
D03*
X381000Y285000D02*
D03*
X269000Y275000D02*
D03*
Y265000D02*
D03*
Y325000D02*
D03*
X381000D02*
D03*
D31*
X244500Y302500D02*
D03*
X227500Y280499D02*
D03*
Y302500D02*
D03*
X244500Y280499D02*
D03*
D32*
X196020Y364739D02*
D03*
Y381738D02*
D03*
D33*
X192500Y196207D02*
D03*
Y230207D02*
D03*
D34*
X199501Y306477D02*
D03*
Y296477D02*
D03*
Y286477D02*
D03*
D35*
X502770Y216530D02*
D03*
X487230Y216530D02*
D03*
X182230Y365111D02*
D03*
D36*
X487230Y200030D02*
D03*
X182230Y381610D02*
D03*
X502770Y200030D02*
D03*
D37*
X170499Y268976D02*
D03*
Y323977D02*
D03*
X192501Y268976D02*
D03*
Y323977D02*
D03*
M02*
