G04*
G04 #@! TF.GenerationSoftware,Altium Limited,Altium Designer,25.6.2 (33)*
G04*
G04 Layer_Physical_Order=3*
G04 Layer_Color=36540*
%FSLAX44Y44*%
%MOMM*%
G71*
G04*
G04 #@! TF.SameCoordinates,86BBD976-67B5-41F1-AD37-A89888A357BC*
G04*
G04*
G04 #@! TF.FilePolarity,Positive*
G04*
G01*
G75*
%ADD71O,2.1000X1.0000*%
%ADD72O,1.8000X1.0000*%
%ADD73C,4.5000*%
%ADD74C,0.5500*%
%ADD75C,0.4500*%
G36*
X490047Y464100D02*
X485579Y462745D01*
X481323Y460470D01*
X477592Y457408D01*
X474530Y453677D01*
X473099Y451000D01*
X403799D01*
Y439000D01*
X382000D01*
Y451000D01*
X358720D01*
Y435099D01*
X374500Y419319D01*
Y402500D01*
X352355Y372538D01*
X351658Y373003D01*
X350000Y373333D01*
X348342Y373003D01*
X346936Y372064D01*
X345997Y370658D01*
X345667Y369000D01*
X345997Y367342D01*
X346936Y365936D01*
X347039Y365344D01*
X343807Y360972D01*
X245401D01*
X190000Y305571D01*
X190000Y253594D01*
X206259Y234679D01*
X205966Y233828D01*
X205592Y233753D01*
X204186Y232814D01*
X203247Y231408D01*
X202917Y229750D01*
X203247Y228092D01*
X204186Y226686D01*
X205592Y225747D01*
X207250Y225417D01*
X208908Y225747D01*
X210314Y226686D01*
X211026Y227752D01*
X212067Y227922D01*
X235328Y200861D01*
X235157Y200000D01*
X235526Y198147D01*
X236575Y196575D01*
X238147Y195526D01*
X240000Y195157D01*
X240197Y195196D01*
X298117Y127815D01*
X313596D01*
X325000Y145000D01*
X471655D01*
X472158Y144100D01*
X470854Y139803D01*
X470382Y135000D01*
X470854Y130197D01*
X472255Y125579D01*
X474530Y121323D01*
X477592Y117592D01*
X481323Y114530D01*
X485579Y112255D01*
X490047Y110900D01*
X489914Y110000D01*
X195086D01*
X194953Y110900D01*
X199421Y112255D01*
X203677Y114530D01*
X207408Y117592D01*
X210470Y121323D01*
X212745Y125579D01*
X214146Y130197D01*
X214618Y135000D01*
X214146Y139803D01*
X212745Y144421D01*
X210470Y148677D01*
X207408Y152408D01*
X203677Y155470D01*
X199421Y157745D01*
X194803Y159145D01*
X190000Y159619D01*
X185197Y159145D01*
X180579Y157745D01*
X176323Y155470D01*
X172592Y152408D01*
X169530Y148677D01*
X167255Y144421D01*
X165854Y139803D01*
X164986Y139943D01*
X164886Y360972D01*
X164967Y435093D01*
X165854Y435197D01*
X167255Y430579D01*
X169530Y426323D01*
X172592Y422592D01*
X176323Y419530D01*
X180579Y417255D01*
X185197Y415854D01*
X190000Y415381D01*
X194803Y415854D01*
X199421Y417255D01*
X203677Y419530D01*
X207408Y422592D01*
X210470Y426323D01*
X212745Y430579D01*
X214146Y435197D01*
X214618Y440000D01*
X214146Y444803D01*
X212745Y449421D01*
X210470Y453677D01*
X207408Y457408D01*
X203677Y460470D01*
X199421Y462744D01*
X194953Y464100D01*
X195086Y465000D01*
X489914D01*
X490047Y464100D01*
D02*
G37*
G36*
X435545Y435099D02*
X404641Y402867D01*
X403744Y402946D01*
X403424Y403424D01*
X401853Y404474D01*
X400000Y404843D01*
X398147Y404474D01*
X396575Y403424D01*
X395526Y401853D01*
X395157Y400000D01*
X395526Y398147D01*
X396575Y396575D01*
X397232Y396137D01*
X397329Y395242D01*
X381000Y378211D01*
Y341000D01*
X251761D01*
X206576Y295814D01*
Y281999D01*
X233562Y265250D01*
X253456D01*
X253750Y265191D01*
X254044Y265250D01*
X258562D01*
Y269876D01*
X258593Y270034D01*
X258562Y270193D01*
Y286289D01*
X272961D01*
Y243715D01*
X272061Y242976D01*
X271182Y243151D01*
X269524Y242821D01*
X268118Y241882D01*
X267179Y240476D01*
X266849Y238818D01*
X267179Y237160D01*
X268118Y235754D01*
X269524Y234815D01*
X271182Y234485D01*
X272109Y234669D01*
X273116Y234220D01*
X273558Y233558D01*
X274220Y233116D01*
X275000Y232961D01*
Y224111D01*
X303323Y189500D01*
X351747D01*
X420389Y230000D01*
X426132D01*
X437000Y222675D01*
Y181126D01*
X436325Y180676D01*
X435276Y179104D01*
X434907Y177251D01*
X435276Y175398D01*
X436325Y173827D01*
X437000Y173376D01*
Y147039D01*
X325000D01*
X324800Y146999D01*
X324596Y146999D01*
X324413Y146923D01*
X324220Y146884D01*
X324050Y146771D01*
X323862Y146692D01*
X323722Y146552D01*
X323558Y146442D01*
X323445Y146272D01*
X323301Y146128D01*
X312502Y129854D01*
X299053D01*
X242772Y195329D01*
X242894Y196221D01*
X243424Y196575D01*
X244474Y198147D01*
X244843Y200000D01*
X244474Y201853D01*
X243424Y203424D01*
X241853Y204474D01*
X240000Y204843D01*
X238147Y204474D01*
X236575Y203424D01*
X235851Y203381D01*
X213614Y229251D01*
X213424Y229400D01*
X213259Y229577D01*
X213113Y229643D01*
X212987Y229741D01*
X212754Y229806D01*
X212535Y229907D01*
X212375Y229912D01*
X212221Y229955D01*
X211981Y229926D01*
X211739Y229934D01*
X211553Y229904D01*
X211253Y231408D01*
X210314Y232814D01*
X208908Y233753D01*
X208877Y233760D01*
X208293Y234525D01*
X208276Y234664D01*
X208295Y234802D01*
X208228Y235055D01*
X208197Y235315D01*
X208128Y235436D01*
X208093Y235571D01*
X207934Y235780D01*
X207806Y236008D01*
X192039Y254350D01*
X192039Y304726D01*
X246246Y358933D01*
X343807D01*
X343957Y358962D01*
X344110Y358955D01*
X344344Y359039D01*
X344588Y359088D01*
X344715Y359173D01*
X344859Y359225D01*
X345042Y359392D01*
X345249Y359530D01*
X345334Y359657D01*
X345447Y359760D01*
X348679Y364132D01*
X348689Y364155D01*
X348707Y364172D01*
X348859Y364515D01*
X349018Y364852D01*
X349028Y364860D01*
X350000Y364667D01*
X351658Y364997D01*
X352919Y365839D01*
X353500Y365927D01*
X354081Y365839D01*
X355342Y364997D01*
X357000Y364667D01*
X358658Y364997D01*
X359919Y365839D01*
X360500Y365927D01*
X361082Y365839D01*
X362342Y364997D01*
X364000Y364667D01*
X365658Y364997D01*
X367064Y365936D01*
X368003Y367342D01*
X368333Y369000D01*
X368003Y370658D01*
X367064Y372064D01*
X365658Y373003D01*
X364000Y373333D01*
X362342Y373003D01*
X361082Y372161D01*
X360500Y372073D01*
X359919Y372161D01*
X358658Y373003D01*
X357000Y373333D01*
X356529Y373240D01*
X356012Y374054D01*
X376140Y401288D01*
X376246Y401513D01*
X376384Y401720D01*
X376414Y401870D01*
X376479Y402008D01*
X376491Y402256D01*
X376539Y402500D01*
Y419319D01*
X376384Y420100D01*
X375942Y420761D01*
X375942Y420761D01*
X360759Y435944D01*
Y448961D01*
X379961D01*
Y439000D01*
X380116Y438220D01*
X380558Y437558D01*
X381220Y437116D01*
X382000Y436961D01*
X403799D01*
X404580Y437116D01*
X405241Y437558D01*
X405683Y438220D01*
X405838Y439000D01*
Y448961D01*
X435545D01*
Y435099D01*
D02*
G37*
G36*
X477047Y316761D02*
X476510Y316039D01*
X467136D01*
X466840Y316400D01*
X466423Y318498D01*
X465234Y320277D01*
X463456Y321465D01*
X461358Y321883D01*
X459260Y321465D01*
X457481Y320277D01*
X456293Y318498D01*
X455876Y316400D01*
X455579Y316039D01*
X422000D01*
X421220Y315884D01*
X420558Y315442D01*
X420116Y314780D01*
X419961Y314000D01*
Y310161D01*
X419061Y309422D01*
X418250Y309583D01*
X416592Y309253D01*
X415186Y308314D01*
X414247Y306908D01*
X413917Y305250D01*
X414247Y303592D01*
X415186Y302186D01*
X416592Y301247D01*
X418250Y300917D01*
X419061Y301078D01*
X419961Y300339D01*
Y259828D01*
X420116Y259048D01*
X420558Y258387D01*
X421220Y257945D01*
X422000Y257789D01*
X456017D01*
X456293Y256403D01*
X457481Y254624D01*
X459260Y253436D01*
X461358Y253019D01*
X463456Y253436D01*
X465234Y254624D01*
X466423Y256403D01*
X466698Y257789D01*
X477961D01*
Y249953D01*
X477961Y249953D01*
X478116Y249173D01*
X478558Y248511D01*
X478558Y248511D01*
X481633Y245436D01*
X481190Y244606D01*
X480000Y244843D01*
X478147Y244474D01*
X476575Y243424D01*
X475526Y241853D01*
X475157Y240000D01*
X475526Y238147D01*
X476575Y236575D01*
X478147Y235526D01*
X480000Y235157D01*
X481853Y235526D01*
X483424Y236575D01*
X484474Y238147D01*
X484843Y240000D01*
X484588Y241280D01*
X485049Y241714D01*
X485394Y241843D01*
X485548Y241740D01*
X485615Y241727D01*
X485673Y241693D01*
X486003Y241650D01*
X486329Y241585D01*
X486395Y241598D01*
X486462Y241589D01*
X486783Y241675D01*
X487109Y241740D01*
X487834Y241281D01*
X488045Y240770D01*
X489167Y239307D01*
X490630Y238185D01*
X491141Y237973D01*
X491600Y237249D01*
X491535Y236923D01*
X491449Y236602D01*
X491458Y236535D01*
X491445Y236469D01*
X491510Y236143D01*
X491553Y235813D01*
X491587Y235755D01*
X491600Y235688D01*
X491785Y235412D01*
X491951Y235124D01*
X492005Y235083D01*
X492042Y235027D01*
X492961Y234108D01*
Y211801D01*
X492061Y211122D01*
X491000Y211333D01*
X489342Y211003D01*
X487936Y210064D01*
X486997Y208658D01*
X486667Y207000D01*
X486997Y205342D01*
X487936Y203936D01*
X489342Y202997D01*
X491000Y202667D01*
X492061Y202878D01*
X492961Y202199D01*
Y159619D01*
X492800Y159402D01*
X490197Y159145D01*
X485579Y157745D01*
X485076Y157476D01*
X484616Y157983D01*
X484481Y158178D01*
X484843Y160000D01*
X484474Y161853D01*
X483424Y163424D01*
X481853Y164474D01*
X480000Y164843D01*
X478147Y164474D01*
X476575Y163424D01*
X475526Y161853D01*
X475157Y160000D01*
X475526Y158147D01*
X476575Y156575D01*
X478147Y155526D01*
X479616Y155233D01*
X479879Y154285D01*
X477592Y152408D01*
X474530Y148677D01*
X473682Y147090D01*
X473253Y146815D01*
X472521Y146827D01*
X472435Y146884D01*
X472317Y146908D01*
X472210Y146962D01*
X471930Y146984D01*
X471655Y147039D01*
X439039D01*
Y171840D01*
X439735Y172411D01*
X439750Y172408D01*
X441603Y172777D01*
X443175Y173827D01*
X444224Y175398D01*
X444593Y177251D01*
X444224Y179104D01*
X443175Y180676D01*
X441603Y181725D01*
X439750Y182094D01*
X439735Y182091D01*
X439039Y182662D01*
Y222675D01*
X439001Y222868D01*
X439002Y223065D01*
X438924Y223255D01*
X438884Y223455D01*
X438775Y223619D01*
X438700Y223801D01*
X438556Y223947D01*
X438442Y224117D01*
X438278Y224226D01*
X438140Y224366D01*
X427272Y231691D01*
X427083Y231770D01*
X426912Y231884D01*
X426720Y231922D01*
X426538Y231998D01*
X426333Y231999D01*
X426132Y232039D01*
X420389D01*
X420248Y232011D01*
X420104Y232019D01*
X419861Y231934D01*
X419609Y231884D01*
X419489Y231803D01*
X419353Y231756D01*
X351190Y191539D01*
X304289D01*
X277039Y224839D01*
Y232961D01*
X378959D01*
X379181Y233005D01*
X379406Y233010D01*
X379567Y233082D01*
X379740Y233116D01*
X379927Y233241D01*
X380134Y233333D01*
X385954Y237433D01*
X386015Y237497D01*
X386093Y237540D01*
X386287Y237783D01*
X386503Y238009D01*
X386535Y238092D01*
X386590Y238161D01*
X386677Y238460D01*
X386789Y238752D01*
X386787Y238840D01*
X386811Y238925D01*
X386777Y239235D01*
X386769Y239547D01*
X386793Y240247D01*
X388199Y241186D01*
X388995Y241115D01*
X389263Y241011D01*
X389518Y240879D01*
X389631Y240869D01*
X389737Y240828D01*
X390024Y240835D01*
X390310Y240811D01*
X390419Y240845D01*
X390532Y240848D01*
X390795Y240964D01*
X391069Y241051D01*
X391156Y241124D01*
X391260Y241170D01*
X401782Y248583D01*
X402437Y247943D01*
X402247Y247658D01*
X401917Y246000D01*
X402247Y244342D01*
X403186Y242936D01*
X404592Y241997D01*
X406250Y241667D01*
X407909Y241997D01*
X409314Y242936D01*
X410254Y244342D01*
X410584Y246000D01*
X410254Y247658D01*
X409314Y249064D01*
X407909Y250003D01*
X406250Y250333D01*
X405665Y250217D01*
X405302Y251062D01*
X406698Y252045D01*
X406819Y252173D01*
X406966Y252271D01*
X407091Y252458D01*
X407247Y252622D01*
X407310Y252786D01*
X407408Y252932D01*
X407452Y253153D01*
X407533Y253364D01*
X407528Y253540D01*
X407563Y253713D01*
Y300184D01*
X407488Y300563D01*
X407416Y300945D01*
X407410Y300954D01*
X407408Y300965D01*
X407193Y301286D01*
X406981Y301611D01*
X406972Y301617D01*
X406966Y301626D01*
X406643Y301842D01*
X406324Y302060D01*
X370436Y317376D01*
X370425Y317378D01*
X370416Y317384D01*
X370036Y317459D01*
X369657Y317539D01*
X369646Y317537D01*
X369635Y317539D01*
X356606D01*
X356310Y317480D01*
X356009Y317450D01*
X355922Y317403D01*
X355826Y317384D01*
X355574Y317216D01*
X355308Y317073D01*
X320467Y288328D01*
X275000D01*
X274220Y288172D01*
X273981Y288013D01*
X273741Y288172D01*
X272961Y288328D01*
X258562D01*
X257781Y288172D01*
X257120Y287731D01*
X256678Y287069D01*
X256523Y286289D01*
Y270193D01*
X256554Y270034D01*
X256523Y269876D01*
Y267289D01*
X254044D01*
X253847Y267250D01*
X253653D01*
X253456Y267289D01*
X234143D01*
X208615Y283133D01*
Y294969D01*
X252606Y338961D01*
X381000D01*
X381780Y339116D01*
X382020Y339276D01*
X382259Y339116D01*
X383039Y338961D01*
X435500D01*
X436280Y339116D01*
X436942Y339558D01*
X437384Y340220D01*
X437539Y341000D01*
Y354931D01*
X438439Y355467D01*
X440000Y355157D01*
X441853Y355526D01*
X443424Y356575D01*
X444474Y358147D01*
X444843Y360000D01*
X444474Y361853D01*
X443424Y363424D01*
X441853Y364474D01*
X440000Y364843D01*
X438439Y364533D01*
X437539Y365069D01*
Y401961D01*
X451606D01*
X477047Y316761D01*
D02*
G37*
G36*
X480000Y259828D02*
X466576D01*
X466423Y260599D01*
X465234Y262377D01*
X463456Y263566D01*
X461358Y263983D01*
X459260Y263566D01*
X457481Y262377D01*
X456293Y260599D01*
X456139Y259828D01*
X422000D01*
Y303198D01*
X422500Y304405D01*
Y306095D01*
X422000Y307302D01*
Y314000D01*
X456495D01*
X457481Y312524D01*
X459260Y311335D01*
X461358Y310918D01*
X463456Y311335D01*
X465234Y312524D01*
X466221Y314000D01*
X480000D01*
Y259828D01*
D02*
G37*
G36*
X405524Y300184D02*
Y253713D01*
X390085Y242838D01*
X389632Y243200D01*
X389385Y243445D01*
Y245095D01*
X388738Y246657D01*
X387542Y247853D01*
X385980Y248500D01*
X384289D01*
X382727Y247853D01*
X381532Y246657D01*
X380885Y245095D01*
Y243405D01*
X381532Y241842D01*
X382727Y240647D01*
X384289Y240000D01*
X384495D01*
X384780Y239100D01*
X378959Y235000D01*
X275000D01*
Y236930D01*
X275432Y237973D01*
Y239663D01*
X275000Y240706D01*
Y286289D01*
X321200D01*
X356606Y315500D01*
X369635D01*
X405524Y300184D01*
D02*
G37*
G36*
X471897Y448238D02*
X470854Y444803D01*
X470382Y440000D01*
X470854Y435197D01*
X472255Y430579D01*
X474530Y426323D01*
X477592Y422592D01*
X481323Y419530D01*
X485579Y417256D01*
X490197Y415854D01*
X495000Y415382D01*
X499803Y415854D01*
X504421Y417256D01*
X508677Y419530D01*
X512408Y422592D01*
X515470Y426323D01*
X517745Y430579D01*
X519100Y435047D01*
X520000Y434914D01*
Y140086D01*
X519100Y139953D01*
X517745Y144421D01*
X515470Y148677D01*
X512408Y152408D01*
X508677Y155470D01*
X504421Y157745D01*
X499803Y159145D01*
X495000Y159619D01*
Y202883D01*
X495794Y203307D01*
X496259Y202997D01*
X497917Y202667D01*
X499575Y202997D01*
X500981Y203936D01*
X501920Y205342D01*
X502250Y207000D01*
X501920Y208658D01*
X500981Y210064D01*
X499575Y211003D01*
X497917Y211333D01*
X496259Y211003D01*
X495794Y210693D01*
X495000Y211117D01*
Y234953D01*
X493484Y236469D01*
X493882Y237276D01*
X494160Y237239D01*
X502160D01*
X503987Y237480D01*
X505690Y238185D01*
X507152Y239307D01*
X508274Y240770D01*
X508980Y242472D01*
X509220Y244300D01*
X508980Y246127D01*
X508274Y247830D01*
X507152Y249292D01*
X505690Y250414D01*
X503987Y251119D01*
X502160Y251360D01*
X494160D01*
X492332Y251119D01*
X490630Y250414D01*
X489167Y249292D01*
X488045Y247830D01*
X487340Y246127D01*
X487099Y244300D01*
X487136Y244022D01*
X486329Y243624D01*
X480000Y249953D01*
Y257789D01*
X480780Y257945D01*
X481442Y258387D01*
X481884Y259048D01*
X482039Y259828D01*
Y314000D01*
X481884Y314780D01*
X481442Y315442D01*
X480780Y315884D01*
X480000Y316039D01*
X479391D01*
X453125Y404000D01*
X435500D01*
Y361725D01*
X435157Y360000D01*
X435500Y358275D01*
Y341000D01*
X383039D01*
Y377392D01*
X398801Y393831D01*
X398850Y393907D01*
X398919Y393965D01*
X399063Y394240D01*
X399229Y394501D01*
X399552Y394852D01*
X400000Y395157D01*
X401853Y395526D01*
X403424Y396575D01*
X404474Y398147D01*
X404843Y400000D01*
X404830Y400064D01*
X405253Y400922D01*
X405351Y400976D01*
X405460Y401000D01*
X405697Y401166D01*
X405951Y401305D01*
X406021Y401392D01*
X406113Y401456D01*
X437017Y433688D01*
X437220Y434006D01*
X437429Y434319D01*
X437433Y434341D01*
X437445Y434359D01*
X437511Y434730D01*
X437584Y435099D01*
Y448961D01*
X471360D01*
X471897Y448238D01*
D02*
G37*
%LPC*%
G36*
X267000Y427333D02*
X265342Y427003D01*
X264081Y426161D01*
X263500Y426073D01*
X262918Y426161D01*
X261658Y427003D01*
X260000Y427333D01*
X258342Y427003D01*
X257082Y426161D01*
X256500Y426073D01*
X255919Y426161D01*
X254658Y427003D01*
X253000Y427333D01*
X251342Y427003D01*
X249936Y426064D01*
X248997Y424658D01*
X248667Y423000D01*
X248997Y421342D01*
X249936Y419936D01*
X251342Y418997D01*
X253000Y418667D01*
X254658Y418997D01*
X255919Y419839D01*
X256500Y419927D01*
X257082Y419839D01*
X258342Y418997D01*
X260000Y418667D01*
X261658Y418997D01*
X262918Y419839D01*
X263500Y419927D01*
X264081Y419839D01*
X265342Y418997D01*
X267000Y418667D01*
X268658Y418997D01*
X270064Y419936D01*
X271003Y421342D01*
X271333Y423000D01*
X271003Y424658D01*
X270064Y426064D01*
X268658Y427003D01*
X267000Y427333D01*
D02*
G37*
G36*
X280000Y404843D02*
X278147Y404474D01*
X276575Y403424D01*
X275526Y401853D01*
X275157Y400000D01*
X275526Y398147D01*
X276575Y396575D01*
X278147Y395526D01*
X280000Y395157D01*
X281853Y395526D01*
X283424Y396575D01*
X284474Y398147D01*
X284843Y400000D01*
X284474Y401853D01*
X283424Y403424D01*
X281853Y404474D01*
X280000Y404843D01*
D02*
G37*
G36*
X240000D02*
X238147Y404474D01*
X236575Y403424D01*
X235526Y401853D01*
X235157Y400000D01*
X235526Y398147D01*
X236575Y396575D01*
X238147Y395526D01*
X240000Y395157D01*
X241853Y395526D01*
X243424Y396575D01*
X244474Y398147D01*
X244843Y400000D01*
X244474Y401853D01*
X243424Y403424D01*
X241853Y404474D01*
X240000Y404843D01*
D02*
G37*
G36*
X202000D02*
X200147Y404474D01*
X198575Y403424D01*
X197526Y401853D01*
X197157Y400000D01*
X197526Y398147D01*
X198575Y396575D01*
X200147Y395526D01*
X202000Y395157D01*
X203853Y395526D01*
X205425Y396575D01*
X206474Y398147D01*
X206843Y400000D01*
X206474Y401853D01*
X205425Y403424D01*
X203853Y404474D01*
X202000Y404843D01*
D02*
G37*
G36*
X225000Y380843D02*
X223147Y380474D01*
X221576Y379425D01*
X220526Y377853D01*
X220157Y376000D01*
X220526Y374147D01*
X221576Y372575D01*
X223147Y371526D01*
X225000Y371157D01*
X226853Y371526D01*
X228425Y372575D01*
X229474Y374147D01*
X229843Y376000D01*
X229474Y377853D01*
X228425Y379425D01*
X226853Y380474D01*
X225000Y380843D01*
D02*
G37*
G36*
X257000Y374843D02*
X255147Y374474D01*
X253575Y373425D01*
X252526Y371853D01*
X252157Y370000D01*
X252526Y368147D01*
X253575Y366575D01*
X255147Y365526D01*
X257000Y365157D01*
X258853Y365526D01*
X260424Y366575D01*
X261474Y368147D01*
X261843Y370000D01*
X261474Y371853D01*
X260424Y373425D01*
X258853Y374474D01*
X257000Y374843D01*
D02*
G37*
G36*
X202000Y330843D02*
X200147Y330474D01*
X198575Y329425D01*
X197526Y327853D01*
X197157Y326000D01*
X197526Y324147D01*
X198575Y322575D01*
X200147Y321526D01*
X202000Y321157D01*
X203853Y321526D01*
X205425Y322575D01*
X206474Y324147D01*
X206843Y326000D01*
X206474Y327853D01*
X205425Y329425D01*
X203853Y330474D01*
X202000Y330843D01*
D02*
G37*
G36*
X181500Y318159D02*
X179770Y317931D01*
X178158Y317264D01*
X176773Y316201D01*
X175711Y314817D01*
X175043Y313205D01*
X174816Y311475D01*
X175043Y309745D01*
X175711Y308133D01*
X176773Y306749D01*
X178158Y305686D01*
X179770Y305019D01*
X181500Y304791D01*
X183230Y305019D01*
X184842Y305686D01*
X186226Y306749D01*
X187289Y308133D01*
X187957Y309745D01*
X188184Y311475D01*
X187957Y313205D01*
X187289Y314817D01*
X186226Y316201D01*
X184842Y317264D01*
X183230Y317931D01*
X181500Y318159D01*
D02*
G37*
G36*
X184000Y301333D02*
X182342Y301003D01*
X180936Y300064D01*
X179997Y298658D01*
X179667Y297000D01*
X179997Y295342D01*
X180936Y293936D01*
X182342Y292997D01*
X184000Y292667D01*
X185658Y292997D01*
X187064Y293936D01*
X188003Y295342D01*
X188333Y297000D01*
X188003Y298658D01*
X187064Y300064D01*
X185658Y301003D01*
X184000Y301333D01*
D02*
G37*
G36*
X181500Y288159D02*
X179770Y287932D01*
X178158Y287264D01*
X176773Y286202D01*
X175711Y284817D01*
X175043Y283205D01*
X174816Y281475D01*
X175043Y279745D01*
X175711Y278133D01*
X176773Y276749D01*
X178158Y275686D01*
X179770Y275019D01*
X181500Y274791D01*
X183230Y275019D01*
X184842Y275686D01*
X186226Y276749D01*
X187289Y278133D01*
X187957Y279745D01*
X188184Y281475D01*
X187957Y283205D01*
X187289Y284817D01*
X186226Y286202D01*
X184842Y287264D01*
X183230Y287932D01*
X181500Y288159D01*
D02*
G37*
G36*
X179500Y227446D02*
X177304Y227009D01*
X175443Y225765D01*
X174199Y223904D01*
X173763Y221708D01*
X174199Y219513D01*
X175443Y217651D01*
X177304Y216408D01*
X179500Y215971D01*
X181696Y216408D01*
X183557Y217651D01*
X184801Y219513D01*
X185237Y221708D01*
X184801Y223904D01*
X183557Y225765D01*
X181696Y227009D01*
X179500Y227446D01*
D02*
G37*
G36*
Y210445D02*
X177304Y210009D01*
X175443Y208765D01*
X174199Y206903D01*
X173763Y204708D01*
X174199Y202512D01*
X175443Y200651D01*
X177304Y199407D01*
X179500Y198971D01*
X181696Y199407D01*
X183557Y200651D01*
X184801Y202512D01*
X185237Y204708D01*
X184801Y206903D01*
X183557Y208765D01*
X181696Y210009D01*
X179500Y210445D01*
D02*
G37*
G36*
X240000Y164843D02*
X238147Y164474D01*
X236575Y163424D01*
X235526Y161853D01*
X235157Y160000D01*
X235526Y158147D01*
X236575Y156575D01*
X238147Y155526D01*
X240000Y155157D01*
X241853Y155526D01*
X243424Y156575D01*
X244474Y158147D01*
X244843Y160000D01*
X244474Y161853D01*
X243424Y163424D01*
X241853Y164474D01*
X240000Y164843D01*
D02*
G37*
G36*
X355000Y141333D02*
X353342Y141003D01*
X351936Y140064D01*
X350997Y138658D01*
X350667Y137000D01*
X350997Y135342D01*
X351936Y133936D01*
X353342Y132997D01*
X355000Y132667D01*
X356658Y132997D01*
X358064Y133936D01*
X359003Y135342D01*
X359333Y137000D01*
X359003Y138658D01*
X358064Y140064D01*
X356658Y141003D01*
X355000Y141333D01*
D02*
G37*
G36*
X440000Y124843D02*
X438147Y124474D01*
X436575Y123425D01*
X435526Y121853D01*
X435157Y120000D01*
X435526Y118147D01*
X436575Y116575D01*
X438147Y115526D01*
X440000Y115157D01*
X441853Y115526D01*
X443424Y116575D01*
X444474Y118147D01*
X444843Y120000D01*
X444474Y121853D01*
X443424Y123425D01*
X441853Y124474D01*
X440000Y124843D01*
D02*
G37*
G36*
X240000D02*
X238147Y124474D01*
X236575Y123425D01*
X235526Y121853D01*
X235157Y120000D01*
X235526Y118147D01*
X236575Y116575D01*
X238147Y115526D01*
X240000Y115157D01*
X241853Y115526D01*
X243424Y116575D01*
X244474Y118147D01*
X244843Y120000D01*
X244474Y121853D01*
X243424Y123425D01*
X241853Y124474D01*
X240000Y124843D01*
D02*
G37*
G36*
X280000Y354843D02*
X278147Y354474D01*
X276576Y353425D01*
X275526Y351853D01*
X275157Y350000D01*
X275526Y348147D01*
X276576Y346576D01*
X278147Y345526D01*
X280000Y345157D01*
X281853Y345526D01*
X283425Y346576D01*
X284474Y348147D01*
X284843Y350000D01*
X284474Y351853D01*
X283425Y353425D01*
X281853Y354474D01*
X280000Y354843D01*
D02*
G37*
G36*
X206514Y277831D02*
X204660Y277462D01*
X203089Y276412D01*
X202039Y274841D01*
X201671Y272988D01*
X202039Y271134D01*
X203089Y269563D01*
X204660Y268514D01*
X206514Y268145D01*
X208367Y268514D01*
X209938Y269563D01*
X210988Y271134D01*
X211357Y272988D01*
X210988Y274841D01*
X209938Y276412D01*
X208367Y277462D01*
X206514Y277831D01*
D02*
G37*
G36*
X212000Y251843D02*
X210147Y251474D01*
X208575Y250424D01*
X207526Y248853D01*
X207157Y247000D01*
X207526Y245147D01*
X208575Y243575D01*
X210147Y242526D01*
X212000Y242157D01*
X213853Y242526D01*
X215425Y243575D01*
X216474Y245147D01*
X216843Y247000D01*
X216474Y248853D01*
X215425Y250424D01*
X213853Y251474D01*
X212000Y251843D01*
D02*
G37*
G36*
X374500Y182094D02*
X372647Y181725D01*
X371075Y180676D01*
X370026Y179104D01*
X369657Y177251D01*
X370026Y175398D01*
X371075Y173827D01*
X372647Y172777D01*
X374500Y172408D01*
X376353Y172777D01*
X377924Y173827D01*
X378974Y175398D01*
X379343Y177251D01*
X378974Y179104D01*
X377924Y180676D01*
X376353Y181725D01*
X374500Y182094D01*
D02*
G37*
G36*
X325384D02*
X323530Y181725D01*
X321959Y180676D01*
X320909Y179104D01*
X320541Y177251D01*
X320909Y175398D01*
X321959Y173827D01*
X323530Y172777D01*
X325384Y172408D01*
X327237Y172777D01*
X328808Y173827D01*
X329858Y175398D01*
X330227Y177251D01*
X329858Y179104D01*
X328808Y180676D01*
X327237Y181725D01*
X325384Y182094D01*
D02*
G37*
G36*
X461859Y337761D02*
X450859D01*
X449032Y337520D01*
X447329Y336815D01*
X445867Y335693D01*
X444745Y334230D01*
X444039Y332528D01*
X443799Y330700D01*
X444039Y328873D01*
X444745Y327170D01*
X445867Y325708D01*
X447329Y324586D01*
X449032Y323881D01*
X450859Y323640D01*
X461859D01*
X463686Y323881D01*
X465389Y324586D01*
X466852Y325708D01*
X467974Y327170D01*
X468679Y328873D01*
X468919Y330700D01*
X468679Y332528D01*
X467974Y334230D01*
X466852Y335693D01*
X465389Y336815D01*
X463686Y337520D01*
X461859Y337761D01*
D02*
G37*
G36*
X440000Y326843D02*
X438147Y326474D01*
X436575Y325424D01*
X435526Y323853D01*
X435157Y322000D01*
X435526Y320147D01*
X436575Y318575D01*
X438147Y317526D01*
X440000Y317157D01*
X441853Y317526D01*
X443424Y318575D01*
X444474Y320147D01*
X444843Y322000D01*
X444474Y323853D01*
X443424Y325424D01*
X441853Y326474D01*
X440000Y326843D01*
D02*
G37*
G36*
X403000D02*
X401147Y326474D01*
X399576Y325424D01*
X398526Y323853D01*
X398157Y322000D01*
X398526Y320147D01*
X399576Y318575D01*
X401147Y317526D01*
X403000Y317157D01*
X404853Y317526D01*
X406425Y318575D01*
X407474Y320147D01*
X407843Y322000D01*
X407474Y323853D01*
X406425Y325424D01*
X404853Y326474D01*
X403000Y326843D01*
D02*
G37*
G36*
X310500Y324333D02*
X308842Y324003D01*
X307436Y323064D01*
X306497Y321658D01*
X306167Y320000D01*
X306497Y318342D01*
X307436Y316936D01*
X308842Y315997D01*
X310500Y315667D01*
X312159Y315997D01*
X313564Y316936D01*
X314504Y318342D01*
X314834Y320000D01*
X314504Y321658D01*
X313564Y323064D01*
X312159Y324003D01*
X310500Y324333D01*
D02*
G37*
G36*
X321745Y324078D02*
X320087Y323748D01*
X318681Y322809D01*
X317741Y321403D01*
X317412Y319745D01*
X317741Y318086D01*
X318681Y316681D01*
X320087Y315741D01*
X321745Y315412D01*
X323403Y315741D01*
X324809Y316681D01*
X325748Y318086D01*
X326078Y319745D01*
X325748Y321403D01*
X324809Y322809D01*
X323403Y323748D01*
X321745Y324078D01*
D02*
G37*
G36*
X250250Y322843D02*
X248397Y322474D01*
X246825Y321425D01*
X245776Y319853D01*
X245407Y318000D01*
X245776Y316147D01*
X246825Y314575D01*
X248397Y313526D01*
X250250Y313157D01*
X252103Y313526D01*
X253675Y314575D01*
X254724Y316147D01*
X255093Y318000D01*
X254724Y319853D01*
X253675Y321425D01*
X252103Y322474D01*
X250250Y322843D01*
D02*
G37*
G36*
X315125Y305512D02*
X313271Y305143D01*
X311700Y304093D01*
X310650Y302522D01*
X310282Y300669D01*
X310650Y298815D01*
X311700Y297244D01*
X313271Y296194D01*
X315125Y295826D01*
X316978Y296194D01*
X318549Y297244D01*
X319599Y298815D01*
X319968Y300669D01*
X319599Y302522D01*
X318549Y304093D01*
X316978Y305143D01*
X315125Y305512D01*
D02*
G37*
G36*
X287000Y299333D02*
X285342Y299003D01*
X283936Y298064D01*
X282997Y296658D01*
X282667Y295000D01*
X282997Y293342D01*
X283936Y291936D01*
X285342Y290997D01*
X287000Y290667D01*
X288658Y290997D01*
X290064Y291936D01*
X291003Y293342D01*
X291333Y295000D01*
X291003Y296658D01*
X290064Y298064D01*
X288658Y299003D01*
X287000Y299333D01*
D02*
G37*
G36*
X461859Y251360D02*
X450859D01*
X449032Y251119D01*
X447329Y250414D01*
X445867Y249292D01*
X444745Y247830D01*
X444039Y246127D01*
X443799Y244300D01*
X444039Y242472D01*
X444745Y240770D01*
X445867Y239307D01*
X447329Y238185D01*
X449032Y237480D01*
X450859Y237239D01*
X461859D01*
X463686Y237480D01*
X465389Y238185D01*
X466852Y239307D01*
X467974Y240770D01*
X468679Y242472D01*
X468919Y244300D01*
X468679Y246127D01*
X467974Y247830D01*
X466852Y249292D01*
X465389Y250414D01*
X463686Y251119D01*
X461859Y251360D01*
D02*
G37*
G36*
X317500Y219333D02*
X315842Y219003D01*
X314436Y218064D01*
X313497Y216658D01*
X313167Y215000D01*
X313497Y213342D01*
X314436Y211936D01*
X315842Y210997D01*
X317500Y210667D01*
X319158Y210997D01*
X320564Y211936D01*
X321503Y213342D01*
X321833Y215000D01*
X321503Y216658D01*
X320564Y218064D01*
X319158Y219003D01*
X317500Y219333D01*
D02*
G37*
G36*
X307500D02*
X305842Y219003D01*
X304436Y218064D01*
X303497Y216658D01*
X303167Y215000D01*
X303497Y213342D01*
X304436Y211936D01*
X305842Y210997D01*
X307500Y210667D01*
X309158Y210997D01*
X310564Y211936D01*
X311503Y213342D01*
X311833Y215000D01*
X311503Y216658D01*
X310564Y218064D01*
X309158Y219003D01*
X307500Y219333D01*
D02*
G37*
G36*
X464845Y305250D02*
X463155D01*
X461593Y304603D01*
X460397Y303407D01*
X459750Y301845D01*
Y300155D01*
X460397Y298593D01*
X461593Y297397D01*
X463155Y296750D01*
X464845D01*
X466407Y297397D01*
X467603Y298593D01*
X468250Y300155D01*
Y301845D01*
X467603Y303407D01*
X466407Y304603D01*
X464845Y305250D01*
D02*
G37*
G36*
X460855Y294250D02*
X459164D01*
X457602Y293603D01*
X456406Y292407D01*
X455759Y290845D01*
Y289154D01*
X456406Y287592D01*
X457602Y286397D01*
X459164Y285750D01*
X460855D01*
X462417Y286397D01*
X463612Y287592D01*
X464259Y289154D01*
Y290845D01*
X463612Y292407D01*
X462417Y293603D01*
X460855Y294250D01*
D02*
G37*
G36*
X460855Y284250D02*
X459164D01*
X457602Y283603D01*
X456407Y282408D01*
X455760Y280846D01*
Y279155D01*
X456407Y277593D01*
X457602Y276397D01*
X459164Y275750D01*
X459315D01*
X459815Y275002D01*
X459750Y274845D01*
Y273155D01*
X460397Y271593D01*
X461593Y270397D01*
X463155Y269750D01*
X464845D01*
X466407Y270397D01*
X467603Y271593D01*
X468250Y273155D01*
Y274845D01*
X467603Y276407D01*
X466407Y277603D01*
X464845Y278250D01*
X464695D01*
X464195Y278998D01*
X464259Y279155D01*
Y280846D01*
X463613Y282408D01*
X462417Y283603D01*
X460855Y284250D01*
D02*
G37*
G36*
X301439Y278844D02*
X299749D01*
X298187Y278197D01*
X296991Y277001D01*
X296344Y275439D01*
Y273749D01*
X296991Y272187D01*
X298187Y270991D01*
X299749Y270344D01*
X301439D01*
X303001Y270991D01*
X304197Y272187D01*
X304844Y273749D01*
Y275439D01*
X304197Y277001D01*
X303001Y278197D01*
X301439Y278844D01*
D02*
G37*
G36*
X336564Y274531D02*
X334874D01*
X333312Y273884D01*
X332116Y272688D01*
X331469Y271126D01*
Y269436D01*
X332116Y267874D01*
X333312Y266678D01*
X334874Y266031D01*
X336564D01*
X338126Y266678D01*
X339322Y267874D01*
X339969Y269436D01*
Y271126D01*
X339322Y272688D01*
X338126Y273884D01*
X336564Y274531D01*
D02*
G37*
G36*
X364345Y267250D02*
X362655D01*
X361093Y266603D01*
X360250Y265760D01*
X359407Y266603D01*
X357845Y267250D01*
X356155D01*
X354593Y266603D01*
X353750Y265760D01*
X352907Y266603D01*
X351345Y267250D01*
X349655D01*
X348093Y266603D01*
X347250Y265760D01*
X346407Y266603D01*
X344845Y267250D01*
X343155D01*
X341593Y266603D01*
X340397Y265407D01*
X339750Y263845D01*
Y262155D01*
X340397Y260593D01*
X341593Y259397D01*
X343155Y258750D01*
X344845D01*
X346407Y259397D01*
X347250Y260240D01*
X348093Y259397D01*
X349655Y258750D01*
X351345D01*
X352907Y259397D01*
X353750Y260240D01*
X354593Y259397D01*
X356155Y258750D01*
X357845D01*
X359407Y259397D01*
X360250Y260240D01*
X361093Y259397D01*
X362655Y258750D01*
X364345D01*
X365907Y259397D01*
X367103Y260593D01*
X367750Y262155D01*
Y263845D01*
X367103Y265407D01*
X365907Y266603D01*
X364345Y267250D01*
D02*
G37*
G36*
X314845Y259250D02*
X313155D01*
X311593Y258603D01*
X310524Y257535D01*
X310000Y257462D01*
X309476Y257535D01*
X308407Y258603D01*
X306845Y259250D01*
X305155D01*
X303593Y258603D01*
X302397Y257407D01*
X301750Y255845D01*
Y254155D01*
X302397Y252593D01*
X303465Y251524D01*
X303538Y251000D01*
X303465Y250476D01*
X302397Y249407D01*
X301750Y247845D01*
Y246155D01*
X302397Y244593D01*
X303593Y243397D01*
X305155Y242750D01*
X306845D01*
X308407Y243397D01*
X309476Y244465D01*
X310000Y244538D01*
X310524Y244465D01*
X311593Y243397D01*
X313155Y242750D01*
X314845D01*
X316407Y243397D01*
X317603Y244593D01*
X318250Y246155D01*
Y247845D01*
X317603Y249407D01*
X316535Y250476D01*
X316462Y251000D01*
X316535Y251524D01*
X317603Y252593D01*
X318250Y254155D01*
Y255845D01*
X317603Y257407D01*
X316407Y258603D01*
X314845Y259250D01*
D02*
G37*
G36*
X320445Y269750D02*
X318555D01*
X316809Y269027D01*
X315473Y267691D01*
X314750Y265945D01*
Y264055D01*
X315473Y262309D01*
X316809Y260973D01*
X318555Y260250D01*
X320445D01*
X320750Y260046D01*
Y259155D01*
X321397Y257593D01*
X322593Y256397D01*
X324155Y255750D01*
X325845D01*
X327407Y256397D01*
X328603Y257593D01*
X329250Y259155D01*
Y260845D01*
X328603Y262407D01*
X327407Y263603D01*
X325845Y264250D01*
X324250D01*
Y265945D01*
X323527Y267691D01*
X322191Y269027D01*
X320445Y269750D01*
D02*
G37*
G36*
X347528Y251432D02*
X345638D01*
X343892Y250709D01*
X342556Y249373D01*
X341833Y247627D01*
Y245738D01*
X342556Y243992D01*
X343892Y242656D01*
X345638Y241932D01*
X347528D01*
X349273Y242656D01*
X350610Y243992D01*
X351333Y245738D01*
Y247627D01*
X350610Y249373D01*
X349273Y250709D01*
X347528Y251432D01*
D02*
G37*
G36*
X424230Y395333D02*
X422571Y395003D01*
X421166Y394064D01*
X420794D01*
X419388Y395003D01*
X417730Y395333D01*
X416071Y395003D01*
X414666Y394064D01*
X414294D01*
X412888Y395003D01*
X411230Y395333D01*
X409571Y395003D01*
X408166Y394064D01*
X407226Y392658D01*
X406896Y391000D01*
X407226Y389342D01*
X408166Y387936D01*
X409571Y386997D01*
X411230Y386667D01*
X412888Y386997D01*
X414294Y387936D01*
X414666D01*
X416071Y386997D01*
X417730Y386667D01*
X419388Y386997D01*
X420794Y387936D01*
X421166D01*
X422571Y386997D01*
X424230Y386667D01*
X425888Y386997D01*
X427294Y387936D01*
X428233Y389342D01*
X428563Y391000D01*
X428233Y392658D01*
X427294Y394064D01*
X425888Y395003D01*
X424230Y395333D01*
D02*
G37*
G36*
X475479Y399986D02*
X473821Y399656D01*
X472415Y398717D01*
X471476Y397311D01*
X471146Y395653D01*
X471476Y393994D01*
X472415Y392589D01*
X473821Y391649D01*
X475479Y391320D01*
X477137Y391649D01*
X478543Y392589D01*
X479482Y393994D01*
X479812Y395653D01*
X479482Y397311D01*
X478543Y398717D01*
X477137Y399656D01*
X475479Y399986D01*
D02*
G37*
G36*
X485479Y388673D02*
X483821Y388343D01*
X482415Y387404D01*
X481475Y385998D01*
X481146Y384340D01*
X481475Y382682D01*
X482415Y381276D01*
X483821Y380337D01*
X485479Y380007D01*
X487137Y380337D01*
X488543Y381276D01*
X489482Y382682D01*
X489812Y384340D01*
X489482Y385998D01*
X488543Y387404D01*
X487137Y388343D01*
X485479Y388673D01*
D02*
G37*
G36*
X416000Y379333D02*
X414342Y379003D01*
X412936Y378064D01*
X411997Y376658D01*
X411667Y375000D01*
X411997Y373342D01*
X412936Y371936D01*
X414342Y370997D01*
X416000Y370667D01*
X417658Y370997D01*
X419064Y371936D01*
X420003Y373342D01*
X420333Y375000D01*
X420003Y376658D01*
X419064Y378064D01*
X417658Y379003D01*
X416000Y379333D01*
D02*
G37*
G36*
X485757Y376075D02*
X484099Y375745D01*
X482693Y374806D01*
X481754Y373400D01*
X481424Y371742D01*
X481754Y370084D01*
X482693Y368678D01*
X484099Y367738D01*
X485757Y367409D01*
X487415Y367738D01*
X488821Y368678D01*
X489761Y370084D01*
X490090Y371742D01*
X489761Y373400D01*
X488821Y374806D01*
X487415Y375745D01*
X485757Y376075D01*
D02*
G37*
G36*
X475479Y374586D02*
X473821Y374256D01*
X472415Y373317D01*
X471476Y371911D01*
X471146Y370253D01*
X471476Y368595D01*
X472415Y367189D01*
X473821Y366249D01*
X475479Y365919D01*
X477137Y366249D01*
X478543Y367189D01*
X479482Y368595D01*
X479812Y370253D01*
X479482Y371911D01*
X478543Y373317D01*
X477137Y374256D01*
X475479Y374586D01*
D02*
G37*
G36*
X393333Y366309D02*
X391480Y365941D01*
X389909Y364891D01*
X388859Y363320D01*
X388490Y361466D01*
X388859Y359613D01*
X389909Y358042D01*
X391480Y356992D01*
X393333Y356623D01*
X395187Y356992D01*
X396758Y358042D01*
X397808Y359613D01*
X398176Y361466D01*
X397808Y363320D01*
X396758Y364891D01*
X395187Y365941D01*
X393333Y366309D01*
D02*
G37*
G36*
X481000Y342333D02*
X479342Y342003D01*
X477936Y341064D01*
X476997Y339658D01*
X476667Y338000D01*
X476997Y336342D01*
X477936Y334936D01*
X479342Y333997D01*
X481000Y333667D01*
X482658Y333997D01*
X484064Y334936D01*
X485003Y336342D01*
X485333Y338000D01*
X485003Y339658D01*
X484064Y341064D01*
X482658Y342003D01*
X481000Y342333D01*
D02*
G37*
G36*
X502160Y337761D02*
X494160D01*
X492332Y337520D01*
X490630Y336815D01*
X489167Y335693D01*
X488045Y334230D01*
X487340Y332528D01*
X487099Y330700D01*
X487340Y328873D01*
X488045Y327170D01*
X489167Y325708D01*
X490630Y324586D01*
X492332Y323881D01*
X494160Y323640D01*
X502160D01*
X503987Y323881D01*
X505690Y324586D01*
X507152Y325708D01*
X508274Y327170D01*
X508980Y328873D01*
X509220Y330700D01*
X508980Y332528D01*
X508274Y334230D01*
X507152Y335693D01*
X505690Y336815D01*
X503987Y337520D01*
X502160Y337761D01*
D02*
G37*
%LPD*%
D71*
X456359Y330700D02*
D03*
Y244300D02*
D03*
D72*
X498160Y330700D02*
D03*
Y244300D02*
D03*
D73*
X190000Y440000D02*
D03*
Y135000D02*
D03*
X495000D02*
D03*
Y440000D02*
D03*
D74*
X280000Y350000D02*
D03*
X263000Y271000D02*
D03*
Y281000D02*
D03*
X206514Y272988D02*
D03*
X213000Y263000D02*
D03*
X325384Y177251D02*
D03*
X393333Y361466D02*
D03*
X444000Y396000D02*
D03*
X257000Y370000D02*
D03*
X202000Y326000D02*
D03*
X480000Y240000D02*
D03*
Y160000D02*
D03*
X440000Y360000D02*
D03*
Y120000D02*
D03*
X400000Y400000D02*
D03*
X280000D02*
D03*
X240000D02*
D03*
Y200000D02*
D03*
Y160000D02*
D03*
Y120000D02*
D03*
X202000Y400000D02*
D03*
X439750Y177251D02*
D03*
X225000Y376000D02*
D03*
X440000Y322000D02*
D03*
X403000D02*
D03*
X374500Y177251D02*
D03*
X250250Y318000D02*
D03*
X315125Y300669D02*
D03*
X319500Y265000D02*
D03*
X346583Y246682D02*
D03*
X212000Y247000D02*
D03*
X370987Y406000D02*
D03*
X365000D02*
D03*
X395000Y453000D02*
D03*
Y446000D02*
D03*
X315000Y368000D02*
D03*
X301000D02*
D03*
X329000Y136000D02*
D03*
X253750Y270034D02*
D03*
X303000Y170000D02*
D03*
X304000Y136000D02*
D03*
X325000Y153000D02*
D03*
X408500Y188250D02*
D03*
X453000Y163000D02*
D03*
X211935Y291549D02*
D03*
X368000Y443500D02*
D03*
X259513Y243487D02*
D03*
X424242Y220973D02*
D03*
X393570Y420854D02*
D03*
X431000Y360000D02*
D03*
X411501Y359000D02*
D03*
X469000Y307000D02*
D03*
Y268000D02*
D03*
X421000Y349000D02*
D03*
X502770Y227000D02*
D03*
X487230D02*
D03*
X261000Y333000D02*
D03*
X287000Y327000D02*
D03*
X403800Y225958D02*
D03*
X427000Y279726D02*
D03*
X283500Y247240D02*
D03*
X362000Y307000D02*
D03*
X377000Y331000D02*
D03*
X381144Y320143D02*
D03*
X399230Y281761D02*
D03*
X308000Y203000D02*
D03*
X375000Y220000D02*
D03*
D75*
X416000Y375000D02*
D03*
X418250Y305250D02*
D03*
X321745Y319745D02*
D03*
X335719Y270281D02*
D03*
X355000Y137000D02*
D03*
X184000Y297000D02*
D03*
X325000Y260000D02*
D03*
X411230Y391000D02*
D03*
X424230D02*
D03*
X417730D02*
D03*
X350000Y369000D02*
D03*
X364000D02*
D03*
X357000D02*
D03*
X497917Y207000D02*
D03*
X491000D02*
D03*
X485479Y384340D02*
D03*
X485757Y371742D02*
D03*
X475479Y395653D02*
D03*
Y370253D02*
D03*
X464000Y274000D02*
D03*
Y301000D02*
D03*
X460009Y290000D02*
D03*
X460009Y280000D02*
D03*
X406250Y246000D02*
D03*
X385135Y244250D02*
D03*
X300594Y274594D02*
D03*
X314000Y247000D02*
D03*
Y255000D02*
D03*
X306000D02*
D03*
Y247000D02*
D03*
X310500Y320000D02*
D03*
X363500Y263000D02*
D03*
X357000D02*
D03*
X350500D02*
D03*
X344000D02*
D03*
X287000Y295000D02*
D03*
X253000Y423000D02*
D03*
X267000D02*
D03*
X260000D02*
D03*
X207250Y229750D02*
D03*
X307500Y215000D02*
D03*
X271182Y238818D02*
D03*
X317500Y215000D02*
D03*
X481000Y338000D02*
D03*
M02*
