G04*
G04 #@! TF.GenerationSoftware,Altium Limited,Altium Designer,25.6.2 (33)*
G04*
G04 Layer_Color=128*
%FSLAX44Y44*%
%MOMM*%
G71*
G04*
G04 #@! TF.SameCoordinates,86BBD976-67B5-41F1-AD37-A89888A357BC*
G04*
G04*
G04 #@! TF.FilePolarity,Positive*
G04*
G01*
G75*
%ADD22R,1.5000X2.0000*%
%ADD23R,1.0000X0.9000*%
%ADD24R,0.9000X0.8000*%
%ADD27R,1.4000X1.3000*%
%ADD28R,0.9000X1.0000*%
%ADD32R,0.8000X0.9000*%
%ADD82R,1.8000X1.4000*%
%ADD83R,0.6000X1.5500*%
%ADD84R,0.6000X1.2000*%
%ADD85R,1.4750X0.4500*%
%ADD86R,2.7500X6.2000*%
%ADD87R,1.3000X0.7000*%
%ADD88R,0.6000X1.0000*%
%ADD89R,1.2000X1.4000*%
%ADD90R,1.8000X2.1000*%
%ADD91R,0.8800X0.9600*%
%ADD92R,1.8000X2.0000*%
%ADD93R,0.9400X0.6700*%
%ADD94R,1.3000X1.4000*%
%ADD95R,1.2000X1.8000*%
D22*
X431400Y452497D02*
D03*
X406000D02*
D03*
X304400D02*
D03*
X329800D02*
D03*
X253600D02*
D03*
X279000D02*
D03*
X380600D02*
D03*
X355200D02*
D03*
D23*
X224929Y366988D02*
D03*
Y353489D02*
D03*
X237429Y318488D02*
D03*
Y331988D02*
D03*
D24*
X485759Y293520D02*
D03*
Y281480D02*
D03*
X432000Y225250D02*
D03*
Y237750D02*
D03*
Y250250D02*
D03*
X468760Y281480D02*
D03*
Y293520D02*
D03*
X415000Y250250D02*
D03*
Y237750D02*
D03*
Y225250D02*
D03*
D27*
X362500Y358000D02*
D03*
X402500D02*
D03*
X244929Y247239D02*
D03*
X225180D02*
D03*
X244929Y263239D02*
D03*
X225180D02*
D03*
X362500Y342000D02*
D03*
X402500D02*
D03*
D28*
X429250Y211250D02*
D03*
Y182750D02*
D03*
X322250Y277500D02*
D03*
X302000Y152500D02*
D03*
X415750Y211250D02*
D03*
X315499Y152500D02*
D03*
X415750Y182750D02*
D03*
Y197500D02*
D03*
X429250D02*
D03*
X308750Y277500D02*
D03*
D32*
X487230Y216900D02*
D03*
X502770Y216900D02*
D03*
X450500Y184250D02*
D03*
X320000Y308500D02*
D03*
X197429Y352738D02*
D03*
X202429Y279239D02*
D03*
Y246739D02*
D03*
X307500Y308500D02*
D03*
X202429Y263739D02*
D03*
X227429Y279239D02*
D03*
X209929Y369739D02*
D03*
Y352739D02*
D03*
X227429Y296239D02*
D03*
X214929Y296238D02*
D03*
Y279239D02*
D03*
X197429Y369739D02*
D03*
X202429Y296238D02*
D03*
X307500Y291500D02*
D03*
X320000D02*
D03*
X450500Y154250D02*
D03*
Y171250D02*
D03*
Y201250D02*
D03*
X502770Y199900D02*
D03*
X487230Y199900D02*
D03*
D82*
X422500Y363000D02*
D03*
X382500D02*
D03*
X422500Y337000D02*
D03*
X382500D02*
D03*
D83*
X377500Y391104D02*
D03*
X367500D02*
D03*
X347500D02*
D03*
X317500D02*
D03*
X357500D02*
D03*
X307500D02*
D03*
X337500D02*
D03*
X327500D02*
D03*
D84*
X402500Y295000D02*
D03*
X362500D02*
D03*
X412000Y320000D02*
D03*
X353000Y295000D02*
D03*
X372000D02*
D03*
X353000Y320000D02*
D03*
X372000D02*
D03*
X412000Y295000D02*
D03*
X393000D02*
D03*
Y320000D02*
D03*
D85*
X396260Y207500D02*
D03*
Y188000D02*
D03*
X337500Y175000D02*
D03*
Y168500D02*
D03*
X396260Y214000D02*
D03*
Y201000D02*
D03*
Y181500D02*
D03*
Y155500D02*
D03*
Y162000D02*
D03*
Y175000D02*
D03*
Y220500D02*
D03*
Y227000D02*
D03*
Y233500D02*
D03*
Y240000D02*
D03*
X337500D02*
D03*
Y233500D02*
D03*
Y227000D02*
D03*
Y194500D02*
D03*
Y162000D02*
D03*
Y155500D02*
D03*
Y201000D02*
D03*
Y214000D02*
D03*
Y207500D02*
D03*
X396260Y194500D02*
D03*
X337500Y220500D02*
D03*
X396260Y168500D02*
D03*
X337500Y188000D02*
D03*
Y181500D02*
D03*
D86*
X366880Y197750D02*
D03*
D87*
X242429Y369739D02*
D03*
Y350738D02*
D03*
D88*
X202929Y338989D02*
D03*
X221929Y311489D02*
D03*
X212429D02*
D03*
X221929Y338989D02*
D03*
X212429D02*
D03*
X202929Y311489D02*
D03*
D89*
X316999Y173001D02*
D03*
X299999Y195001D02*
D03*
X316999D02*
D03*
X299999Y173001D02*
D03*
D90*
X310429Y350240D02*
D03*
X264429D02*
D03*
D91*
X259929Y255239D02*
D03*
X292131D02*
D03*
X418851Y272500D02*
D03*
X386649D02*
D03*
D92*
X274929Y277739D02*
D03*
Y322738D02*
D03*
D93*
X239929Y282839D02*
D03*
Y297639D02*
D03*
D94*
X417500Y165250D02*
D03*
X433500D02*
D03*
X417500Y147750D02*
D03*
X433500D02*
D03*
D95*
X294500Y429854D02*
D03*
X390500D02*
D03*
M02*
