G04*
G04 #@! TF.GenerationSoftware,Altium Limited,Altium Designer,25.6.2 (33)*
G04*
G04 Layer_Physical_Order=1*
G04 Layer_Color=255*
%FSLAX44Y44*%
%MOMM*%
G71*
G04*
G04 #@! TF.SameCoordinates,86BBD976-67B5-41F1-AD37-A89888A357BC*
G04*
G04*
G04 #@! TF.FilePolarity,Positive*
G04*
G01*
G75*
%ADD10C,0.1000*%
%ADD15C,0.1500*%
%ADD19R,2.4000X0.7600*%
%ADD20R,0.6000X0.3000*%
%ADD21R,0.3000X0.6000*%
%ADD22R,1.5000X2.0000*%
%ADD23R,1.0000X0.9000*%
%ADD24R,0.9000X0.8000*%
G04:AMPARAMS|DCode=25|XSize=0.38mm|YSize=0.35mm|CornerRadius=0.0158mm|HoleSize=0mm|Usage=FLASHONLY|Rotation=270.000|XOffset=0mm|YOffset=0mm|HoleType=Round|Shape=RoundedRectangle|*
%AMROUNDEDRECTD25*
21,1,0.3800,0.3185,0,0,270.0*
21,1,0.3485,0.3500,0,0,270.0*
1,1,0.0315,-0.1593,-0.1743*
1,1,0.0315,-0.1593,0.1743*
1,1,0.0315,0.1593,0.1743*
1,1,0.0315,0.1593,-0.1743*
%
%ADD25ROUNDEDRECTD25*%
%ADD26R,1.2000X0.6000*%
%ADD27R,1.4000X1.3000*%
%ADD28R,0.9000X1.0000*%
%ADD29O,0.3000X2.1000*%
%ADD30O,2.1000X0.3000*%
%ADD31R,1.2000X1.4000*%
%ADD32R,0.8000X0.9000*%
%ADD33R,1.2000X0.6000*%
%ADD34R,1.5000X0.7000*%
G04:AMPARAMS|DCode=35|XSize=0.8mm|YSize=0.9mm|CornerRadius=0.2mm|HoleSize=0mm|Usage=FLASHONLY|Rotation=270.000|XOffset=0mm|YOffset=0mm|HoleType=Round|Shape=RoundedRectangle|*
%AMROUNDEDRECTD35*
21,1,0.8000,0.5000,0,0,270.0*
21,1,0.4000,0.9000,0,0,270.0*
1,1,0.4000,-0.2500,-0.2000*
1,1,0.4000,-0.2500,0.2000*
1,1,0.4000,0.2500,0.2000*
1,1,0.4000,0.2500,-0.2000*
%
%ADD35ROUNDEDRECTD35*%
%ADD36R,0.9000X0.8000*%
%ADD37R,0.8000X1.0000*%
%ADD62R,1.2400X0.6000*%
%ADD63R,1.2400X0.3000*%
%ADD64C,0.4500*%
%ADD65C,0.5000*%
%ADD66C,0.3000*%
%ADD67C,0.3500*%
%ADD68C,0.4000*%
%ADD69C,0.0900*%
%ADD70R,1.3000X0.8000*%
%ADD71O,2.1000X1.0000*%
%ADD72O,1.8000X1.0000*%
%ADD73C,4.5000*%
%ADD74C,0.5500*%
%ADD75C,0.4500*%
G36*
X294900Y464497D02*
Y444865D01*
X289839Y439804D01*
X270000D01*
X268927Y439590D01*
X268017Y438983D01*
X258017Y428983D01*
X257410Y428073D01*
X257196Y427000D01*
Y426207D01*
X256500Y425510D01*
X255407Y426603D01*
X253845Y427250D01*
X252155D01*
X250593Y426603D01*
X249397Y425407D01*
X248750Y423845D01*
Y422155D01*
X249397Y420593D01*
X249431Y420558D01*
Y419000D01*
X249703Y417634D01*
X250477Y416477D01*
X255234Y411719D01*
X256392Y410946D01*
X257757Y410674D01*
X269500D01*
Y406462D01*
X310475D01*
X322022Y394915D01*
Y362308D01*
X315805Y356091D01*
X315197Y355181D01*
X314379Y355454D01*
X313866Y355797D01*
X312500Y356068D01*
X311134Y355797D01*
X310693Y355502D01*
X309804Y355360D01*
X309196Y356269D01*
X306733Y358732D01*
X305823Y359340D01*
X304750Y359554D01*
X284550D01*
X278122Y365983D01*
X277212Y366590D01*
X277191Y366594D01*
X276823Y366840D01*
X275750Y367054D01*
X253683D01*
X253682Y367054D01*
X230361D01*
X229288Y366840D01*
X228378Y366232D01*
X226767Y364621D01*
X226159Y363712D01*
X225946Y362639D01*
Y340478D01*
X210447Y324979D01*
X209839Y324069D01*
X209625Y322996D01*
Y312618D01*
X209001Y311977D01*
X192001D01*
Y316977D01*
X198501D01*
Y330977D01*
X186784D01*
Y359672D01*
X187614Y360227D01*
X188498Y361550D01*
X188580Y361963D01*
X189480Y361875D01*
Y357699D01*
X194750D01*
Y364739D01*
Y371779D01*
X189480D01*
Y368347D01*
X188580Y368258D01*
X188498Y368671D01*
X187614Y369994D01*
X186291Y370878D01*
X184730Y371189D01*
X179730D01*
X178169Y370878D01*
X176846Y369994D01*
X175962Y368671D01*
X175651Y367110D01*
Y363111D01*
X175962Y361550D01*
X176846Y360227D01*
X178169Y359343D01*
X179730Y359032D01*
X181176D01*
Y325549D01*
X177331Y321704D01*
X176499Y322048D01*
Y330977D01*
X165000D01*
Y435487D01*
X165900Y435576D01*
X166441Y432854D01*
X168288Y428395D01*
X170970Y424382D01*
X174382Y420970D01*
X178395Y418288D01*
X182854Y416441D01*
X187587Y415500D01*
X192413D01*
X197146Y416441D01*
X201605Y418288D01*
X205618Y420970D01*
X209030Y424382D01*
X211712Y428395D01*
X213559Y432854D01*
X214500Y437587D01*
Y442413D01*
X213559Y447146D01*
X211712Y451605D01*
X209030Y455618D01*
X205618Y459030D01*
X201605Y461712D01*
X197146Y463558D01*
X194424Y464100D01*
X194512Y465000D01*
X294208D01*
X294900Y464497D01*
D02*
G37*
G36*
X444728Y410307D02*
X433226Y398804D01*
X409159D01*
X408086Y398590D01*
X407176Y397983D01*
X388997Y379804D01*
X384000D01*
X382927Y379590D01*
X382017Y378983D01*
X361204Y358169D01*
X360304Y358542D01*
Y361268D01*
X363786Y364750D01*
X364845D01*
X366407Y365397D01*
X367603Y366593D01*
X368250Y368155D01*
Y369845D01*
X367603Y371407D01*
X366407Y372603D01*
X364845Y373250D01*
X363155D01*
X361593Y372603D01*
X360500Y371510D01*
X359407Y372603D01*
X357845Y373250D01*
X356155D01*
X354593Y372603D01*
X353500Y371510D01*
X352407Y372603D01*
X350845Y373250D01*
X349155D01*
X347593Y372603D01*
X346397Y371407D01*
X345750Y369845D01*
Y368836D01*
X345518Y368604D01*
X344910Y367694D01*
X344696Y366621D01*
Y356857D01*
X343796Y356484D01*
X338130Y362151D01*
Y395876D01*
X348716Y406462D01*
X404730D01*
Y419002D01*
X406000D01*
Y420272D01*
X416040D01*
Y429196D01*
X425839D01*
X444728Y410307D01*
D02*
G37*
G36*
X490576Y464100D02*
X487854Y463559D01*
X483395Y461712D01*
X479382Y459030D01*
X475970Y455618D01*
X473288Y451605D01*
X471441Y447146D01*
X470500Y442413D01*
Y437587D01*
X471441Y432854D01*
X473288Y428395D01*
X475970Y424382D01*
X479382Y420970D01*
X483395Y418288D01*
X487854Y416441D01*
X492587Y415500D01*
X497413D01*
X502146Y416441D01*
X506605Y418288D01*
X510618Y420970D01*
X514030Y424382D01*
X516712Y428395D01*
X518559Y432854D01*
X519100Y435576D01*
X520000Y435487D01*
Y139513D01*
X519100Y139424D01*
X518559Y142146D01*
X516712Y146605D01*
X514030Y150618D01*
X510618Y154030D01*
X506605Y156712D01*
X502146Y158559D01*
X497413Y159500D01*
X492587D01*
X487854Y158559D01*
X483395Y156712D01*
X479382Y154030D01*
X475970Y150618D01*
X473288Y146605D01*
X471441Y142146D01*
X470500Y137413D01*
Y132587D01*
X471441Y127854D01*
X473288Y123395D01*
X475970Y119382D01*
X479382Y115970D01*
X483395Y113288D01*
X487854Y111441D01*
X490576Y110900D01*
X490487Y110000D01*
X416194D01*
X415500Y110498D01*
Y112498D01*
Y136176D01*
X428000D01*
Y132980D01*
X441000D01*
Y144980D01*
X441000D01*
Y145020D01*
X441000D01*
Y157020D01*
X428000D01*
Y153824D01*
X415500D01*
Y168538D01*
X399925D01*
X391454Y177010D01*
Y197710D01*
X394630D01*
Y205250D01*
X397170D01*
Y197710D01*
X402940D01*
Y198250D01*
X415900D01*
Y212250D01*
X410454D01*
Y213822D01*
X410798Y214052D01*
X411275Y214766D01*
X411442Y215607D01*
Y218558D01*
X411892D01*
X412734Y218725D01*
X413439Y219196D01*
X420500D01*
Y211750D01*
X434500D01*
Y224710D01*
X435040D01*
Y230480D01*
X427500D01*
X419960D01*
Y224804D01*
X414811D01*
X414082Y225704D01*
X414092Y225757D01*
Y227477D01*
X414133Y227517D01*
X414741Y228427D01*
X414954Y229500D01*
Y241000D01*
X414741Y242073D01*
X414133Y242983D01*
X411920Y245196D01*
X411588Y245417D01*
X410500Y246505D01*
Y246845D01*
X409853Y248407D01*
X408658Y249603D01*
X407096Y250250D01*
X405405D01*
X404803Y250000D01*
X404054Y250500D01*
Y253999D01*
X415730D01*
Y265999D01*
X415730D01*
X415730Y266499D01*
X415730D01*
Y276566D01*
X416630Y276839D01*
X417206Y275975D01*
X419730Y273452D01*
Y266539D01*
X419190D01*
Y261269D01*
X426230D01*
X433270D01*
Y263466D01*
X434101Y263811D01*
X436936Y260976D01*
X438093Y260203D01*
X439459Y259931D01*
X441419D01*
Y256771D01*
X450159D01*
Y254231D01*
X441419D01*
Y249961D01*
X445362D01*
X445689Y249061D01*
X444745Y247830D01*
X444039Y246127D01*
X443799Y244300D01*
X444039Y242472D01*
X444745Y240770D01*
X445867Y239307D01*
X447329Y238185D01*
X449032Y237480D01*
X450859Y237239D01*
X461859D01*
X463686Y237480D01*
X465389Y238185D01*
X466852Y239307D01*
X467974Y240770D01*
X468679Y242472D01*
X468919Y244300D01*
X468679Y246127D01*
X467974Y247830D01*
X466852Y249292D01*
X465389Y250414D01*
X463686Y251119D01*
X461859Y251360D01*
X458899D01*
Y252677D01*
X459799Y253329D01*
X461358Y253019D01*
X463456Y253436D01*
X465234Y254624D01*
X466423Y256403D01*
X466840Y258501D01*
X466423Y260599D01*
X465234Y262377D01*
X463507Y263531D01*
X463497Y263598D01*
X463933Y264431D01*
X465851D01*
X466309Y263973D01*
X468055Y263250D01*
X469945D01*
X471691Y263973D01*
X473027Y265309D01*
X473750Y267055D01*
Y268380D01*
X475523Y270153D01*
X476297Y271311D01*
X476569Y272677D01*
Y302323D01*
X476297Y303689D01*
X475523Y304847D01*
X473750Y306620D01*
Y307945D01*
X473027Y309691D01*
X471691Y311027D01*
X469945Y311750D01*
X468813D01*
X468516Y312047D01*
X467358Y312820D01*
X466614Y312968D01*
X466200Y313968D01*
X466423Y314302D01*
X466840Y316400D01*
X466423Y318498D01*
X465234Y320277D01*
X463456Y321465D01*
X461358Y321883D01*
X459799Y321572D01*
X458899Y322224D01*
Y323640D01*
X461859D01*
X463686Y323881D01*
X465389Y324586D01*
X466852Y325708D01*
X467974Y327170D01*
X468679Y328873D01*
X468919Y330700D01*
X468679Y332528D01*
X467974Y334230D01*
X466852Y335693D01*
X465389Y336815D01*
X463686Y337520D01*
X461859Y337761D01*
X452100D01*
X451755Y338560D01*
X452267Y339196D01*
X470565D01*
X471638Y339410D01*
X472548Y340017D01*
X479933Y347403D01*
X481938D01*
X482282Y346571D01*
X479400Y343689D01*
X478792Y342779D01*
X478579Y341706D01*
Y341589D01*
X477397Y340407D01*
X476750Y338845D01*
Y337155D01*
X477397Y335593D01*
X478593Y334397D01*
X480155Y333750D01*
X481845D01*
X483407Y334397D01*
X484603Y335593D01*
X485250Y337155D01*
Y338845D01*
X484603Y340407D01*
X484326Y340684D01*
X489044Y345403D01*
X513079D01*
Y358103D01*
Y369703D01*
Y382403D01*
Y395103D01*
Y407803D01*
X482750D01*
X482483Y408203D01*
X476650Y414035D01*
X475741Y414643D01*
X474668Y414857D01*
X448109D01*
X428983Y433983D01*
X428073Y434590D01*
X427000Y434804D01*
X379330D01*
Y439957D01*
D01*
Y452497D01*
X380600D01*
Y453767D01*
X390640D01*
Y465000D01*
X490487D01*
X490576Y464100D01*
D02*
G37*
G36*
X439250Y395722D02*
Y395055D01*
X439973Y393309D01*
X441309Y391973D01*
X443055Y391250D01*
X444945D01*
X445539Y390853D01*
Y390573D01*
X460079D01*
Y388033D01*
X445539D01*
Y382963D01*
X445539D01*
Y382943D01*
X445539D01*
Y377873D01*
X460079D01*
Y375333D01*
X445539D01*
Y370263D01*
X445539D01*
Y370243D01*
X445539D01*
Y365173D01*
X460079D01*
Y362633D01*
X445539D01*
Y357563D01*
X445539D01*
Y357543D01*
X445539D01*
Y352473D01*
X460079D01*
Y349933D01*
X445539D01*
Y344863D01*
X448715D01*
X448995Y344048D01*
X448997Y343963D01*
X437371Y332337D01*
X436540Y332681D01*
Y336980D01*
X430270D01*
Y331210D01*
X435069D01*
X435414Y330379D01*
X422839Y317804D01*
X394792D01*
X394419Y318704D01*
X401983Y326267D01*
X402590Y327177D01*
X402804Y328250D01*
Y328500D01*
X407500D01*
Y331210D01*
X413730D01*
Y338250D01*
X416270D01*
Y331210D01*
X427730D01*
Y338250D01*
X429000D01*
Y339520D01*
X436540D01*
Y345290D01*
X436000D01*
Y358250D01*
X436000D01*
X435640Y358789D01*
X435750Y359055D01*
Y360945D01*
X435027Y362691D01*
X434524Y363194D01*
X434230Y364000D01*
X434230D01*
X434230Y364000D01*
Y373460D01*
X434770D01*
Y376230D01*
X429230D01*
Y378770D01*
X434770D01*
Y381230D01*
X429230D01*
Y382500D01*
X427960D01*
Y386540D01*
X426920D01*
X426695Y387222D01*
X426680Y387440D01*
X427832Y388593D01*
X428480Y390155D01*
Y391845D01*
X428230Y392448D01*
X428730Y393196D01*
X434387D01*
X435460Y393410D01*
X436370Y394017D01*
X438419Y396066D01*
X439250Y395722D01*
D02*
G37*
G36*
X316021Y331279D02*
X316383Y330368D01*
X310264Y324250D01*
X309655D01*
X308093Y323603D01*
X306897Y322407D01*
X306250Y320845D01*
Y319155D01*
X306897Y317593D01*
X308093Y316397D01*
X309655Y315750D01*
X311346D01*
X311948Y316000D01*
X312696Y315499D01*
Y314750D01*
X312910Y313677D01*
X313518Y312767D01*
X318267Y308017D01*
X319177Y307410D01*
X320250Y307196D01*
X326872D01*
X327946Y307410D01*
X328855Y308017D01*
X344784Y323946D01*
X365711D01*
X366784Y324160D01*
X367576Y324689D01*
X368034Y324607D01*
X368559Y324360D01*
X368703Y323634D01*
X369461Y322500D01*
X368703Y321365D01*
X368432Y320000D01*
X368703Y318634D01*
X369461Y317500D01*
X368703Y316366D01*
X368432Y315000D01*
X368703Y313634D01*
X369461Y312500D01*
X368703Y311366D01*
X368432Y310000D01*
X368703Y308634D01*
X369461Y307500D01*
X368703Y306366D01*
X368432Y305000D01*
X368703Y303634D01*
X368920Y303310D01*
X368496Y302517D01*
X361824D01*
X360751Y302303D01*
X359842Y301695D01*
X333755Y275609D01*
X333147Y274699D01*
X332934Y273626D01*
Y273506D01*
X332116Y272688D01*
X331866Y272086D01*
X330984Y271910D01*
X305304Y297590D01*
Y330803D01*
X305994Y331172D01*
X306204Y331189D01*
X307500Y330931D01*
X308866Y331203D01*
X310000Y331961D01*
X311134Y331203D01*
X312500Y330931D01*
X313866Y331203D01*
X315000Y331961D01*
X316021Y331279D01*
D02*
G37*
G36*
X281406Y354767D02*
X282316Y354160D01*
X283305Y353963D01*
X283411Y353915D01*
X284041Y353046D01*
X283932Y352500D01*
Y334500D01*
X284203Y333134D01*
X284446Y332771D01*
Y331084D01*
X284309Y331027D01*
X282973Y329691D01*
X282250Y327945D01*
Y327804D01*
X280104D01*
X279366Y328297D01*
X278000Y328569D01*
X264559D01*
X264186Y329469D01*
X265027Y330309D01*
X265750Y332055D01*
Y333945D01*
X265142Y335413D01*
Y336750D01*
X277000D01*
Y349710D01*
X277540D01*
Y357458D01*
X278372Y357802D01*
X281406Y354767D01*
D02*
G37*
G36*
X293770Y330633D02*
X293797Y330639D01*
X294697Y330109D01*
Y296479D01*
X294910Y295406D01*
X295518Y294496D01*
X324933Y265081D01*
X324588Y264250D01*
X324155D01*
X322593Y263603D01*
X321397Y262407D01*
X320750Y260845D01*
Y259155D01*
X321397Y257593D01*
X322593Y256397D01*
X324155Y255750D01*
X325285D01*
X334696Y246338D01*
Y244197D01*
X334006Y243828D01*
X333796Y243811D01*
X332500Y244069D01*
X331134Y243797D01*
X330000Y243039D01*
X328866Y243797D01*
X327500Y244069D01*
X326135Y243797D01*
X325000Y243039D01*
X323866Y243797D01*
X322500Y244069D01*
X321134Y243797D01*
X320000Y243039D01*
X318866Y243797D01*
X318211Y243927D01*
X318081Y244069D01*
X317746Y244937D01*
X318250Y246155D01*
Y247845D01*
X317603Y249407D01*
X316535Y250476D01*
X316462Y251000D01*
X316535Y251524D01*
X317603Y252593D01*
X318250Y254155D01*
Y255845D01*
X317603Y257407D01*
X316804Y258207D01*
Y268259D01*
X316590Y269332D01*
X315983Y270242D01*
X291250Y294974D01*
Y295845D01*
X290603Y297407D01*
X289407Y298603D01*
X287845Y299250D01*
X286155D01*
X284593Y298603D01*
X283794Y297804D01*
X281697D01*
X281328Y298494D01*
X281311Y298704D01*
X281569Y300000D01*
X281297Y301366D01*
X280539Y302500D01*
X281297Y303634D01*
X281569Y305000D01*
X281297Y306366D01*
X280539Y307500D01*
X281297Y308634D01*
X281569Y310000D01*
X281297Y311366D01*
X280539Y312500D01*
X281297Y313634D01*
X281569Y315000D01*
X281297Y316366D01*
X280539Y317500D01*
X281297Y318634D01*
X281569Y320000D01*
X281311Y321296D01*
X281327Y321506D01*
X281696Y322196D01*
X283918D01*
X284991Y322410D01*
X285251Y322583D01*
X286055Y322250D01*
X287945D01*
X289691Y322973D01*
X291027Y324309D01*
X291750Y326055D01*
Y327945D01*
X291027Y329691D01*
X290945Y329772D01*
X291230Y330306D01*
Y343500D01*
X293770D01*
Y330633D01*
D02*
G37*
G36*
X443931Y329693D02*
X444039Y328873D01*
X444745Y327170D01*
X445689Y325939D01*
X445362Y325039D01*
X441419D01*
Y320769D01*
X450159D01*
Y318229D01*
X441419D01*
Y313959D01*
X441959D01*
Y301249D01*
X441124Y300743D01*
X441059Y300744D01*
X440178Y300920D01*
Y301027D01*
X439988Y301982D01*
X439446Y302793D01*
X437230Y305009D01*
Y311476D01*
X424995D01*
X424907Y312376D01*
X425073Y312410D01*
X425983Y313018D01*
X442981Y330016D01*
X443931Y329693D01*
D02*
G37*
G36*
X421230Y311476D02*
Y301477D01*
Y297435D01*
X420414Y297273D01*
X419257Y296500D01*
X417206Y294449D01*
X416433Y293292D01*
X416161Y291926D01*
Y279220D01*
X415729Y278499D01*
X406283D01*
X403137Y281645D01*
X403481Y282476D01*
X414230D01*
Y291437D01*
X414770D01*
Y295706D01*
X406230D01*
Y298246D01*
X414770D01*
Y302516D01*
X414230D01*
Y311476D01*
X414665Y312196D01*
X420794D01*
X421230Y311476D01*
D02*
G37*
G36*
X311196Y267098D02*
Y258207D01*
X310524Y257535D01*
X310000Y257462D01*
X309476Y257535D01*
X308407Y258603D01*
X306845Y259250D01*
X305155D01*
X303593Y258603D01*
X302794Y257804D01*
X300990D01*
X299917Y257590D01*
X299007Y256983D01*
X289385Y247361D01*
X288554Y247705D01*
Y253210D01*
X288340Y254283D01*
X287733Y255193D01*
X285335Y257591D01*
X285233Y257743D01*
X281743Y261233D01*
X281097Y261664D01*
X280539Y262500D01*
X281297Y263635D01*
X281569Y265000D01*
X281297Y266366D01*
X280845Y267042D01*
X280913Y267087D01*
X281806Y268424D01*
X281867Y268730D01*
X269000D01*
Y271270D01*
X282024D01*
X282527Y271993D01*
X297185D01*
X298187Y270991D01*
X299749Y270344D01*
X301439D01*
X303001Y270991D01*
X304197Y272187D01*
X304447Y272789D01*
X305329Y272965D01*
X311196Y267098D01*
D02*
G37*
G36*
X218960Y284819D02*
Y281768D01*
X227500D01*
Y280499D01*
X228770D01*
Y270958D01*
X232997D01*
X233447Y270058D01*
X233215Y269750D01*
X223603D01*
Y256790D01*
X223063D01*
Y251020D01*
X230603D01*
Y249750D01*
X231873D01*
Y242710D01*
X238143D01*
Y242710D01*
X238241D01*
Y242710D01*
X244511D01*
Y249750D01*
X245781D01*
Y251020D01*
X253321D01*
Y256790D01*
X252781D01*
Y260446D01*
X253937D01*
X255010Y260659D01*
X255742Y261149D01*
X256290Y260898D01*
X256557Y260632D01*
X256432Y260000D01*
X256703Y258634D01*
X257461Y257500D01*
X256703Y256366D01*
X256432Y255000D01*
X256703Y253635D01*
X257461Y252500D01*
X256703Y251366D01*
X256432Y250000D01*
X256703Y248634D01*
X257477Y247477D01*
X258634Y246703D01*
X260000Y246431D01*
X266196D01*
Y241541D01*
X266410Y240468D01*
X266938Y239678D01*
X266932Y239663D01*
Y237973D01*
X267579Y236411D01*
X268775Y235215D01*
X270337Y234568D01*
X272027D01*
X273589Y235215D01*
X274785Y236411D01*
X275432Y237973D01*
Y239663D01*
X274785Y241225D01*
X273589Y242421D01*
X272027Y243068D01*
X271804D01*
Y246431D01*
X277234D01*
X277487Y246082D01*
X277660Y245531D01*
X277160Y244783D01*
X276947Y243710D01*
Y195607D01*
X277160Y194534D01*
X277768Y193624D01*
X294999Y176393D01*
X295909Y175786D01*
X296982Y175572D01*
X301688D01*
X301867Y174672D01*
X300309Y174027D01*
X298973Y172691D01*
X298250Y170945D01*
Y169055D01*
X297490Y168538D01*
X280270D01*
Y155998D01*
Y143458D01*
X280273D01*
Y135038D01*
X280270D01*
Y122498D01*
X279000D01*
Y121228D01*
X268960D01*
Y110000D01*
X194513D01*
X194424Y110900D01*
X197146Y111441D01*
X201605Y113288D01*
X205618Y115970D01*
X209030Y119382D01*
X211712Y123395D01*
X213559Y127854D01*
X214500Y132587D01*
Y137413D01*
X213559Y142146D01*
X211712Y146605D01*
X209030Y150618D01*
X205618Y154030D01*
X201605Y156712D01*
X197146Y158559D01*
X192413Y159500D01*
X187587D01*
X182854Y158559D01*
X178395Y156712D01*
X174382Y154030D01*
X170970Y150618D01*
X168288Y146605D01*
X166441Y142146D01*
X165900Y139424D01*
X165000Y139513D01*
Y184224D01*
X165276Y184455D01*
X165900Y184790D01*
X166500Y184671D01*
X179500D01*
X180281Y184826D01*
X180942Y185268D01*
X181384Y185930D01*
X181539Y186710D01*
Y193210D01*
X181384Y193990D01*
X180942Y194652D01*
X180281Y195094D01*
X179500Y195249D01*
X175039D01*
X175039Y197210D01*
X174884Y197990D01*
X174884Y197990D01*
X174884Y197990D01*
X174662Y198323D01*
X174442Y198652D01*
X174442Y198652D01*
X174442Y198652D01*
X174113Y198872D01*
X173780Y199094D01*
X173780Y199094D01*
X173780Y199094D01*
X173000Y199249D01*
X166500D01*
X165900Y199130D01*
X165276Y199465D01*
X165000Y199695D01*
Y226722D01*
X165276Y226953D01*
X165900Y227288D01*
X166500Y227169D01*
X173000Y227169D01*
X173781Y227324D01*
X174442Y227766D01*
X174442Y227766D01*
X174884Y228428D01*
X175039Y229208D01*
Y231169D01*
X179500D01*
X180281Y231324D01*
X180942Y231766D01*
X181384Y232428D01*
X181539Y233208D01*
Y239708D01*
X181384Y240488D01*
X180942Y241150D01*
X180281Y241592D01*
X179500Y241747D01*
X166500D01*
X165900Y241628D01*
X165276Y241963D01*
X165000Y242193D01*
Y261976D01*
X176499D01*
Y274791D01*
X186501D01*
Y261976D01*
X198501D01*
Y275976D01*
X199314Y276185D01*
X207989D01*
X209062Y276398D01*
X209972Y277006D01*
X218129Y285163D01*
X218960Y284819D01*
D02*
G37*
G36*
X179500Y233208D02*
X173000D01*
Y229208D01*
X166500Y229208D01*
Y239708D01*
X179500D01*
Y233208D01*
D02*
G37*
G36*
X326135Y219203D02*
X327500Y218932D01*
X328866Y219203D01*
X330000Y219961D01*
X331134Y219203D01*
X332238Y218984D01*
X332638Y218324D01*
X332699Y218053D01*
X332410Y217620D01*
X332196Y216547D01*
Y216250D01*
X328000D01*
Y203290D01*
X327460D01*
Y197520D01*
X335000D01*
Y196250D01*
X336270D01*
Y189210D01*
X341446D01*
Y181103D01*
X341660Y180030D01*
X342267Y179120D01*
X344120Y177267D01*
X344120Y177267D01*
X349370Y172017D01*
X350280Y171410D01*
X351353Y171196D01*
X358839D01*
X360665Y169370D01*
X360321Y168538D01*
X349427D01*
X347234Y170731D01*
X346325Y171339D01*
X345252Y171552D01*
X326889D01*
X313707Y184734D01*
X312798Y185341D01*
X311724Y185555D01*
X298718D01*
X295893Y188379D01*
X296230Y189191D01*
Y196250D01*
X297500D01*
Y197521D01*
X305040D01*
Y198111D01*
X305940Y198712D01*
X307055Y198250D01*
X308945D01*
X310691Y198973D01*
X312027Y200309D01*
X312750Y202055D01*
Y203945D01*
X312027Y205691D01*
X310691Y207027D01*
X309223Y207635D01*
X307008Y209850D01*
X307380Y210750D01*
X308345D01*
X309907Y211397D01*
X311103Y212593D01*
X311750Y214155D01*
Y215845D01*
X311103Y217407D01*
X310163Y218347D01*
X310164Y219254D01*
X310237Y219440D01*
X310523Y219612D01*
X311134Y219203D01*
X312500Y218932D01*
X313559Y219142D01*
X314415Y218603D01*
X314479Y217990D01*
X313897Y217407D01*
X313250Y215845D01*
Y214155D01*
X313897Y212593D01*
X315093Y211397D01*
X316655Y210750D01*
X318345D01*
X319907Y211397D01*
X321103Y212593D01*
X321750Y214155D01*
Y215845D01*
X321103Y217407D01*
X320521Y217989D01*
X320585Y218603D01*
X321441Y219142D01*
X322500Y218932D01*
X323866Y219203D01*
X325000Y219961D01*
X326135Y219203D01*
D02*
G37*
G36*
X173000Y193210D02*
X179500D01*
Y186710D01*
X166500D01*
Y197210D01*
X173000D01*
X173000Y193210D01*
D02*
G37*
G36*
X376270Y189210D02*
X382196D01*
Y168538D01*
X373154D01*
Y168600D01*
X372940Y169673D01*
X372333Y170582D01*
X362932Y179983D01*
X362023Y180590D01*
X360950Y180804D01*
X353912D01*
X352587Y182129D01*
X352932Y182960D01*
X356230D01*
Y192000D01*
X358770D01*
Y182960D01*
X367040D01*
Y188484D01*
X367460Y189210D01*
X373730D01*
Y196250D01*
X376270D01*
Y189210D01*
D02*
G37*
%LPC*%
G36*
X202020Y388238D02*
X190020D01*
Y384414D01*
X188730D01*
Y387610D01*
X175730D01*
Y375610D01*
X188730D01*
Y378806D01*
X190020D01*
Y375238D01*
X202020D01*
Y388238D01*
D02*
G37*
G36*
X202560Y371779D02*
X197290D01*
Y366009D01*
X202560D01*
Y371779D01*
D02*
G37*
G36*
Y363469D02*
X197290D01*
Y357699D01*
X202560D01*
Y363469D01*
D02*
G37*
G36*
X416040Y417732D02*
X407270D01*
Y406462D01*
X416040D01*
Y417732D01*
D02*
G37*
G36*
X390640Y451227D02*
X381870D01*
Y439957D01*
X390640D01*
Y451227D01*
D02*
G37*
G36*
X502160Y337761D02*
X494160D01*
X492332Y337520D01*
X490630Y336815D01*
X489167Y335693D01*
X488045Y334230D01*
X487340Y332528D01*
X487099Y330700D01*
X487340Y328873D01*
X488045Y327170D01*
X489167Y325708D01*
X490630Y324586D01*
X492332Y323881D01*
X494160Y323640D01*
X502160D01*
X503987Y323881D01*
X505690Y324586D01*
X507152Y325708D01*
X508274Y327170D01*
X508980Y328873D01*
X509220Y330700D01*
X508980Y332528D01*
X508274Y334230D01*
X507152Y335693D01*
X505690Y336815D01*
X503987Y337520D01*
X502160Y337761D01*
D02*
G37*
G36*
X433270Y258729D02*
X427500D01*
Y253459D01*
X433270D01*
Y258729D01*
D02*
G37*
G36*
X424960D02*
X419190D01*
Y253459D01*
X424960D01*
Y258729D01*
D02*
G37*
G36*
X502160Y251360D02*
X494160D01*
X492332Y251119D01*
X490630Y250414D01*
X489167Y249292D01*
X488045Y247830D01*
X487340Y246127D01*
X487099Y244300D01*
X487340Y242472D01*
X488045Y240770D01*
X489167Y239307D01*
X490630Y238185D01*
X492332Y237480D01*
X494160Y237239D01*
X502160D01*
X503987Y237480D01*
X505690Y238185D01*
X507152Y239307D01*
X508274Y240770D01*
X508980Y242472D01*
X509220Y244300D01*
X508980Y246127D01*
X508274Y247830D01*
X507152Y249292D01*
X505690Y250414D01*
X503987Y251119D01*
X502160Y251360D01*
D02*
G37*
G36*
X435040Y238790D02*
X428770D01*
Y233020D01*
X435040D01*
Y238790D01*
D02*
G37*
G36*
X426230D02*
X419960D01*
Y233020D01*
X426230D01*
Y238790D01*
D02*
G37*
G36*
X503715Y231750D02*
X501825D01*
X500079Y231027D01*
X498743Y229691D01*
X498020Y227945D01*
Y226055D01*
X498692Y224434D01*
Y222286D01*
X497386Y221414D01*
X496502Y220091D01*
X496192Y218530D01*
Y214530D01*
X496502Y212969D01*
X497054Y212143D01*
X497057Y211985D01*
X496708Y211099D01*
X495510Y210603D01*
X494459Y209552D01*
X493407Y210603D01*
X492877Y210823D01*
X492749Y211850D01*
X493498Y212969D01*
X493808Y214530D01*
Y218530D01*
X493498Y220091D01*
X492614Y221414D01*
X491308Y222286D01*
Y224434D01*
X491980Y226055D01*
Y227945D01*
X491257Y229691D01*
X489921Y231027D01*
X488175Y231750D01*
X486285D01*
X484539Y231027D01*
X483203Y229691D01*
X482480Y227945D01*
Y226055D01*
X483152Y224434D01*
Y222286D01*
X481846Y221414D01*
X480962Y220091D01*
X480652Y218530D01*
Y214530D01*
X480962Y212969D01*
X481846Y211646D01*
X483169Y210762D01*
X484730Y210452D01*
X487266D01*
X487610Y209620D01*
X487397Y209407D01*
X486750Y207845D01*
Y206270D01*
X486702Y206030D01*
X480730D01*
Y194030D01*
X493730D01*
Y202185D01*
X493798Y202530D01*
Y203788D01*
X494459Y204448D01*
X495510Y203397D01*
X496202Y203110D01*
Y202530D01*
X496270Y202185D01*
Y194030D01*
X509270D01*
Y206030D01*
X503082D01*
X503067Y206107D01*
X502294Y207264D01*
X502167Y207391D01*
Y207845D01*
X501520Y209407D01*
X501307Y209620D01*
X501652Y210452D01*
X505270D01*
X506831Y210762D01*
X508154Y211646D01*
X509038Y212969D01*
X509348Y214530D01*
Y218530D01*
X509038Y220091D01*
X508154Y221414D01*
X506848Y222286D01*
Y224434D01*
X507520Y226055D01*
Y227945D01*
X506797Y229691D01*
X505461Y231027D01*
X503715Y231750D01*
D02*
G37*
G36*
X453945Y167750D02*
X452055D01*
X450309Y167027D01*
X448973Y165691D01*
X448250Y163945D01*
Y163430D01*
X447732Y162655D01*
X447422Y161094D01*
X447422Y161094D01*
Y157020D01*
X445000D01*
Y145880D01*
X445000Y145020D01*
X445000D01*
Y144980D01*
X445000D01*
Y132980D01*
X458000D01*
Y144120D01*
X458000Y144980D01*
X458000D01*
Y145020D01*
X458000D01*
Y157020D01*
X455578D01*
Y158927D01*
X455691Y158973D01*
X457027Y160309D01*
X457750Y162055D01*
Y163945D01*
X457027Y165691D01*
X455691Y167027D01*
X453945Y167750D01*
D02*
G37*
G36*
X434770Y386540D02*
X430500D01*
Y383770D01*
X434770D01*
Y386540D01*
D02*
G37*
G36*
X226230Y279228D02*
X218960D01*
Y270958D01*
X226230D01*
Y279228D01*
D02*
G37*
G36*
X253321Y248480D02*
X247051D01*
Y242710D01*
X253321D01*
Y248480D01*
D02*
G37*
G36*
X229333D02*
X223063D01*
Y242710D01*
X229333D01*
Y248480D01*
D02*
G37*
G36*
X200500Y235207D02*
X184500D01*
Y225974D01*
X183600Y225701D01*
X183557Y225765D01*
X181696Y227009D01*
X179500Y227446D01*
X177304Y227009D01*
X175443Y225765D01*
X174199Y223904D01*
X173763Y221708D01*
X174199Y219513D01*
X175443Y217651D01*
X177304Y216408D01*
X179500Y215971D01*
X181696Y216408D01*
X183557Y217651D01*
X184801Y219513D01*
X185237Y221708D01*
X184801Y223904D01*
X184531Y224307D01*
X185012Y225207D01*
X200500D01*
Y226946D01*
X204044D01*
X204843Y226147D01*
X206405Y225500D01*
X208095D01*
X209657Y226147D01*
X210853Y227343D01*
X211500Y228905D01*
Y230595D01*
X210853Y232157D01*
X209657Y233353D01*
X208095Y234000D01*
X206405D01*
X204843Y233353D01*
X204044Y232554D01*
X200500D01*
Y235207D01*
D02*
G37*
G36*
X201040Y201747D02*
X193770D01*
Y197477D01*
X201040D01*
Y201747D01*
D02*
G37*
G36*
X179500Y210445D02*
X177304Y210009D01*
X175443Y208765D01*
X174199Y206903D01*
X173763Y204708D01*
X174199Y202512D01*
X175443Y200651D01*
X177304Y199407D01*
X179500Y198971D01*
X181696Y199407D01*
X183060Y200319D01*
X183960Y199838D01*
Y197477D01*
X191230D01*
Y201747D01*
X185217D01*
X184827Y202647D01*
X185237Y204708D01*
X184801Y206903D01*
X183557Y208765D01*
X181696Y210009D01*
X179500Y210445D01*
D02*
G37*
G36*
X201040Y194937D02*
X193770D01*
Y190667D01*
X201040D01*
Y194937D01*
D02*
G37*
G36*
X191230D02*
X183960D01*
Y190667D01*
X191230D01*
Y194937D01*
D02*
G37*
G36*
X277730Y168538D02*
X268960D01*
Y157268D01*
X277730D01*
Y168538D01*
D02*
G37*
G36*
Y154728D02*
X268960D01*
Y143458D01*
X277730D01*
Y154728D01*
D02*
G37*
G36*
Y135038D02*
X268960D01*
Y123768D01*
X277730D01*
Y135038D01*
D02*
G37*
G36*
X305040Y194981D02*
X298770D01*
Y189210D01*
X305040D01*
Y194981D01*
D02*
G37*
G36*
X333730Y194980D02*
X327460D01*
Y189210D01*
X333730D01*
Y194980D01*
D02*
G37*
%LPD*%
D10*
X450159Y285001D02*
X450408Y285250D01*
X461977D01*
X464759Y288032D01*
Y291967D01*
X461977Y294750D02*
X464759Y291967D01*
X450410Y294750D02*
X461977D01*
X450159Y295001D02*
X450410Y294750D01*
D15*
X416000Y374230D02*
X417750Y372479D01*
X420230Y377500D02*
X429230D01*
X406230Y372500D02*
X412688D01*
X415188Y375000D01*
X417730Y366000D02*
Y372459D01*
X412688Y377500D02*
X415188Y375000D01*
X417730D02*
X419480D01*
X406230Y377500D02*
X412688D01*
X426980Y378250D02*
Y381750D01*
X416000Y374230D02*
Y375000D01*
X422730Y366000D02*
Y371750D01*
X417730Y375000D02*
X420230Y377500D01*
X416000Y375000D02*
X416812D01*
X417271Y375459D01*
X426980Y378250D02*
X427730Y377500D01*
X419480Y375000D02*
X422730Y371750D01*
X427730Y377500D02*
X429230D01*
X427730Y382500D02*
X429230D01*
X426980Y381750D02*
X427730Y382500D01*
X409159Y396000D02*
X434387D01*
X446940Y408553D01*
X390159Y377000D02*
X409159Y396000D01*
X446940Y408553D02*
X473218D01*
X474668Y412053D02*
X480500Y406221D01*
X427000Y432000D02*
X446947Y412053D01*
X474668D01*
X321000Y432000D02*
X427000D01*
X319550Y430550D02*
X321000Y432000D01*
X319550Y406302D02*
Y430550D01*
X473218Y408553D02*
X475479Y406292D01*
X401750Y381750D02*
X405480D01*
X406230Y382500D01*
X392000Y372000D02*
X401750Y381750D01*
X384411Y372000D02*
X392000D01*
X384000Y377000D02*
X390159D01*
X370251Y352889D02*
X384861Y367500D01*
X406230D01*
X366750Y354339D02*
X384411Y372000D01*
X362500Y355500D02*
X384000Y377000D01*
X450159Y305001D02*
X459999D01*
X464000Y301000D01*
X283389Y356750D02*
X304750D01*
X275750Y364250D02*
X276000Y364000D01*
X253683Y364250D02*
X275750D01*
X276139Y364000D02*
X283389Y356750D01*
X276000Y364000D02*
X276139D01*
X228750Y362639D02*
X230361Y364250D01*
X253683D01*
X253683Y364250D01*
X228750Y339317D02*
Y362639D01*
X212429Y322996D02*
X228750Y339317D01*
X406250Y238188D02*
Y239000D01*
X407573Y232727D02*
X407650Y232650D01*
X406250Y238188D02*
X407573Y236865D01*
Y232727D02*
Y236865D01*
X346583Y246276D02*
Y246682D01*
X402650Y212500D02*
Y217350D01*
X397650Y207001D02*
Y217350D01*
X397400Y207251D02*
X402650Y212500D01*
X342788Y242481D02*
X346583Y246276D01*
X342788Y231787D02*
Y242481D01*
X342500Y231500D02*
X342788Y231787D01*
X292500Y218139D02*
Y231500D01*
X297000Y196250D02*
X297500D01*
X289750Y203500D02*
Y215389D01*
Y203500D02*
X297000Y196250D01*
X289750Y215389D02*
X292500Y218139D01*
X260000Y423000D02*
Y427000D01*
X270000Y437000D02*
X291000D01*
X260000Y427000D02*
X270000Y437000D01*
X297650Y443247D02*
X304400Y449997D01*
X291000Y437000D02*
X297247Y443247D01*
X304400Y449997D02*
Y452497D01*
X297247Y443247D02*
X297650D01*
X267000Y428391D02*
X272109Y433500D01*
X313303D02*
X322300Y442497D01*
X267000Y423000D02*
Y428391D01*
X272109Y433500D02*
X313303D01*
X315500Y314750D02*
Y320571D01*
Y314750D02*
X320250Y310000D01*
X326872D01*
X322213Y343213D02*
X322500Y343500D01*
X321745Y319745D02*
X332250Y330250D01*
X327213Y332284D02*
Y343213D01*
X310500Y320000D02*
Y320521D01*
X322213Y332234D02*
Y343213D01*
X326872Y310000D02*
X343622Y326750D01*
X365711D01*
X310500Y320521D02*
X322213Y332234D01*
X315500Y320571D02*
X327213Y332284D01*
Y343213D02*
X327500Y343500D01*
X332250Y330250D02*
X364261D01*
X340929Y258000D02*
X355961D01*
X387350Y146748D02*
X393861D01*
X302500Y296429D02*
Y343500D01*
X381100Y152998D02*
X385000Y156898D01*
Y224011D01*
X335719Y270281D02*
X335738Y270300D01*
X380600Y153498D02*
X381100Y152998D01*
X335738Y270300D02*
Y273626D01*
X302500Y296429D02*
X340929Y258000D01*
X380600Y153498D02*
X387350Y146748D01*
X339479Y254500D02*
X354511D01*
X335738Y273626D02*
X361824Y299713D01*
X297500Y296479D02*
Y343500D01*
Y296479D02*
X339479Y254500D01*
X356200Y124250D02*
X361950Y130000D01*
X245781Y263250D02*
X253937D01*
X424000Y315000D02*
X451000Y342000D01*
X381000Y315000D02*
X424000D01*
X451000Y342000D02*
X470565D01*
X244500Y280499D02*
Y289500D01*
X247750Y292750D02*
X251639D01*
X244500Y289500D02*
X247750Y292750D01*
X239250Y275249D02*
X244500Y280499D01*
X297556Y182751D02*
X311724D01*
X325727Y168748D02*
X345252D01*
X311724Y182751D02*
X325727Y168748D01*
X345252D02*
X348450Y165550D01*
X323050Y165248D02*
X329800Y158498D01*
X309624Y178376D02*
X322752Y165248D01*
X296982Y178376D02*
X309624D01*
X322752Y165248D02*
X323050D01*
X406000Y155998D02*
X410978Y151020D01*
X434500D01*
X380600Y153498D02*
Y155998D01*
X393861Y146748D02*
X401629Y138980D01*
X434500D01*
X406000Y155998D02*
Y158498D01*
X388650Y175849D02*
X406000Y158498D01*
X388650Y175849D02*
Y211389D01*
X196922Y303898D02*
X199501Y306477D01*
X190898Y303898D02*
X196922D01*
X184000Y297000D02*
X190898Y303898D01*
X183408Y290000D02*
X188877Y284531D01*
Y282211D02*
Y284531D01*
X180929Y290000D02*
X183408D01*
X174123Y296806D02*
Y314531D01*
X183980Y324388D01*
Y363360D01*
X188877Y282211D02*
X192100Y278989D01*
X174123Y296806D02*
X180929Y290000D01*
X192100Y278989D02*
X207989D01*
X182230Y365111D02*
X183980Y363360D01*
X355961Y258000D02*
X388650Y225311D01*
X354511Y254500D02*
X385000Y224011D01*
X337500Y231500D02*
Y247500D01*
X325000Y260000D02*
X337500Y247500D01*
X217435Y288435D02*
Y321969D01*
X207989Y278989D02*
X217435Y288435D01*
Y321969D02*
X223611Y328145D01*
X279750Y195607D02*
X296982Y178376D01*
X348450Y162748D02*
X355200Y155998D01*
X348450Y162748D02*
Y165550D01*
X283250Y197057D02*
X297556Y182751D01*
X279750Y195607D02*
Y243710D01*
X329800Y155998D02*
Y158498D01*
X388650Y211389D02*
X388650Y211390D01*
Y225311D01*
X269000Y255000D02*
X278406D01*
X279156Y254250D01*
X279760D01*
X282250Y251760D01*
Y246210D02*
Y251760D01*
X279750Y243710D02*
X282250Y246210D01*
X360950Y178000D02*
X370350Y168600D01*
X347750Y183001D02*
X352751Y178000D01*
X360950D01*
X360000Y174000D02*
X366850Y167150D01*
X346103Y179250D02*
X351353Y174000D01*
X360000D01*
X347750Y183001D02*
Y215639D01*
X346103Y179250D02*
X346103D01*
X366850Y138748D02*
Y167150D01*
X370350Y140197D02*
Y168600D01*
X304750Y356750D02*
X307213Y354287D01*
Y343787D02*
Y354287D01*
Y343787D02*
X307500Y343500D01*
X317787Y343787D02*
Y354108D01*
X324826Y361146D02*
Y396076D01*
X317787Y354108D02*
X324826Y361146D01*
X317500Y343500D02*
X317787Y343787D01*
X311150Y409752D02*
X324826Y396076D01*
X304400Y416502D02*
X311150Y409752D01*
X329800Y401002D02*
X331826Y398976D01*
X328326Y358090D02*
Y397526D01*
X329800Y401002D02*
Y419002D01*
X331826Y359540D02*
Y398976D01*
X311150Y409752D02*
X311150D01*
X319550Y406302D02*
X328326Y397526D01*
X304400Y416502D02*
Y419002D01*
X348450Y409752D02*
X355200Y416502D01*
X335326Y397037D02*
X348041Y409752D01*
X335326Y360990D02*
Y397037D01*
X348041Y409752D02*
X348450D01*
X355200Y416502D02*
Y419002D01*
X287259Y295000D02*
X314000Y268259D01*
Y255000D02*
Y268259D01*
X362500Y343500D02*
Y355500D01*
X370251Y331290D02*
Y352889D01*
X366750Y332739D02*
Y354339D01*
X411230Y390236D02*
Y391000D01*
Y390236D02*
X412730Y388736D01*
Y384000D02*
Y388736D01*
X417730Y384000D02*
Y391000D01*
X424230Y390235D02*
Y391000D01*
X422730Y388736D02*
X424230Y390235D01*
X422730Y384000D02*
Y388736D01*
X431000Y360000D02*
Y361082D01*
X429230Y362853D02*
X431000Y361082D01*
X429230Y362853D02*
Y367500D01*
X411501Y359000D02*
X412115Y359615D01*
Y365385D01*
X412730Y366000D01*
X347500Y343500D02*
Y366621D01*
X349879Y369000D01*
X350000D01*
X331826Y359540D02*
X337213Y354153D01*
X335326Y360990D02*
X342214Y354102D01*
X328326Y358090D02*
X332213Y354203D01*
X342214Y343787D02*
Y354102D01*
Y343787D02*
X342500Y343500D01*
X357500Y362429D02*
X364000Y368929D01*
Y369000D01*
X357000Y368929D02*
Y369000D01*
X352500Y364430D02*
X357000Y368929D01*
X352500Y343500D02*
Y364430D01*
X357500Y343500D02*
Y362429D01*
X364261Y330250D02*
X366750Y332739D01*
X365711Y326750D02*
X370251Y331290D01*
X480500Y391400D02*
Y406221D01*
X475479Y395653D02*
Y406292D01*
X480479Y386429D02*
X484000Y389950D01*
X485916Y384340D02*
X490879Y389303D01*
X480479Y351914D02*
Y386429D01*
X485479Y384340D02*
X485916D01*
X470565Y342000D02*
X480479Y351914D01*
X486018Y371742D02*
X490879Y376603D01*
X485757Y371742D02*
X486018D01*
X475479Y370253D02*
Y386379D01*
X484000Y389950D02*
Y395124D01*
X475479Y386379D02*
X480500Y391400D01*
X484000Y395124D02*
X490879Y402003D01*
X458939Y274000D02*
X464000D01*
X457938Y275001D02*
X458939Y274000D01*
X450159Y275001D02*
X457938D01*
X460009Y280000D02*
X460009Y280000D01*
X450160Y280000D02*
X460009D01*
X450159Y290000D02*
X450160Y290000D01*
X460009D01*
X450159Y280000D02*
X450160Y280000D01*
X385135Y244250D02*
X392501D01*
X394250Y245999D01*
Y251760D01*
X397650Y232650D02*
X397750Y232750D01*
X392230Y259713D02*
X397750Y254193D01*
Y232750D02*
Y254193D01*
X391297Y254713D02*
X394250Y251760D01*
X381287Y254713D02*
X391297D01*
X381000Y255000D02*
X381287Y254713D01*
X392868Y264713D02*
X401250Y256331D01*
Y236679D02*
Y256331D01*
Y236679D02*
X402150Y235779D01*
X381287Y259713D02*
X392230D01*
X381000Y260000D02*
X381287Y259713D01*
X402150Y233150D02*
Y235779D01*
Y233150D02*
X402650Y232650D01*
X412150Y229500D02*
Y241000D01*
X410300Y227650D02*
X412150Y229500D01*
X409937Y243213D02*
X412150Y241000D01*
X409827Y243213D02*
X409937D01*
X406250Y246000D02*
X407040D01*
X409827Y243213D01*
X394000Y228650D02*
X395000Y227650D01*
X393664Y228650D02*
X394000D01*
X386899Y235414D02*
X393664Y228650D01*
X386899Y235414D02*
Y235414D01*
X395000Y227500D02*
Y227650D01*
X380135Y249307D02*
X380828Y250000D01*
X381000D01*
X380135Y242179D02*
X386899Y235414D01*
X380135Y242179D02*
Y249307D01*
X269203Y274797D02*
X300391D01*
X269000Y275000D02*
X269203Y274797D01*
X287000Y295000D02*
X287259D01*
X300391Y274797D02*
X300594Y274594D01*
X312500Y231500D02*
Y244688D01*
X314000Y246188D01*
Y247000D01*
X288250Y242260D02*
X300990Y255000D01*
X306000D01*
Y246188D02*
Y247000D01*
Y246188D02*
X307500Y244688D01*
Y231500D02*
Y244688D01*
Y231500D02*
X307500Y231500D01*
X363500Y263000D02*
X363932Y263432D01*
Y265932D02*
X368000Y270000D01*
X381000D01*
X363932Y263432D02*
Y265932D01*
X361824Y299713D02*
X380713D01*
X344000Y274076D02*
X354925Y285000D01*
X344000Y263000D02*
Y274076D01*
X354925Y285000D02*
X381000D01*
X357000Y263000D02*
Y269000D01*
X363000Y275000D01*
X350500Y272500D02*
X358000Y280000D01*
X350500Y263000D02*
Y272500D01*
X269000Y295000D02*
X287000D01*
X192957Y229750D02*
X207250D01*
X192500Y230207D02*
X192957Y229750D01*
X248389Y328145D02*
X256250Y320284D01*
X366850Y138748D02*
X380600Y124998D01*
X373994Y136553D02*
X394444D01*
X370350Y140197D02*
X373994Y136553D01*
X302787Y219713D02*
X307500Y215000D01*
X302787Y219713D02*
Y231213D01*
X362788Y221463D02*
X374500Y209750D01*
X362500Y231500D02*
X362788Y231213D01*
Y221463D02*
Y231213D01*
X403800Y225958D02*
X406909Y222850D01*
X409950D01*
X410300Y222500D01*
X408550Y218250D02*
Y221556D01*
X408944D02*
X409844D01*
X407650Y217350D02*
X408550Y218250D01*
X269000Y241541D02*
Y250000D01*
Y241541D02*
X271182Y239359D01*
Y238818D02*
Y239359D01*
X285918Y327000D02*
X287000D01*
X283918Y325000D02*
X285918Y327000D01*
X269000Y325000D02*
X283918D01*
X287000Y327000D02*
X287250Y327250D01*
Y343250D01*
X287500Y343500D01*
X208372Y297431D02*
X212429Y301488D01*
X199501Y296477D02*
X200455Y297431D01*
X208372D01*
X358000Y280000D02*
X381000D01*
X380713Y299713D02*
X381000Y300000D01*
X363000Y275000D02*
X381000D01*
X381287Y264713D02*
X392868D01*
X317500Y215000D02*
Y231500D01*
X317500Y215000D02*
X317500Y215000D01*
Y231500D02*
X317500Y231500D01*
X490879Y389303D02*
X499079D01*
X490879Y376603D02*
X499079D01*
X490879Y402003D02*
X499079D01*
X490879Y351203D02*
X499079D01*
X481383Y341706D02*
X490879Y351203D01*
X481383Y338383D02*
Y341706D01*
X481000Y338000D02*
X481383Y338383D01*
X410300Y227500D02*
Y227650D01*
X407650Y207000D02*
X409400Y205250D01*
X407650Y207000D02*
Y217200D01*
X410800Y222000D02*
X423750D01*
X410300Y222500D02*
X410800Y222000D01*
X423750D02*
X427500Y218250D01*
X322300Y442497D02*
X322300D01*
X329800Y449997D01*
Y452497D01*
X283250Y197057D02*
Y242260D01*
X380600Y122498D02*
Y124998D01*
X332213Y343787D02*
Y354203D01*
Y343787D02*
X332500Y343500D01*
X337213Y343787D02*
Y354153D01*
Y343787D02*
X337500Y343500D01*
X288250Y241656D02*
Y242260D01*
X287500Y240906D02*
X288250Y241656D01*
X287500Y231500D02*
Y240906D01*
X344250Y181103D02*
X346103Y179250D01*
X344250Y181103D02*
Y217089D01*
X394444Y136553D02*
X406000Y124998D01*
X347750Y215639D02*
X352214Y220103D01*
X337213Y231213D02*
X337500Y231500D01*
X337213Y218760D02*
Y231213D01*
X335000Y216547D02*
X337213Y218760D01*
X335000Y209750D02*
Y216547D01*
X344250Y217089D02*
X347213Y220052D01*
Y231213D01*
X347500Y231500D01*
X352214Y231213D02*
X352500Y231500D01*
X352214Y220103D02*
Y231213D01*
X406000Y122498D02*
Y124998D01*
X357500Y208000D02*
Y231500D01*
X357500Y208000D02*
X357500Y208000D01*
X253937Y263250D02*
X255688Y265000D01*
X269000D01*
X382500Y325693D02*
Y338250D01*
X381000Y325000D02*
X381807D01*
X382500Y325693D01*
X297500Y209750D02*
X297500Y209750D01*
Y231500D01*
X212429Y301488D02*
Y322996D01*
X223611Y328145D02*
X248389D01*
X269000Y295000D02*
X269000Y295000D01*
X258602Y299713D02*
X268713D01*
X251639Y292750D02*
X258602Y299713D01*
X283250Y242260D02*
X285750Y244760D01*
X283250Y255710D02*
Y255760D01*
Y255710D02*
X285750Y253210D01*
Y244760D02*
Y253210D01*
X279760Y259250D02*
X283250Y255760D01*
X279156Y259250D02*
X279760D01*
X278406Y260000D02*
X279156Y259250D01*
X269000Y260000D02*
X278406D01*
X258602Y305287D02*
X268713D01*
X269000Y305000D01*
X251639Y312250D02*
X258602Y305287D01*
X229250Y304250D02*
Y320395D01*
X227500Y303500D02*
X236250Y312250D01*
X268713Y299713D02*
X269000Y300000D01*
X227500Y302500D02*
Y303500D01*
X236250Y312250D02*
X251639D01*
X239250Y271398D02*
Y275249D01*
X231103Y263250D02*
X239250Y271398D01*
X230603Y263250D02*
X231103D01*
X256250Y320284D02*
X268716D01*
X269000Y320000D01*
X302500Y231500D02*
X302787Y231213D01*
X381000Y265000D02*
X381287Y264713D01*
X405980Y275749D02*
X409230Y272499D01*
X405068Y275749D02*
X405980D01*
X395426Y285391D02*
X405068Y275749D01*
X395426Y285391D02*
Y290585D01*
X391761Y294250D02*
X395426Y290585D01*
X391157Y294250D02*
X391761D01*
X390406Y295000D02*
X391157Y294250D01*
X381000Y295000D02*
X390406D01*
X195892Y381610D02*
X196020Y381738D01*
X182230Y381610D02*
X195892D01*
X381000Y320000D02*
X381287Y320287D01*
X392037D01*
X400000Y328250D01*
Y337000D01*
D19*
X460079Y389303D02*
D03*
Y376603D02*
D03*
Y363903D02*
D03*
Y351203D02*
D03*
X499079D02*
D03*
Y402003D02*
D03*
Y389303D02*
D03*
Y376603D02*
D03*
Y363903D02*
D03*
X460079Y402003D02*
D03*
D20*
X429230Y382500D02*
D03*
Y377500D02*
D03*
X406230D02*
D03*
Y372500D02*
D03*
X429230D02*
D03*
X406230Y367500D02*
D03*
Y382500D02*
D03*
X429230Y367500D02*
D03*
D21*
X422730Y366000D02*
D03*
X417730D02*
D03*
X422730Y384000D02*
D03*
X417730D02*
D03*
X412730D02*
D03*
Y366000D02*
D03*
D22*
X406000Y419002D02*
D03*
X380600Y452497D02*
D03*
X279000Y122498D02*
D03*
Y155998D02*
D03*
X329800Y122498D02*
D03*
X406000Y155998D02*
D03*
X380600D02*
D03*
X355200D02*
D03*
X329800D02*
D03*
X304400D02*
D03*
X355200Y452497D02*
D03*
X380600Y419002D02*
D03*
X304400Y122498D02*
D03*
X406000D02*
D03*
X380600D02*
D03*
X355200D02*
D03*
X329800Y452497D02*
D03*
X304400D02*
D03*
X355200Y419002D02*
D03*
X329800D02*
D03*
X304400D02*
D03*
X279000D02*
D03*
D23*
X429000Y338250D02*
D03*
X415000D02*
D03*
X427500Y231750D02*
D03*
X382500Y351750D02*
D03*
X375000Y196250D02*
D03*
X270000Y356750D02*
D03*
X254750D02*
D03*
X245781Y249750D02*
D03*
X230603D02*
D03*
X335000Y196250D02*
D03*
X297500Y196250D02*
D03*
X429000Y351750D02*
D03*
X415000D02*
D03*
X270000Y343250D02*
D03*
X254750D02*
D03*
X245781Y263250D02*
D03*
X382500Y338250D02*
D03*
X297500Y209750D02*
D03*
X230603Y263250D02*
D03*
X427500Y218250D02*
D03*
X375000Y209750D02*
D03*
X335000Y209750D02*
D03*
D24*
X426230Y259999D02*
D03*
X451500Y138980D02*
D03*
X434500D02*
D03*
X451500Y151020D02*
D03*
X434500D02*
D03*
X409230Y259999D02*
D03*
X426230Y272499D02*
D03*
X409230D02*
D03*
D25*
X407650Y232650D02*
D03*
X402650Y217350D02*
D03*
X397650D02*
D03*
X410300Y227500D02*
D03*
X402650Y232650D02*
D03*
X397650D02*
D03*
X395000Y227500D02*
D03*
Y222500D02*
D03*
X407650Y217350D02*
D03*
X410300Y222500D02*
D03*
D26*
X406230Y296976D02*
D03*
X429230Y287476D02*
D03*
Y306477D02*
D03*
X406230Y287476D02*
D03*
Y306477D02*
D03*
X429230Y296976D02*
D03*
D27*
X398500Y353000D02*
D03*
X357500Y192000D02*
D03*
X238500Y355000D02*
D03*
Y339000D02*
D03*
X357500Y208000D02*
D03*
X398500Y337000D02*
D03*
D28*
X395900Y205250D02*
D03*
X242750Y320395D02*
D03*
X229250D02*
D03*
X409400Y205250D02*
D03*
D29*
X292500Y343500D02*
D03*
X342500Y231500D02*
D03*
X292500D02*
D03*
X302500Y343500D02*
D03*
X297500D02*
D03*
X347500D02*
D03*
X327500D02*
D03*
X302500Y231500D02*
D03*
X312500D02*
D03*
X317500D02*
D03*
X307500D02*
D03*
X352500D02*
D03*
X347500D02*
D03*
X322500Y343500D02*
D03*
X352500D02*
D03*
X357500D02*
D03*
X312500D02*
D03*
X332500D02*
D03*
X362500D02*
D03*
X332500Y231500D02*
D03*
X327500D02*
D03*
X322500D02*
D03*
X287500D02*
D03*
X337500D02*
D03*
X307500Y343500D02*
D03*
X317500D02*
D03*
X337500D02*
D03*
X342500D02*
D03*
X362500Y231500D02*
D03*
X297500D02*
D03*
X287500Y343500D02*
D03*
X357500Y231500D02*
D03*
D30*
X269000Y270000D02*
D03*
Y255000D02*
D03*
Y260000D02*
D03*
X381000Y305000D02*
D03*
Y310000D02*
D03*
X269000Y320000D02*
D03*
X381000Y270000D02*
D03*
Y275000D02*
D03*
Y300000D02*
D03*
Y280000D02*
D03*
Y320000D02*
D03*
Y315000D02*
D03*
Y295000D02*
D03*
Y290000D02*
D03*
X269000Y250000D02*
D03*
Y280000D02*
D03*
Y285000D02*
D03*
Y290000D02*
D03*
Y310000D02*
D03*
Y315000D02*
D03*
Y295000D02*
D03*
X381000Y255000D02*
D03*
Y265000D02*
D03*
Y250000D02*
D03*
Y260000D02*
D03*
X269000Y305000D02*
D03*
Y300000D02*
D03*
X381000Y285000D02*
D03*
X269000Y275000D02*
D03*
Y265000D02*
D03*
Y325000D02*
D03*
X381000D02*
D03*
D31*
X244500Y302500D02*
D03*
X227500Y280499D02*
D03*
Y302500D02*
D03*
X244500Y280499D02*
D03*
D32*
X196020Y364739D02*
D03*
Y381738D02*
D03*
D33*
X192500Y196207D02*
D03*
Y230207D02*
D03*
D34*
X199501Y306477D02*
D03*
Y296477D02*
D03*
Y286477D02*
D03*
D35*
X502770Y216530D02*
D03*
X487230Y216530D02*
D03*
X182230Y365111D02*
D03*
D36*
X487230Y200030D02*
D03*
X182230Y381610D02*
D03*
X502770Y200030D02*
D03*
D37*
X170499Y268976D02*
D03*
Y323977D02*
D03*
X192501Y268976D02*
D03*
Y323977D02*
D03*
D62*
X450159Y319499D02*
D03*
Y255501D02*
D03*
Y311500D02*
D03*
Y263500D02*
D03*
D63*
Y289999D02*
D03*
Y269999D02*
D03*
Y275001D02*
D03*
Y279999D02*
D03*
Y299999D02*
D03*
Y295001D02*
D03*
Y285001D02*
D03*
Y305001D02*
D03*
D64*
X275230Y354500D02*
X279729Y350000D01*
X272250Y354500D02*
X275230D01*
X382500Y351750D02*
X383125Y352375D01*
X397375D01*
X398000Y353000D01*
X279729Y350000D02*
X280000D01*
X270000Y356750D02*
X272250Y354500D01*
X239375Y355875D02*
X253875D01*
X254750Y356750D01*
X238500Y355000D02*
X239375Y355875D01*
X254750Y356750D02*
X270000D01*
X415000Y338250D02*
X429000D01*
X244750Y318096D02*
X250154D01*
X253479Y270034D02*
X253750D01*
X253288Y269843D02*
X253479Y270034D01*
X245781Y263250D02*
X246281D01*
X252874Y269843D01*
X253288D01*
X411501Y358729D02*
X412250Y357980D01*
Y354000D02*
Y357980D01*
X412750Y354000D02*
X415000Y351750D01*
X411501Y358729D02*
Y359000D01*
X412250Y354000D02*
X412750D01*
X430809Y359809D02*
X431000Y360000D01*
X430809Y353559D02*
Y359809D01*
X429000Y351750D02*
X430809Y353559D01*
X241568Y342068D02*
X253568D01*
X238500Y339000D02*
X241568Y342068D01*
X253568D02*
X254750Y343250D01*
X255250D01*
X260809Y337691D01*
Y333191D02*
Y337691D01*
Y333191D02*
X261000Y333000D01*
X297500Y209750D02*
X299750Y207500D01*
X303229D01*
X307729Y203000D01*
X308000D01*
X375000Y209750D02*
Y220000D01*
X382000Y338250D02*
X382500D01*
X377191Y333441D02*
X382000Y338250D01*
X377191Y331191D02*
Y333441D01*
X377000Y331000D02*
X377191Y331191D01*
X257250Y343250D02*
X270000D01*
D65*
X303000Y153898D02*
Y170000D01*
X394000Y357000D02*
Y360664D01*
Y357000D02*
X398000Y353000D01*
X393333Y361331D02*
X394000Y360664D01*
X393333Y361331D02*
Y361466D01*
X250154Y318096D02*
X250250Y318000D01*
X241000Y298873D02*
X244500Y302373D01*
X237962Y293860D02*
X241000Y296898D01*
Y298873D01*
X237866Y293494D02*
Y293629D01*
X231000Y286628D02*
X237866Y293494D01*
X231000Y283999D02*
Y286628D01*
X227500Y280499D02*
X231000Y283999D01*
X329000Y123298D02*
Y136000D01*
Y123298D02*
X329800Y122498D01*
X303000Y153898D02*
X303559Y153340D01*
X366367Y444997D02*
X367865Y443500D01*
X368000D01*
X360200Y444997D02*
X366367D01*
X355200Y449997D02*
Y452497D01*
Y449997D02*
X360200Y444997D01*
X304000Y122898D02*
Y136000D01*
X382248Y420854D02*
X393570D01*
X380600Y422502D02*
X382248Y420854D01*
X261000Y333000D02*
Y333135D01*
D66*
X407729Y298476D02*
X412179D01*
X417963Y304963D02*
X418250Y305250D01*
X417963Y304260D02*
Y304963D01*
X406230Y296976D02*
X407729Y298476D01*
X448352Y320999D02*
X450006Y319346D01*
X440676Y322000D02*
X441678Y320999D01*
X448352D01*
X439000Y322000D02*
X440676D01*
X450159Y311500D02*
X451659Y310001D01*
X465993Y309523D02*
X468516Y307000D01*
X458509Y309523D02*
X465993D01*
X451659Y310001D02*
X458032D01*
X458509Y309523D01*
X468516Y307000D02*
X469000D01*
X270000Y356750D02*
X273250D01*
Y353999D02*
Y356750D01*
Y353999D02*
X273500Y353750D01*
X460079Y351203D02*
Y389303D01*
X460055Y351226D02*
X460079Y351203D01*
X270000Y356750D02*
Y359800D01*
X499770Y202530D02*
Y204741D01*
X497917Y206594D02*
Y207000D01*
X499770Y202530D02*
X502270Y200030D01*
X502770D01*
X497917Y206594D02*
X499770Y204741D01*
X491000Y206594D02*
Y207000D01*
X490230Y205824D02*
X491000Y206594D01*
X490230Y202530D02*
Y205824D01*
X487730Y200030D02*
X490230Y202530D01*
X487230Y200030D02*
X487730D01*
X355000Y124450D02*
Y137000D01*
X355200Y122498D02*
Y124250D01*
X355000Y124450D02*
X355200Y124250D01*
X426230Y272499D02*
X428730Y269999D01*
X432960D01*
X439459Y263500D01*
X450159D01*
X469000Y268000D02*
Y268676D01*
X473000Y272677D01*
Y302323D01*
X469000Y306324D02*
X473000Y302323D01*
X469000Y306324D02*
Y307000D01*
X451659Y264999D02*
X457809D01*
X460809Y268000D01*
X469000D01*
X257757Y414243D02*
X273000D01*
X253000Y419000D02*
Y423000D01*
Y419000D02*
X257757Y414243D01*
X279000Y420243D02*
Y422502D01*
X273000Y414243D02*
X279000Y420243D01*
X450159Y263500D02*
X451659Y264999D01*
X419730Y278499D02*
X425730Y272499D01*
X419730Y278499D02*
Y291926D01*
X421780Y293976D01*
X423230D01*
X426230Y296976D01*
X409230Y272499D02*
X409230Y272499D01*
Y259999D02*
Y272499D01*
D67*
X444383Y396383D02*
X446259D01*
X451879Y402003D01*
X444000Y396000D02*
X444383Y396383D01*
X208072Y288227D02*
X211394Y291549D01*
X211935D01*
X201251Y288227D02*
X208072D01*
X425730Y272499D02*
X426617Y273387D01*
Y279344D01*
X427000Y279726D01*
X451879Y402003D02*
X460079D01*
X199501Y286477D02*
X201251Y288227D01*
D68*
X502770Y216530D02*
Y227000D01*
X487230Y216530D02*
Y227000D01*
X453000Y162594D02*
Y163000D01*
X451500Y161094D02*
X453000Y162594D01*
X451500Y138980D02*
Y161094D01*
D69*
X432230Y287476D02*
X437680Y292926D01*
X441706Y291050D02*
X443882D01*
X442380Y294477D02*
X442907Y293950D01*
X442380Y294477D02*
Y296200D01*
X439480Y293276D02*
Y294999D01*
X437680Y298954D02*
Y301027D01*
Y292926D02*
Y294999D01*
X449109Y291049D02*
X450159Y289999D01*
X438952Y295527D02*
X439480Y294999D01*
Y293276D02*
X441706Y291050D01*
X438207Y298426D02*
X440154D01*
X442380Y296200D01*
X443882Y291050D02*
X443882Y291049D01*
X449109D01*
X442907Y293950D02*
X443652D01*
X432230Y306477D02*
X437680Y301027D01*
Y298954D02*
X438207Y298426D01*
Y295527D02*
X438952D01*
X437680Y294999D02*
X438207Y295527D01*
X450159Y279999D02*
X450159Y280000D01*
X450159Y289999D02*
X450159Y290000D01*
X403229Y306477D02*
X406230D01*
X399237Y302484D02*
X403229Y306477D01*
X398491Y302484D02*
X399237D01*
X397964Y303011D02*
Y306724D01*
Y303011D02*
X398491Y302484D01*
X395738Y308950D02*
X397964Y306724D01*
X391618Y308950D02*
X395738D01*
X381000Y310000D02*
X390569D01*
X391618Y308950D01*
X403229Y287476D02*
X406230D01*
X397780Y292926D02*
X403229Y287476D01*
X395064Y300210D02*
X397780Y297494D01*
X394537Y306050D02*
X395064Y305523D01*
X391618Y306050D02*
X394537D01*
X381000Y305000D02*
X390569D01*
X391618Y306050D01*
X397780Y292926D02*
Y297494D01*
X395064Y300210D02*
Y305523D01*
X449109Y293951D02*
X450159Y295001D01*
X443652Y293950D02*
X443653Y293951D01*
X429230Y306477D02*
X432230D01*
X443653Y293951D02*
X449109D01*
X429230Y287476D02*
X432230D01*
D70*
X417730Y375000D02*
D03*
D71*
X456359Y330700D02*
D03*
Y244300D02*
D03*
D72*
X498160Y330700D02*
D03*
Y244300D02*
D03*
D73*
X190000Y440000D02*
D03*
Y135000D02*
D03*
X495000D02*
D03*
Y440000D02*
D03*
D74*
X280000Y350000D02*
D03*
X206514Y272988D02*
D03*
X325384Y177251D02*
D03*
X393333Y361466D02*
D03*
X444000Y396000D02*
D03*
X257000Y370000D02*
D03*
X202000Y326000D02*
D03*
X480000Y240000D02*
D03*
Y160000D02*
D03*
X440000Y360000D02*
D03*
Y120000D02*
D03*
X400000Y400000D02*
D03*
X280000D02*
D03*
X240000D02*
D03*
Y200000D02*
D03*
Y160000D02*
D03*
Y120000D02*
D03*
X202000Y400000D02*
D03*
X439750Y177251D02*
D03*
X225000Y376000D02*
D03*
X440000Y322000D02*
D03*
X403000D02*
D03*
X374500Y177251D02*
D03*
X250250Y318000D02*
D03*
X315125Y300669D02*
D03*
X319500Y265000D02*
D03*
X291750D02*
D03*
X237866Y293629D02*
D03*
X346583Y246682D02*
D03*
X212000Y247000D02*
D03*
X329000Y136000D02*
D03*
X253750Y270034D02*
D03*
X303000Y170000D02*
D03*
X304000Y136000D02*
D03*
X453000Y163000D02*
D03*
X211935Y291549D02*
D03*
X368000Y443500D02*
D03*
X393570Y420854D02*
D03*
X431000Y360000D02*
D03*
X411501Y359000D02*
D03*
X469000Y307000D02*
D03*
Y268000D02*
D03*
X502770Y227000D02*
D03*
X487230D02*
D03*
X261000Y333000D02*
D03*
X287000Y327000D02*
D03*
X403800Y225958D02*
D03*
X427000Y279726D02*
D03*
X377000Y331000D02*
D03*
X308000Y203000D02*
D03*
X375000Y220000D02*
D03*
D75*
X416000Y375000D02*
D03*
X418250Y305250D02*
D03*
X406250Y239000D02*
D03*
X321745Y319745D02*
D03*
X335719Y270281D02*
D03*
X355000Y137000D02*
D03*
X184000Y297000D02*
D03*
X325000Y260000D02*
D03*
X411230Y391000D02*
D03*
X424230D02*
D03*
X417730D02*
D03*
X350000Y369000D02*
D03*
X364000D02*
D03*
X357000D02*
D03*
X497917Y207000D02*
D03*
X491000D02*
D03*
X485479Y384340D02*
D03*
X485757Y371742D02*
D03*
X475479Y395653D02*
D03*
Y370253D02*
D03*
X464000Y274000D02*
D03*
Y301000D02*
D03*
X460009Y290000D02*
D03*
X460009Y280000D02*
D03*
X406250Y246000D02*
D03*
X385135Y244250D02*
D03*
X300594Y274594D02*
D03*
X314000Y247000D02*
D03*
Y255000D02*
D03*
X306000D02*
D03*
Y247000D02*
D03*
X310500Y320000D02*
D03*
X363500Y263000D02*
D03*
X357000D02*
D03*
X350500D02*
D03*
X344000D02*
D03*
X287000Y295000D02*
D03*
X253000Y423000D02*
D03*
X267000D02*
D03*
X260000D02*
D03*
X207250Y229750D02*
D03*
X307500Y215000D02*
D03*
X271182Y238818D02*
D03*
X317500Y215000D02*
D03*
X481000Y338000D02*
D03*
M02*
