%TF.GenerationSoftware,Altium Limited,Altium Designer,25.6.2 (33)*%
G04 Layer_Physical_Order=3*
G04 Layer_Color=36540*
%FSLAX45Y45*%
%MOMM*%
%TF.SameCoordinates,DF3DBB3C-48A9-464C-9951-F34C30E37C37*%
%TF.FilePolarity,Positive*%
%TF.FileFunction,Copper,L3,Inr,Signal*%
%TF.Part,Single*%
G01*
G75*
%TA.AperFunction,ComponentPad*%
%ADD40O,2.10000X1.00000*%
%ADD41O,1.80000X1.00000*%
%TA.AperFunction,ViaPad*%
%ADD42C,4.50000*%
%ADD43C,0.55000*%
%ADD44C,0.45000*%
G36*
X4900472Y4641000D02*
X4855789Y4627446D01*
X4813227Y4604696D01*
X4775921Y4574079D01*
X4745304Y4536774D01*
X4730994Y4510000D01*
X4037991D01*
Y4390000D01*
X3820000D01*
Y4510000D01*
X3587199D01*
Y4350995D01*
X3744999Y4193194D01*
Y4025000D01*
X3523554Y3725376D01*
X3516583Y3730034D01*
X3500000Y3733332D01*
X3483417Y3730034D01*
X3469360Y3720641D01*
X3459966Y3706583D01*
X3456668Y3690000D01*
X3459966Y3673417D01*
X3469359Y3659360D01*
X3470391Y3653444D01*
X3438074Y3609718D01*
X2454010D01*
X1900001Y3055709D01*
X1900001Y2535939D01*
X2062592Y2346786D01*
X2059657Y2338278D01*
X2055917Y2337534D01*
X2041860Y2328141D01*
X2032466Y2314083D01*
X2029168Y2297500D01*
X2032466Y2280917D01*
X2041860Y2266860D01*
X2055917Y2257466D01*
X2072500Y2254168D01*
X2089083Y2257466D01*
X2103141Y2266860D01*
X2110263Y2277520D01*
X2120673Y2279216D01*
X2353282Y2008608D01*
X2351569Y2000000D01*
X2355256Y1981466D01*
X2365754Y1965754D01*
X2381466Y1955256D01*
X2400000Y1951569D01*
X2401974Y1951962D01*
X2981167Y1278150D01*
X3135964D01*
X3250000Y1450000D01*
X4716548D01*
X4721580Y1441000D01*
X4708545Y1398028D01*
X4703815Y1350000D01*
X4708545Y1301972D01*
X4722554Y1255789D01*
X4745304Y1213227D01*
X4775921Y1175921D01*
X4813227Y1145304D01*
X4855789Y1122555D01*
X4900472Y1109000D01*
X4899137Y1100000D01*
X1950863D01*
X1949528Y1109000D01*
X1994211Y1122555D01*
X2036773Y1145304D01*
X2074079Y1175921D01*
X2104696Y1213227D01*
X2127446Y1255789D01*
X2141455Y1301972D01*
X2146185Y1350000D01*
X2141455Y1398028D01*
X2127446Y1444211D01*
X2104696Y1486774D01*
X2074079Y1524080D01*
X2036773Y1554696D01*
X1994211Y1577446D01*
X1948028Y1591455D01*
X1900000Y1596186D01*
X1851972Y1591455D01*
X1805789Y1577446D01*
X1763227Y1554696D01*
X1725921Y1524080D01*
X1695304Y1486774D01*
X1672554Y1444211D01*
X1658545Y1398029D01*
X1649864Y1399426D01*
X1648859Y3609718D01*
X1649672Y4350932D01*
X1658545Y4351971D01*
X1672554Y4305788D01*
X1695304Y4263226D01*
X1725921Y4225920D01*
X1763227Y4195304D01*
X1805789Y4172554D01*
X1851972Y4158545D01*
X1900000Y4153814D01*
X1948028Y4158545D01*
X1994211Y4172554D01*
X2036773Y4195304D01*
X2074079Y4225920D01*
X2104696Y4263226D01*
X2127446Y4305788D01*
X2141455Y4351971D01*
X2146185Y4400000D01*
X2141455Y4448028D01*
X2127446Y4494211D01*
X2104696Y4536773D01*
X2074079Y4574079D01*
X2036773Y4604695D01*
X1994211Y4627445D01*
X1949526Y4641000D01*
X1950861Y4650000D01*
X4899137D01*
X4900472Y4641000D01*
D02*
G37*
G36*
X4355450Y4350995D02*
X4046406Y4028674D01*
X4037441Y4029462D01*
X4034245Y4034245D01*
X4018533Y4044743D01*
X4000000Y4048430D01*
X3981466Y4044743D01*
X3965754Y4034245D01*
X3955256Y4018533D01*
X3951569Y4000000D01*
X3955256Y3981466D01*
X3965754Y3965754D01*
X3972318Y3961368D01*
X3973294Y3952421D01*
X3810000Y3782112D01*
Y3410000D01*
X2517614D01*
X2065756Y2958140D01*
Y2819986D01*
X2335618Y2652498D01*
X2534563D01*
X2537501Y2651913D01*
X2540439Y2652498D01*
X2585617D01*
Y2698761D01*
X2585932Y2700344D01*
X2585617Y2701926D01*
Y2862886D01*
X2729608D01*
Y2437151D01*
X2720608Y2429764D01*
X2711820Y2431513D01*
X2695237Y2428214D01*
X2681179Y2418821D01*
X2671786Y2404763D01*
X2668487Y2388180D01*
X2671786Y2371597D01*
X2681179Y2357540D01*
X2695237Y2348146D01*
X2711820Y2344848D01*
X2721090Y2346692D01*
X2731161Y2342196D01*
X2735581Y2335581D01*
X2742197Y2331160D01*
X2750000Y2329608D01*
Y2241115D01*
X3033229Y1895002D01*
X3517470D01*
X4203892Y2299997D01*
X4261322D01*
X4370000Y2226750D01*
Y1811263D01*
X4363254Y1806756D01*
X4352756Y1791044D01*
X4349070Y1772511D01*
X4352756Y1753977D01*
X4363254Y1738265D01*
X4370000Y1733758D01*
Y1470392D01*
X3250000D01*
X3247998Y1469994D01*
X3245958Y1469987D01*
X3244135Y1469225D01*
X3242196Y1468840D01*
X3240499Y1467706D01*
X3238617Y1466919D01*
X3237224Y1465517D01*
X3235581Y1464419D01*
X3234447Y1462722D01*
X3233009Y1461275D01*
X3125022Y1298542D01*
X2990528D01*
X2427720Y1953292D01*
X2428940Y1962209D01*
X2434245Y1965754D01*
X2444744Y1981466D01*
X2448430Y2000000D01*
X2444744Y2018533D01*
X2434245Y2034245D01*
X2418533Y2044744D01*
X2400000Y2048430D01*
X2381466Y2044744D01*
X2365754Y2034245D01*
X2358512Y2033807D01*
X2136137Y2292509D01*
X2134235Y2293999D01*
X2132586Y2295767D01*
X2131131Y2296430D01*
X2129874Y2297415D01*
X2127545Y2298063D01*
X2125345Y2299066D01*
X2123749Y2299121D01*
X2122209Y2299550D01*
X2119809Y2299259D01*
X2117394Y2299343D01*
X2115526Y2299038D01*
X2112534Y2314083D01*
X2103141Y2328141D01*
X2089083Y2337534D01*
X2088767Y2337597D01*
X2082926Y2345251D01*
X2082758Y2346637D01*
X2082947Y2348018D01*
X2082282Y2350549D01*
X2081966Y2353149D01*
X2081281Y2354364D01*
X2080926Y2355714D01*
X2079342Y2357799D01*
X2078056Y2360078D01*
X1920392Y2543499D01*
X1920393Y3047263D01*
X2462456Y3589326D01*
X3438074D01*
X3439573Y3589624D01*
X3441100Y3589552D01*
X3443440Y3590393D01*
X3445878Y3590878D01*
X3447149Y3591728D01*
X3448587Y3592245D01*
X3450425Y3593917D01*
X3452494Y3595299D01*
X3453343Y3596570D01*
X3454473Y3597598D01*
X3486790Y3641323D01*
X3486895Y3641545D01*
X3487073Y3641716D01*
X3488591Y3645147D01*
X3490180Y3648521D01*
X3490282Y3648601D01*
X3500000Y3646668D01*
X3516583Y3649966D01*
X3529185Y3658387D01*
X3535000Y3659266D01*
X3540815Y3658387D01*
X3553417Y3649966D01*
X3570000Y3646668D01*
X3586583Y3649966D01*
X3599185Y3658387D01*
X3605000Y3659266D01*
X3610815Y3658387D01*
X3623417Y3649966D01*
X3640000Y3646668D01*
X3656583Y3649966D01*
X3670641Y3659359D01*
X3680034Y3673417D01*
X3683332Y3690000D01*
X3680034Y3706583D01*
X3670641Y3720641D01*
X3656583Y3730034D01*
X3640000Y3733332D01*
X3623417Y3730034D01*
X3610815Y3721613D01*
X3605000Y3720734D01*
X3599185Y3721613D01*
X3586583Y3730034D01*
X3570000Y3733332D01*
X3565291Y3732396D01*
X3560122Y3740544D01*
X3761398Y4012879D01*
X3762458Y4015128D01*
X3763839Y4017196D01*
X3764137Y4018695D01*
X3764789Y4020078D01*
X3764906Y4022562D01*
X3765391Y4025000D01*
Y4193194D01*
X3763839Y4200998D01*
X3759419Y4207614D01*
X3759418Y4207614D01*
X3607590Y4359441D01*
Y4489608D01*
X3799608D01*
Y4390000D01*
X3801160Y4382196D01*
X3805581Y4375581D01*
X3812196Y4371160D01*
X3820000Y4369608D01*
X4037991D01*
X4045795Y4371160D01*
X4052411Y4375581D01*
X4056831Y4382196D01*
X4058383Y4390000D01*
Y4489608D01*
X4355450D01*
Y4350995D01*
D02*
G37*
G36*
X4770474Y3167609D02*
X4765097Y3160392D01*
X4671364D01*
X4668400Y3164003D01*
X4664227Y3184982D01*
X4652343Y3202768D01*
X4634557Y3214652D01*
X4613578Y3218825D01*
X4592598Y3214652D01*
X4574812Y3202768D01*
X4562928Y3184982D01*
X4558755Y3164003D01*
X4555791Y3160392D01*
X4220000D01*
X4212196Y3158840D01*
X4205581Y3154419D01*
X4201160Y3147804D01*
X4199608Y3140000D01*
Y3101606D01*
X4190608Y3094220D01*
X4182500Y3095833D01*
X4165917Y3092534D01*
X4151859Y3083141D01*
X4142466Y3069083D01*
X4139167Y3052500D01*
X4142466Y3035917D01*
X4151859Y3021860D01*
X4165917Y3012466D01*
X4182500Y3009168D01*
X4190608Y3010780D01*
X4199608Y3003394D01*
Y2598285D01*
X4201160Y2590481D01*
X4205581Y2583866D01*
X4212196Y2579445D01*
X4220000Y2577893D01*
X4560170D01*
X4562928Y2564030D01*
X4574812Y2546244D01*
X4592598Y2534360D01*
X4613578Y2530187D01*
X4634557Y2534360D01*
X4652343Y2546244D01*
X4664227Y2564030D01*
X4666985Y2577893D01*
X4779608D01*
Y2499530D01*
X4779608Y2499529D01*
X4781160Y2491726D01*
X4785581Y2485110D01*
X4785581Y2485109D01*
X4816333Y2454358D01*
X4811899Y2446063D01*
X4800000Y2448430D01*
X4781466Y2444744D01*
X4765754Y2434245D01*
X4755256Y2418533D01*
X4751569Y2400000D01*
X4755256Y2381466D01*
X4765754Y2365754D01*
X4781466Y2355256D01*
X4800000Y2351569D01*
X4818533Y2355256D01*
X4834245Y2365754D01*
X4844743Y2381466D01*
X4848430Y2400000D01*
X4845883Y2412803D01*
X4850491Y2417145D01*
X4853940Y2418434D01*
X4855484Y2417402D01*
X4856147Y2417270D01*
X4856733Y2416931D01*
X4860030Y2416498D01*
X4863288Y2415849D01*
X4863951Y2415981D01*
X4864621Y2415893D01*
X4867831Y2416753D01*
X4871091Y2417402D01*
X4878335Y2412810D01*
X4880454Y2407695D01*
X4891674Y2393072D01*
X4906296Y2381852D01*
X4911411Y2379734D01*
X4916003Y2372490D01*
X4915354Y2369230D01*
X4914494Y2366020D01*
X4914583Y2365350D01*
X4914451Y2364687D01*
X4915099Y2361428D01*
X4915533Y2358132D01*
X4915871Y2357546D01*
X4916003Y2356883D01*
X4917848Y2354121D01*
X4919511Y2351241D01*
X4920048Y2350829D01*
X4920423Y2350267D01*
X4929608Y2341082D01*
Y2118013D01*
X4920608Y2111222D01*
X4910000Y2113332D01*
X4893417Y2110034D01*
X4879360Y2100640D01*
X4869966Y2086583D01*
X4866668Y2070000D01*
X4869966Y2053417D01*
X4879360Y2039359D01*
X4893417Y2029966D01*
X4910000Y2026668D01*
X4920608Y2028778D01*
X4929608Y2021987D01*
Y1596186D01*
X4928001Y1594019D01*
X4901972Y1591455D01*
X4855789Y1577446D01*
X4850761Y1574758D01*
X4846163Y1579831D01*
X4844806Y1581780D01*
X4848430Y1600000D01*
X4844743Y1618533D01*
X4834245Y1634245D01*
X4818533Y1644744D01*
X4800000Y1648430D01*
X4781466Y1644744D01*
X4765754Y1634245D01*
X4755256Y1618533D01*
X4751569Y1600000D01*
X4755256Y1581466D01*
X4765754Y1565754D01*
X4781466Y1555256D01*
X4796161Y1552333D01*
X4798795Y1542852D01*
X4775921Y1524080D01*
X4745304Y1486774D01*
X4736822Y1470904D01*
X4732532Y1468153D01*
X4725208Y1468268D01*
X4724352Y1468840D01*
X4723171Y1469075D01*
X4722097Y1469622D01*
X4719300Y1469844D01*
X4716548Y1470392D01*
X4390392D01*
Y1718401D01*
X4397349Y1724110D01*
X4397500Y1724080D01*
X4416034Y1727767D01*
X4431746Y1738265D01*
X4442244Y1753977D01*
X4445930Y1772511D01*
X4442244Y1791044D01*
X4431746Y1806756D01*
X4416034Y1817254D01*
X4397500Y1820941D01*
X4397349Y1820911D01*
X4390392Y1826620D01*
Y2226750D01*
X4390008Y2228680D01*
X4390016Y2230648D01*
X4389239Y2232545D01*
X4388840Y2234554D01*
X4387746Y2236190D01*
X4387000Y2238011D01*
X4385557Y2239466D01*
X4384419Y2241169D01*
X4382782Y2242263D01*
X4381397Y2243660D01*
X4272718Y2316906D01*
X4270829Y2317698D01*
X4269125Y2318836D01*
X4267195Y2319220D01*
X4265380Y2319981D01*
X4263331Y2319989D01*
X4261322Y2320389D01*
X4203892D01*
X4202479Y2320107D01*
X4201040Y2320188D01*
X4198611Y2319338D01*
X4196088Y2318836D01*
X4194890Y2318035D01*
X4193530Y2317559D01*
X3511903Y1915394D01*
X3042891D01*
X2770392Y2248395D01*
Y2329608D01*
X3789594D01*
X3791807Y2330048D01*
X3794064Y2330104D01*
X3795672Y2330817D01*
X3797398Y2331160D01*
X3799274Y2332414D01*
X3801337Y2333329D01*
X3859540Y2374329D01*
X3860151Y2374971D01*
X3860927Y2375398D01*
X3862874Y2377831D01*
X3865026Y2380092D01*
X3865345Y2380919D01*
X3865898Y2381610D01*
X3866766Y2384604D01*
X3867889Y2387515D01*
X3867867Y2388401D01*
X3868114Y2389252D01*
X3867770Y2392351D01*
X3867693Y2395469D01*
X3867931Y2402466D01*
X3881988Y2411859D01*
X3889947Y2411146D01*
X3892627Y2410112D01*
X3895176Y2408790D01*
X3896309Y2408692D01*
X3897370Y2408283D01*
X3900242Y2408354D01*
X3903103Y2408108D01*
X3904188Y2408451D01*
X3905325Y2408479D01*
X3907950Y2409643D01*
X3910688Y2410511D01*
X3911559Y2411243D01*
X3912598Y2411704D01*
X4017822Y2485827D01*
X4024374Y2479433D01*
X4022469Y2476583D01*
X4019171Y2460000D01*
X4022469Y2443417D01*
X4031863Y2429359D01*
X4045921Y2419966D01*
X4062503Y2416668D01*
X4079086Y2419966D01*
X4093144Y2429359D01*
X4102537Y2443417D01*
X4105836Y2460000D01*
X4102537Y2476583D01*
X4093144Y2490640D01*
X4079086Y2500034D01*
X4062503Y2503332D01*
X4056647Y2502167D01*
X4053022Y2510623D01*
X4066980Y2520455D01*
X4068193Y2521729D01*
X4069656Y2522707D01*
X4070910Y2524583D01*
X4072466Y2526218D01*
X4073099Y2527860D01*
X4074076Y2529322D01*
X4074516Y2531535D01*
X4075329Y2533642D01*
X4075285Y2535401D01*
X4075628Y2537126D01*
Y3001845D01*
X4074876Y3005627D01*
X4074158Y3009447D01*
X4074098Y3009540D01*
X4074076Y3009648D01*
X4071929Y3012862D01*
X4069809Y3016109D01*
X4069718Y3016172D01*
X4069656Y3016264D01*
X4066430Y3018419D01*
X4063241Y3020600D01*
X3704358Y3173755D01*
X3704249Y3173778D01*
X3704157Y3173839D01*
X3700364Y3174594D01*
X3696571Y3175391D01*
X3696462Y3175370D01*
X3696354Y3175392D01*
X3566060D01*
X3563097Y3174802D01*
X3560090Y3174498D01*
X3559223Y3174032D01*
X3558257Y3173839D01*
X3555743Y3172160D01*
X3553083Y3170729D01*
X3204674Y2883277D01*
X2750000D01*
X2742197Y2881725D01*
X2739805Y2880127D01*
X2737412Y2881725D01*
X2729608Y2883277D01*
X2585617D01*
X2577813Y2881725D01*
X2571198Y2877305D01*
X2566777Y2870689D01*
X2565225Y2862886D01*
Y2701926D01*
X2565540Y2700344D01*
X2565225Y2698761D01*
Y2672889D01*
X2540439D01*
X2538469Y2672498D01*
X2536533D01*
X2534563Y2672889D01*
X2341431D01*
X2086147Y2831330D01*
Y2949694D01*
X2526061Y3389608D01*
X3810000D01*
X3817804Y3391160D01*
X3820196Y3392759D01*
X3822588Y3391160D01*
X3830392Y3389608D01*
X4355001D01*
X4362804Y3391160D01*
X4369420Y3395581D01*
X4373840Y3402196D01*
X4375393Y3410000D01*
Y3549313D01*
X4384393Y3554674D01*
X4400000Y3551569D01*
X4418533Y3555256D01*
X4434245Y3565754D01*
X4444743Y3581466D01*
X4448430Y3600000D01*
X4444743Y3618533D01*
X4434245Y3634245D01*
X4418533Y3644744D01*
X4400000Y3648430D01*
X4384393Y3645326D01*
X4375393Y3650686D01*
Y4019608D01*
X4516060D01*
X4770474Y3167609D01*
D02*
G37*
G36*
X4800000Y2598285D02*
X4665760D01*
X4664227Y2605989D01*
X4652343Y2623775D01*
X4634557Y2635659D01*
X4613578Y2639832D01*
X4592598Y2635659D01*
X4574812Y2623775D01*
X4562928Y2605989D01*
X4561395Y2598285D01*
X4220000D01*
Y3031976D01*
X4225000Y3044046D01*
Y3060954D01*
X4220000Y3073024D01*
Y3140000D01*
X4564948D01*
X4574812Y3125237D01*
X4592598Y3113353D01*
X4613578Y3109180D01*
X4634557Y3113353D01*
X4652343Y3125237D01*
X4662207Y3140000D01*
X4800000D01*
Y2598285D01*
D02*
G37*
G36*
X4055236Y3001845D02*
Y2537126D01*
X3900855Y2428375D01*
X3896325Y2432000D01*
X3893848Y2434448D01*
Y2450953D01*
X3887378Y2466574D01*
X3875422Y2478529D01*
X3859802Y2484999D01*
X3842894D01*
X3827274Y2478529D01*
X3815318Y2466574D01*
X3808848Y2450953D01*
Y2434046D01*
X3815318Y2418425D01*
X3827274Y2406470D01*
X3842894Y2400000D01*
X3844945D01*
X3847797Y2391000D01*
X3789594Y2350000D01*
X2750000D01*
Y2369299D01*
X2754319Y2379727D01*
Y2396634D01*
X2750000Y2407061D01*
Y2862886D01*
X3212000D01*
X3566060Y3155000D01*
X3696354D01*
X4055236Y3001845D01*
D02*
G37*
G36*
X4718965Y4482379D02*
X4708545Y4448028D01*
X4703815Y4400000D01*
X4708545Y4351972D01*
X4722554Y4305789D01*
X4745304Y4263227D01*
X4775921Y4225921D01*
X4813227Y4195304D01*
X4855789Y4172555D01*
X4901972Y4158545D01*
X4950000Y4153815D01*
X4998028Y4158545D01*
X5044211Y4172555D01*
X5086773Y4195304D01*
X5124079Y4225921D01*
X5154696Y4263227D01*
X5177446Y4305789D01*
X5191000Y4350472D01*
X5200000Y4349137D01*
Y1400863D01*
X5191000Y1399528D01*
X5177446Y1444211D01*
X5154696Y1486774D01*
X5124079Y1524080D01*
X5086773Y1554696D01*
X5044211Y1577446D01*
X4998028Y1591455D01*
X4950000Y1596186D01*
Y2028831D01*
X4957937Y2033073D01*
X4962587Y2029966D01*
X4979170Y2026668D01*
X4995753Y2029966D01*
X5009811Y2039359D01*
X5019204Y2053417D01*
X5022503Y2070000D01*
X5019204Y2086583D01*
X5009811Y2100640D01*
X4995753Y2110034D01*
X4979170Y2113332D01*
X4962587Y2110034D01*
X4957937Y2106927D01*
X4950000Y2111169D01*
Y2349529D01*
X4934843Y2364687D01*
X4938823Y2372758D01*
X4941598Y2372393D01*
X5021598D01*
X5039872Y2374799D01*
X5056900Y2381852D01*
X5071522Y2393072D01*
X5082743Y2407695D01*
X5089796Y2424723D01*
X5092202Y2442997D01*
X5089796Y2461270D01*
X5082743Y2478299D01*
X5071522Y2492921D01*
X5056900Y2504142D01*
X5039872Y2511195D01*
X5021598Y2513601D01*
X4941598D01*
X4923325Y2511195D01*
X4906296Y2504142D01*
X4891674Y2492921D01*
X4880454Y2478299D01*
X4873400Y2461270D01*
X4870994Y2442997D01*
X4871360Y2440222D01*
X4863288Y2436241D01*
X4800000Y2499529D01*
Y2577893D01*
X4807804Y2579445D01*
X4814419Y2583866D01*
X4818840Y2590481D01*
X4820392Y2598285D01*
Y3140000D01*
X4818840Y3147804D01*
X4814419Y3154419D01*
X4807804Y3158840D01*
X4800000Y3160392D01*
X4793911D01*
X4531253Y4040000D01*
X4355001D01*
Y3617251D01*
X4351569Y3600000D01*
X4355001Y3582748D01*
Y3410000D01*
X3830392D01*
Y3773915D01*
X3988014Y3938308D01*
X3988500Y3939071D01*
X3989193Y3939652D01*
X3990626Y3942402D01*
X3992294Y3945015D01*
X3995523Y3948517D01*
X4000000Y3951569D01*
X4018533Y3955256D01*
X4034245Y3965754D01*
X4044743Y3981466D01*
X4048430Y4000000D01*
X4048302Y4000644D01*
X4052531Y4009224D01*
X4053511Y4009762D01*
X4054604Y4010003D01*
X4056973Y4011659D01*
X4059508Y4013048D01*
X4060209Y4013921D01*
X4061125Y4014561D01*
X4370169Y4336882D01*
X4372195Y4340057D01*
X4374289Y4343191D01*
X4374332Y4343405D01*
X4374449Y4343589D01*
X4375107Y4347300D01*
X4375842Y4350995D01*
Y4489608D01*
X4713604D01*
X4718965Y4482379D01*
D02*
G37*
%LPC*%
G36*
X2670000Y4273332D02*
X2653417Y4270034D01*
X2640815Y4261613D01*
X2635000Y4260734D01*
X2629185Y4261613D01*
X2616583Y4270034D01*
X2600000Y4273332D01*
X2583417Y4270034D01*
X2570815Y4261613D01*
X2565000Y4260734D01*
X2559185Y4261613D01*
X2546583Y4270034D01*
X2530000Y4273332D01*
X2513417Y4270034D01*
X2499359Y4260640D01*
X2489966Y4246583D01*
X2486668Y4230000D01*
X2489966Y4213417D01*
X2499359Y4199359D01*
X2513417Y4189966D01*
X2530000Y4186668D01*
X2546583Y4189966D01*
X2559185Y4198387D01*
X2565000Y4199266D01*
X2570815Y4198387D01*
X2583417Y4189966D01*
X2600000Y4186668D01*
X2616583Y4189966D01*
X2629185Y4198387D01*
X2635000Y4199266D01*
X2640815Y4198387D01*
X2653417Y4189966D01*
X2670000Y4186668D01*
X2686583Y4189966D01*
X2700641Y4199359D01*
X2710034Y4213417D01*
X2713332Y4230000D01*
X2710034Y4246583D01*
X2700641Y4260640D01*
X2686583Y4270034D01*
X2670000Y4273332D01*
D02*
G37*
G36*
X2800000Y4048430D02*
X2781466Y4044743D01*
X2765754Y4034245D01*
X2755256Y4018533D01*
X2751569Y4000000D01*
X2755256Y3981466D01*
X2765754Y3965754D01*
X2781466Y3955256D01*
X2800000Y3951569D01*
X2818533Y3955256D01*
X2834245Y3965754D01*
X2844744Y3981466D01*
X2848430Y4000000D01*
X2844744Y4018533D01*
X2834245Y4034245D01*
X2818533Y4044743D01*
X2800000Y4048430D01*
D02*
G37*
G36*
X2400000D02*
X2381466Y4044743D01*
X2365754Y4034245D01*
X2355256Y4018533D01*
X2351569Y4000000D01*
X2355256Y3981466D01*
X2365754Y3965754D01*
X2381466Y3955256D01*
X2400000Y3951569D01*
X2418533Y3955256D01*
X2434245Y3965754D01*
X2444744Y3981466D01*
X2448430Y4000000D01*
X2444744Y4018533D01*
X2434245Y4034245D01*
X2418533Y4044743D01*
X2400000Y4048430D01*
D02*
G37*
G36*
X2020000D02*
X2001466Y4044743D01*
X1985754Y4034245D01*
X1975256Y4018533D01*
X1971570Y4000000D01*
X1975256Y3981466D01*
X1985754Y3965754D01*
X2001466Y3955256D01*
X2020000Y3951569D01*
X2038534Y3955256D01*
X2054246Y3965754D01*
X2064744Y3981466D01*
X2068430Y4000000D01*
X2064744Y4018533D01*
X2054246Y4034245D01*
X2038534Y4044743D01*
X2020000Y4048430D01*
D02*
G37*
G36*
X2250000Y3808431D02*
X2231466Y3804744D01*
X2215755Y3794246D01*
X2205256Y3778534D01*
X2201570Y3760000D01*
X2205256Y3741466D01*
X2215755Y3725755D01*
X2231466Y3715256D01*
X2250000Y3711570D01*
X2268534Y3715256D01*
X2284246Y3725755D01*
X2294744Y3741466D01*
X2298431Y3760000D01*
X2294744Y3778534D01*
X2284246Y3794246D01*
X2268534Y3804744D01*
X2250000Y3808431D01*
D02*
G37*
G36*
X2570000Y3748430D02*
X2551466Y3744744D01*
X2535754Y3734246D01*
X2525256Y3718534D01*
X2521570Y3700000D01*
X2525256Y3681466D01*
X2535754Y3665754D01*
X2551466Y3655256D01*
X2570000Y3651570D01*
X2588534Y3655256D01*
X2604245Y3665754D01*
X2614744Y3681466D01*
X2618430Y3700000D01*
X2614744Y3718534D01*
X2604245Y3734246D01*
X2588534Y3744744D01*
X2570000Y3748430D01*
D02*
G37*
G36*
X2020000Y3308431D02*
X2001466Y3304744D01*
X1985754Y3294246D01*
X1975256Y3278534D01*
X1971570Y3260000D01*
X1975256Y3241466D01*
X1985754Y3225755D01*
X2001466Y3215256D01*
X2020000Y3211570D01*
X2038534Y3215256D01*
X2054246Y3225755D01*
X2064744Y3241466D01*
X2068430Y3260000D01*
X2064744Y3278534D01*
X2054246Y3294246D01*
X2038534Y3304744D01*
X2020000Y3308431D01*
D02*
G37*
G36*
X1814999Y3181593D02*
X1797699Y3179315D01*
X1781578Y3172638D01*
X1767734Y3162015D01*
X1757112Y3148172D01*
X1750434Y3132050D01*
X1748157Y3114750D01*
X1750434Y3097450D01*
X1757112Y3081329D01*
X1767734Y3067485D01*
X1781578Y3056863D01*
X1797699Y3050185D01*
X1814999Y3047907D01*
X1832300Y3050185D01*
X1848421Y3056863D01*
X1862264Y3067485D01*
X1872887Y3081329D01*
X1879565Y3097450D01*
X1881842Y3114750D01*
X1879565Y3132050D01*
X1872887Y3148172D01*
X1862264Y3162015D01*
X1848421Y3172638D01*
X1832300Y3179315D01*
X1814999Y3181593D01*
D02*
G37*
G36*
X1840000Y3013332D02*
X1823417Y3010034D01*
X1809359Y3000640D01*
X1799966Y2986583D01*
X1796667Y2970000D01*
X1799966Y2953417D01*
X1809359Y2939359D01*
X1823417Y2929966D01*
X1840000Y2926668D01*
X1856583Y2929966D01*
X1870640Y2939359D01*
X1880034Y2953417D01*
X1883332Y2970000D01*
X1880034Y2986583D01*
X1870640Y3000640D01*
X1856583Y3010034D01*
X1840000Y3013332D01*
D02*
G37*
G36*
X1814999Y2881594D02*
X1797699Y2879316D01*
X1781578Y2872638D01*
X1767734Y2862016D01*
X1757112Y2848172D01*
X1750434Y2832051D01*
X1748157Y2814751D01*
X1750434Y2797451D01*
X1757112Y2781329D01*
X1767734Y2767486D01*
X1781578Y2756863D01*
X1797699Y2750186D01*
X1814999Y2747908D01*
X1832300Y2750186D01*
X1848421Y2756863D01*
X1862264Y2767486D01*
X1872887Y2781329D01*
X1879565Y2797451D01*
X1881842Y2814751D01*
X1879565Y2832051D01*
X1872887Y2848172D01*
X1862264Y2862016D01*
X1848421Y2872638D01*
X1832300Y2879316D01*
X1814999Y2881594D01*
D02*
G37*
G36*
X1795000Y2274455D02*
X1773044Y2270088D01*
X1754431Y2257651D01*
X1741994Y2239038D01*
X1737627Y2217082D01*
X1741994Y2195126D01*
X1754431Y2176513D01*
X1773044Y2164075D01*
X1795000Y2159708D01*
X1816956Y2164075D01*
X1835569Y2176513D01*
X1848006Y2195126D01*
X1852374Y2217082D01*
X1848006Y2239038D01*
X1835569Y2257651D01*
X1816956Y2270088D01*
X1795000Y2274455D01*
D02*
G37*
G36*
Y2104453D02*
X1773044Y2100086D01*
X1754431Y2087649D01*
X1741994Y2069035D01*
X1737627Y2047079D01*
X1741994Y2025123D01*
X1754431Y2006510D01*
X1773044Y1994073D01*
X1795000Y1989706D01*
X1816956Y1994073D01*
X1835569Y2006510D01*
X1848006Y2025123D01*
X1852374Y2047079D01*
X1848006Y2069035D01*
X1835569Y2087649D01*
X1816956Y2100086D01*
X1795000Y2104453D01*
D02*
G37*
G36*
X2400000Y1648430D02*
X2381466Y1644744D01*
X2365754Y1634245D01*
X2355256Y1618533D01*
X2351569Y1600000D01*
X2355256Y1581466D01*
X2365754Y1565754D01*
X2381466Y1555256D01*
X2400000Y1551569D01*
X2418533Y1555256D01*
X2434245Y1565754D01*
X2444744Y1581466D01*
X2448430Y1600000D01*
X2444744Y1618533D01*
X2434245Y1634245D01*
X2418533Y1644744D01*
X2400000Y1648430D01*
D02*
G37*
G36*
X3550000Y1413332D02*
X3533417Y1410034D01*
X3519359Y1400641D01*
X3509966Y1386583D01*
X3506668Y1370000D01*
X3509966Y1353417D01*
X3519359Y1339360D01*
X3533417Y1329966D01*
X3550000Y1326668D01*
X3566583Y1329966D01*
X3580641Y1339360D01*
X3590034Y1353417D01*
X3593332Y1370000D01*
X3590034Y1386583D01*
X3580641Y1400641D01*
X3566583Y1410034D01*
X3550000Y1413332D01*
D02*
G37*
G36*
X4400000Y1248430D02*
X4381466Y1244744D01*
X4365754Y1234245D01*
X4355256Y1218534D01*
X4351569Y1200000D01*
X4355256Y1181466D01*
X4365754Y1165754D01*
X4381466Y1155256D01*
X4400000Y1151569D01*
X4418533Y1155256D01*
X4434245Y1165754D01*
X4444743Y1181466D01*
X4448430Y1200000D01*
X4444743Y1218534D01*
X4434245Y1234245D01*
X4418533Y1244744D01*
X4400000Y1248430D01*
D02*
G37*
G36*
X2400000D02*
X2381466Y1244744D01*
X2365754Y1234245D01*
X2355256Y1218534D01*
X2351569Y1200000D01*
X2355256Y1181466D01*
X2365754Y1165754D01*
X2381466Y1155256D01*
X2400000Y1151569D01*
X2418533Y1155256D01*
X2434245Y1165754D01*
X2444744Y1181466D01*
X2448430Y1200000D01*
X2444744Y1218534D01*
X2434245Y1234245D01*
X2418533Y1244744D01*
X2400000Y1248430D01*
D02*
G37*
G36*
X2800000Y3548431D02*
X2781467Y3544744D01*
X2765755Y3534246D01*
X2755257Y3518534D01*
X2751570Y3500001D01*
X2755257Y3481467D01*
X2765755Y3465755D01*
X2781467Y3455257D01*
X2800000Y3451570D01*
X2818534Y3455257D01*
X2834246Y3465755D01*
X2844744Y3481467D01*
X2848431Y3500001D01*
X2844744Y3518534D01*
X2834246Y3534246D01*
X2818534Y3544744D01*
X2800000Y3548431D01*
D02*
G37*
G36*
X2065137Y2778309D02*
X2046603Y2774623D01*
X2030891Y2764124D01*
X2020393Y2748412D01*
X2016706Y2729879D01*
X2020393Y2711345D01*
X2030891Y2695633D01*
X2046603Y2685135D01*
X2065137Y2681448D01*
X2083670Y2685135D01*
X2099382Y2695633D01*
X2109881Y2711345D01*
X2113567Y2729879D01*
X2109881Y2748412D01*
X2099382Y2764124D01*
X2083670Y2774623D01*
X2065137Y2778309D01*
D02*
G37*
G36*
X2120000Y2518430D02*
X2101466Y2514744D01*
X2085755Y2504245D01*
X2075256Y2488534D01*
X2071570Y2470000D01*
X2075256Y2451466D01*
X2085755Y2435754D01*
X2101466Y2425256D01*
X2120000Y2421569D01*
X2138534Y2425256D01*
X2154246Y2435754D01*
X2164744Y2451466D01*
X2168431Y2470000D01*
X2164744Y2488534D01*
X2154246Y2504245D01*
X2138534Y2514744D01*
X2120000Y2518430D01*
D02*
G37*
G36*
X3745000Y1820941D02*
X3726466Y1817254D01*
X3710754Y1806756D01*
X3700256Y1791044D01*
X3696569Y1772511D01*
X3700256Y1753977D01*
X3710754Y1738265D01*
X3726466Y1727767D01*
X3745000Y1724080D01*
X3763533Y1727767D01*
X3779245Y1738265D01*
X3789744Y1753977D01*
X3793430Y1772511D01*
X3789744Y1791044D01*
X3779245Y1806756D01*
X3763533Y1817254D01*
X3745000Y1820941D01*
D02*
G37*
G36*
X3253837D02*
X3235303Y1817254D01*
X3219591Y1806756D01*
X3209093Y1791044D01*
X3205407Y1772511D01*
X3209093Y1753977D01*
X3219591Y1738265D01*
X3235303Y1727767D01*
X3253837Y1724080D01*
X3272371Y1727767D01*
X3288083Y1738265D01*
X3298581Y1753977D01*
X3302267Y1772511D01*
X3298581Y1791044D01*
X3288083Y1806756D01*
X3272371Y1817254D01*
X3253837Y1820941D01*
D02*
G37*
G36*
X4618590Y3377607D02*
X4508590D01*
X4490317Y3375201D01*
X4473288Y3368148D01*
X4458666Y3356928D01*
X4447446Y3342305D01*
X4440392Y3325277D01*
X4437987Y3307003D01*
X4440392Y3288730D01*
X4447446Y3271701D01*
X4458666Y3257079D01*
X4473288Y3245859D01*
X4490317Y3238805D01*
X4508590Y3236399D01*
X4618590D01*
X4636864Y3238805D01*
X4653892Y3245859D01*
X4668515Y3257079D01*
X4679735Y3271701D01*
X4686788Y3288730D01*
X4689194Y3307003D01*
X4686788Y3325277D01*
X4679735Y3342305D01*
X4668515Y3356928D01*
X4653892Y3368148D01*
X4636864Y3375201D01*
X4618590Y3377607D01*
D02*
G37*
G36*
X4400000Y3268430D02*
X4381466Y3264744D01*
X4365754Y3254245D01*
X4355256Y3238534D01*
X4351569Y3220000D01*
X4355256Y3201466D01*
X4365754Y3185754D01*
X4381466Y3175256D01*
X4400000Y3171569D01*
X4418533Y3175256D01*
X4434245Y3185754D01*
X4444743Y3201466D01*
X4448430Y3220000D01*
X4444743Y3238534D01*
X4434245Y3254245D01*
X4418533Y3264744D01*
X4400000Y3268430D01*
D02*
G37*
G36*
X4030000D02*
X4011466Y3264744D01*
X3995755Y3254245D01*
X3985256Y3238534D01*
X3981570Y3220000D01*
X3985256Y3201466D01*
X3995755Y3185754D01*
X4011466Y3175256D01*
X4030000Y3171569D01*
X4048534Y3175256D01*
X4064246Y3185754D01*
X4074744Y3201466D01*
X4078431Y3220000D01*
X4074744Y3238534D01*
X4064246Y3254245D01*
X4048534Y3264744D01*
X4030000Y3268430D01*
D02*
G37*
G36*
X3105002Y3243332D02*
X3088420Y3240034D01*
X3074362Y3230640D01*
X3064968Y3216583D01*
X3061670Y3200000D01*
X3064968Y3183417D01*
X3074362Y3169359D01*
X3088420Y3159966D01*
X3105002Y3156668D01*
X3121585Y3159966D01*
X3135643Y3169359D01*
X3145036Y3183417D01*
X3148335Y3200000D01*
X3145036Y3216583D01*
X3135643Y3230640D01*
X3121585Y3240034D01*
X3105002Y3243332D01*
D02*
G37*
G36*
X3217448Y3240780D02*
X3200865Y3237482D01*
X3186807Y3228089D01*
X3177414Y3214031D01*
X3174116Y3197448D01*
X3177414Y3180865D01*
X3186807Y3166807D01*
X3200865Y3157414D01*
X3217448Y3154116D01*
X3234031Y3157414D01*
X3248089Y3166807D01*
X3257482Y3180865D01*
X3260780Y3197448D01*
X3257482Y3214031D01*
X3248089Y3228089D01*
X3234031Y3237482D01*
X3217448Y3240780D01*
D02*
G37*
G36*
X2502500Y3228430D02*
X2483966Y3224744D01*
X2468254Y3214246D01*
X2457756Y3198534D01*
X2454070Y3180000D01*
X2457756Y3161466D01*
X2468254Y3145754D01*
X2483966Y3135256D01*
X2502500Y3131570D01*
X2521034Y3135256D01*
X2536745Y3145754D01*
X2547244Y3161466D01*
X2550930Y3180000D01*
X2547244Y3198534D01*
X2536745Y3214246D01*
X2521034Y3224744D01*
X2502500Y3228430D01*
D02*
G37*
G36*
X3151248Y3055119D02*
X3132714Y3051432D01*
X3117002Y3040934D01*
X3106504Y3025222D01*
X3102818Y3006688D01*
X3106504Y2988155D01*
X3117002Y2972443D01*
X3132714Y2961945D01*
X3151248Y2958258D01*
X3169782Y2961945D01*
X3185494Y2972443D01*
X3195992Y2988155D01*
X3199678Y3006688D01*
X3195992Y3025222D01*
X3185494Y3040934D01*
X3169782Y3051432D01*
X3151248Y3055119D01*
D02*
G37*
G36*
X2870000Y2993332D02*
X2853417Y2990034D01*
X2839360Y2980640D01*
X2829966Y2966583D01*
X2826668Y2950000D01*
X2829966Y2933417D01*
X2839360Y2919359D01*
X2853417Y2909966D01*
X2870000Y2906668D01*
X2886583Y2909966D01*
X2900641Y2919359D01*
X2910034Y2933417D01*
X2913333Y2950000D01*
X2910034Y2966583D01*
X2900641Y2980640D01*
X2886583Y2990034D01*
X2870000Y2993332D01*
D02*
G37*
G36*
X4618590Y2513601D02*
X4508590D01*
X4490317Y2511195D01*
X4473288Y2504142D01*
X4458666Y2492921D01*
X4447446Y2478299D01*
X4440392Y2461270D01*
X4437987Y2442997D01*
X4440392Y2424723D01*
X4447446Y2407695D01*
X4458666Y2393072D01*
X4473288Y2381852D01*
X4490317Y2374799D01*
X4508590Y2372393D01*
X4618590D01*
X4636864Y2374799D01*
X4653892Y2381852D01*
X4668515Y2393072D01*
X4679735Y2407695D01*
X4686788Y2424723D01*
X4689194Y2442997D01*
X4686788Y2461270D01*
X4679735Y2478299D01*
X4668515Y2492921D01*
X4653892Y2504142D01*
X4636864Y2511195D01*
X4618590Y2513601D01*
D02*
G37*
G36*
X3175000Y2193332D02*
X3158417Y2190034D01*
X3144359Y2180641D01*
X3134966Y2166583D01*
X3131668Y2150000D01*
X3134966Y2133417D01*
X3144359Y2119359D01*
X3158417Y2109966D01*
X3175000Y2106668D01*
X3191583Y2109966D01*
X3205641Y2119359D01*
X3215034Y2133417D01*
X3218332Y2150000D01*
X3215034Y2166583D01*
X3205641Y2180641D01*
X3191583Y2190034D01*
X3175000Y2193332D01*
D02*
G37*
G36*
X3075000D02*
X3058417Y2190034D01*
X3044359Y2180641D01*
X3034966Y2166583D01*
X3031668Y2150000D01*
X3034966Y2133417D01*
X3044359Y2119359D01*
X3058417Y2109966D01*
X3075000Y2106668D01*
X3091583Y2109966D01*
X3105640Y2119359D01*
X3115034Y2133417D01*
X3118332Y2150000D01*
X3115034Y2166583D01*
X3105640Y2180641D01*
X3091583Y2190034D01*
X3075000Y2193332D01*
D02*
G37*
G36*
X4648454Y3052500D02*
X4631546D01*
X4615926Y3046030D01*
X4603970Y3034074D01*
X4597500Y3018454D01*
Y3001546D01*
X4603970Y2985926D01*
X4615926Y2973970D01*
X4631546Y2967500D01*
X4648454D01*
X4664074Y2973970D01*
X4676030Y2985926D01*
X4682500Y3001546D01*
Y3018454D01*
X4676030Y3034074D01*
X4664074Y3046030D01*
X4648454Y3052500D01*
D02*
G37*
G36*
X4608546Y2942497D02*
X4591639D01*
X4576018Y2936026D01*
X4564062Y2924071D01*
X4557592Y2908450D01*
Y2891543D01*
X4564062Y2875923D01*
X4576018Y2863967D01*
X4591639Y2857497D01*
X4608546D01*
X4624166Y2863967D01*
X4636122Y2875923D01*
X4642592Y2891543D01*
Y2908450D01*
X4636122Y2924071D01*
X4624166Y2936026D01*
X4608546Y2942497D01*
D02*
G37*
G36*
X4608549Y2842503D02*
X4591642D01*
X4576021Y2836033D01*
X4564066Y2824077D01*
X4557596Y2808457D01*
Y2791550D01*
X4564066Y2775929D01*
X4576021Y2763974D01*
X4591642Y2757504D01*
X4593149D01*
X4598149Y2750020D01*
X4597500Y2748454D01*
Y2731546D01*
X4603970Y2715926D01*
X4615926Y2703970D01*
X4631546Y2697500D01*
X4648454D01*
X4664074Y2703970D01*
X4676030Y2715926D01*
X4682500Y2731546D01*
Y2748454D01*
X4676030Y2764074D01*
X4664074Y2776030D01*
X4648454Y2782500D01*
X4646947D01*
X4641946Y2789983D01*
X4642595Y2791550D01*
Y2808457D01*
X4636125Y2824077D01*
X4624170Y2836033D01*
X4608549Y2842503D01*
D02*
G37*
G36*
X3014395Y2788441D02*
X2997488D01*
X2981867Y2781971D01*
X2969912Y2770015D01*
X2963441Y2754395D01*
Y2737488D01*
X2969912Y2721867D01*
X2981867Y2709912D01*
X2997488Y2703441D01*
X3014395D01*
X3030015Y2709912D01*
X3041971Y2721867D01*
X3048441Y2737488D01*
Y2754395D01*
X3041971Y2770015D01*
X3030015Y2781971D01*
X3014395Y2788441D01*
D02*
G37*
G36*
X3365644Y2745309D02*
X3348737D01*
X3333116Y2738839D01*
X3321160Y2726884D01*
X3314690Y2711263D01*
Y2694356D01*
X3321160Y2678736D01*
X3333116Y2666780D01*
X3348737Y2660310D01*
X3365644D01*
X3381264Y2666780D01*
X3393220Y2678736D01*
X3399690Y2694356D01*
Y2711263D01*
X3393220Y2726884D01*
X3381264Y2738839D01*
X3365644Y2745309D01*
D02*
G37*
G36*
X3643453Y2672500D02*
X3626546D01*
X3610926Y2666030D01*
X3602500Y2657604D01*
X3594074Y2666030D01*
X3578454Y2672500D01*
X3561546D01*
X3545926Y2666030D01*
X3537500Y2657604D01*
X3529074Y2666030D01*
X3513453Y2672500D01*
X3496546D01*
X3480926Y2666030D01*
X3472500Y2657604D01*
X3464074Y2666030D01*
X3448454Y2672500D01*
X3431546D01*
X3415926Y2666030D01*
X3403970Y2654074D01*
X3397500Y2638454D01*
Y2621546D01*
X3403970Y2605926D01*
X3415926Y2593970D01*
X3431546Y2587500D01*
X3448454D01*
X3464074Y2593970D01*
X3472500Y2602396D01*
X3480926Y2593970D01*
X3496546Y2587500D01*
X3513453D01*
X3529074Y2593970D01*
X3537500Y2602396D01*
X3545926Y2593970D01*
X3561546Y2587500D01*
X3578454D01*
X3594074Y2593970D01*
X3602500Y2602396D01*
X3610926Y2593970D01*
X3626546Y2587500D01*
X3643453D01*
X3659074Y2593970D01*
X3671029Y2605926D01*
X3677500Y2621546D01*
Y2638454D01*
X3671029Y2654074D01*
X3659074Y2666030D01*
X3643453Y2672500D01*
D02*
G37*
G36*
X3148454Y2592500D02*
X3131546D01*
X3115926Y2586030D01*
X3105244Y2575347D01*
X3100000Y2574623D01*
X3094756Y2575347D01*
X3084074Y2586030D01*
X3068454Y2592500D01*
X3051546D01*
X3035926Y2586030D01*
X3023970Y2574074D01*
X3017500Y2558454D01*
Y2541546D01*
X3023970Y2525926D01*
X3034653Y2515244D01*
X3035377Y2510000D01*
X3034653Y2504756D01*
X3023970Y2494074D01*
X3017500Y2478454D01*
Y2461546D01*
X3023970Y2445926D01*
X3035926Y2433970D01*
X3051546Y2427500D01*
X3068454D01*
X3084074Y2433970D01*
X3094756Y2444652D01*
X3100000Y2445377D01*
X3105244Y2444652D01*
X3115926Y2433970D01*
X3131546Y2427500D01*
X3148454D01*
X3164074Y2433970D01*
X3176030Y2445926D01*
X3182500Y2461546D01*
Y2478454D01*
X3176030Y2494074D01*
X3165347Y2504756D01*
X3164623Y2510000D01*
X3165347Y2515244D01*
X3176030Y2525926D01*
X3182500Y2541546D01*
Y2558454D01*
X3176030Y2574074D01*
X3164074Y2586030D01*
X3148454Y2592500D01*
D02*
G37*
G36*
X3204448Y2697500D02*
X3185552D01*
X3168093Y2690268D01*
X3154732Y2676907D01*
X3147500Y2659448D01*
Y2640552D01*
X3154732Y2623094D01*
X3168093Y2609732D01*
X3185552Y2602500D01*
X3204448D01*
X3207500Y2600461D01*
Y2591546D01*
X3213970Y2575926D01*
X3225926Y2563970D01*
X3241546Y2557500D01*
X3258454D01*
X3274074Y2563970D01*
X3286030Y2575926D01*
X3292500Y2591546D01*
Y2608454D01*
X3286030Y2624074D01*
X3274074Y2636030D01*
X3258454Y2642500D01*
X3242500D01*
Y2659448D01*
X3235268Y2676907D01*
X3221906Y2690268D01*
X3204448Y2697500D01*
D02*
G37*
G36*
X3475276Y2514324D02*
X3456379D01*
X3438921Y2507093D01*
X3425559Y2493731D01*
X3418328Y2476272D01*
Y2457376D01*
X3425559Y2439918D01*
X3438921Y2426556D01*
X3456379Y2419324D01*
X3475276D01*
X3492734Y2426556D01*
X3506096Y2439918D01*
X3513327Y2457376D01*
Y2476272D01*
X3506096Y2493731D01*
X3492734Y2507093D01*
X3475276Y2514324D01*
D02*
G37*
G36*
X4242296Y3953332D02*
X4225713Y3950034D01*
X4211656Y3940641D01*
X4207936D01*
X4193879Y3950034D01*
X4177296Y3953332D01*
X4160713Y3950034D01*
X4146656Y3940641D01*
X4142936D01*
X4128879Y3950034D01*
X4112296Y3953332D01*
X4095713Y3950034D01*
X4081656Y3940641D01*
X4072262Y3926583D01*
X4068964Y3910000D01*
X4072262Y3893417D01*
X4081656Y3879360D01*
X4095713Y3869966D01*
X4112296Y3866668D01*
X4128879Y3869966D01*
X4142936Y3879360D01*
X4146656D01*
X4160713Y3869966D01*
X4177296Y3866668D01*
X4193879Y3869966D01*
X4207936Y3879360D01*
X4211656D01*
X4225713Y3869966D01*
X4242296Y3866668D01*
X4258878Y3869966D01*
X4272936Y3879360D01*
X4282330Y3893417D01*
X4285628Y3910000D01*
X4282330Y3926583D01*
X4272936Y3940641D01*
X4258878Y3950034D01*
X4242296Y3953332D01*
D02*
G37*
G36*
X4754790Y3999860D02*
X4738207Y3996561D01*
X4724149Y3987168D01*
X4714756Y3973110D01*
X4711457Y3956528D01*
X4714756Y3939945D01*
X4724149Y3925887D01*
X4738207Y3916494D01*
X4754790Y3913195D01*
X4771372Y3916494D01*
X4785430Y3925887D01*
X4794824Y3939945D01*
X4798122Y3956528D01*
X4794824Y3973110D01*
X4785430Y3987168D01*
X4771372Y3996561D01*
X4754790Y3999860D01*
D02*
G37*
G36*
X4854789Y3886732D02*
X4838207Y3883434D01*
X4824149Y3874041D01*
X4814755Y3859983D01*
X4811457Y3843400D01*
X4814755Y3826817D01*
X4824149Y3812759D01*
X4838207Y3803366D01*
X4854789Y3800068D01*
X4871372Y3803366D01*
X4885430Y3812759D01*
X4894823Y3826817D01*
X4898122Y3843400D01*
X4894823Y3859983D01*
X4885430Y3874041D01*
X4871372Y3883434D01*
X4854789Y3886732D01*
D02*
G37*
G36*
X4160000Y3793333D02*
X4143417Y3790034D01*
X4129360Y3780641D01*
X4119966Y3766583D01*
X4116668Y3750000D01*
X4119966Y3733417D01*
X4129360Y3719360D01*
X4143417Y3709966D01*
X4160000Y3706668D01*
X4176583Y3709966D01*
X4190641Y3719360D01*
X4200034Y3733417D01*
X4203332Y3750000D01*
X4200034Y3766583D01*
X4190641Y3780641D01*
X4176583Y3790034D01*
X4160000Y3793333D01*
D02*
G37*
G36*
X4857571Y3760752D02*
X4840989Y3757453D01*
X4826931Y3748060D01*
X4817537Y3734002D01*
X4814239Y3717419D01*
X4817537Y3700837D01*
X4826931Y3686779D01*
X4840989Y3677385D01*
X4857571Y3674087D01*
X4874154Y3677385D01*
X4888212Y3686779D01*
X4897605Y3700837D01*
X4900904Y3717419D01*
X4897605Y3734002D01*
X4888212Y3748060D01*
X4874154Y3757453D01*
X4857571Y3760752D01*
D02*
G37*
G36*
X4754790Y3745860D02*
X4738207Y3742561D01*
X4724149Y3733168D01*
X4714756Y3719110D01*
X4711457Y3702528D01*
X4714756Y3685945D01*
X4724149Y3671887D01*
X4738207Y3662494D01*
X4754790Y3659195D01*
X4771372Y3662494D01*
X4785430Y3671887D01*
X4794824Y3685945D01*
X4798122Y3702528D01*
X4794824Y3719110D01*
X4785430Y3733168D01*
X4771372Y3742561D01*
X4754790Y3745860D01*
D02*
G37*
G36*
X3933331Y3663093D02*
X3914798Y3659406D01*
X3899086Y3648908D01*
X3888587Y3633196D01*
X3884901Y3614663D01*
X3888587Y3596129D01*
X3899086Y3580417D01*
X3914798Y3569919D01*
X3933331Y3566232D01*
X3951865Y3569919D01*
X3967577Y3580417D01*
X3978075Y3596129D01*
X3981762Y3614663D01*
X3978075Y3633196D01*
X3967577Y3648908D01*
X3951865Y3659406D01*
X3933331Y3663093D01*
D02*
G37*
G36*
X4810000Y3423332D02*
X4793417Y3420034D01*
X4779360Y3410641D01*
X4769966Y3396583D01*
X4766668Y3380000D01*
X4769966Y3363417D01*
X4779360Y3349360D01*
X4793417Y3339966D01*
X4810000Y3336668D01*
X4826583Y3339966D01*
X4840641Y3349360D01*
X4850034Y3363417D01*
X4853332Y3380000D01*
X4850034Y3396583D01*
X4840641Y3410641D01*
X4826583Y3420034D01*
X4810000Y3423332D01*
D02*
G37*
G36*
X5021598Y3377607D02*
X4941598D01*
X4923325Y3375201D01*
X4906296Y3368148D01*
X4891674Y3356928D01*
X4880454Y3342305D01*
X4873400Y3325277D01*
X4870994Y3307003D01*
X4873400Y3288730D01*
X4880454Y3271701D01*
X4891674Y3257079D01*
X4906296Y3245859D01*
X4923325Y3238805D01*
X4941598Y3236399D01*
X5021598D01*
X5039872Y3238805D01*
X5056900Y3245859D01*
X5071522Y3257079D01*
X5082743Y3271701D01*
X5089796Y3288730D01*
X5092202Y3307003D01*
X5089796Y3325277D01*
X5082743Y3342305D01*
X5071522Y3356928D01*
X5056900Y3368148D01*
X5039872Y3375201D01*
X5021598Y3377607D01*
D02*
G37*
%LPD*%
D40*
X4563590Y3307003D02*
D03*
Y2442997D02*
D03*
D41*
X4981598Y3307003D02*
D03*
Y2442997D02*
D03*
D42*
X1900000Y4400000D02*
D03*
Y1350000D02*
D03*
X4950000D02*
D03*
Y4400000D02*
D03*
D43*
X2800000Y3500001D02*
D03*
X2630000Y2710000D02*
D03*
Y2810000D02*
D03*
X2065137Y2729879D02*
D03*
X2130000Y2630000D02*
D03*
X3253837Y1772511D02*
D03*
X3933331Y3614663D02*
D03*
X4440000Y3960000D02*
D03*
X2570000Y3700000D02*
D03*
X2020000Y3260000D02*
D03*
X4800000Y2400000D02*
D03*
Y1600000D02*
D03*
X4400000Y3600000D02*
D03*
Y1200000D02*
D03*
X4000000Y4000000D02*
D03*
X2800000D02*
D03*
X2400000D02*
D03*
Y2000000D02*
D03*
Y1600000D02*
D03*
Y1200000D02*
D03*
X2020000Y4000000D02*
D03*
X4397500Y1772511D02*
D03*
X2250000Y3760000D02*
D03*
X4400000Y3220000D02*
D03*
X4030000D02*
D03*
X3745000Y1772511D02*
D03*
X2502500Y3180000D02*
D03*
X3151248Y3006688D02*
D03*
X3195000Y2650000D02*
D03*
X3465827Y2466824D02*
D03*
X2120000Y2470000D02*
D03*
X3709872Y4060000D02*
D03*
X3650000D02*
D03*
X3950000Y4530000D02*
D03*
Y4460000D02*
D03*
X3150000Y3680000D02*
D03*
X3010000D02*
D03*
X3290000Y1360000D02*
D03*
X2537501Y2700344D02*
D03*
X3030000Y1700000D02*
D03*
X3040000Y1360000D02*
D03*
X3250000Y1530000D02*
D03*
X4085000Y1882500D02*
D03*
X4530000Y1630000D02*
D03*
X2119349Y2915487D02*
D03*
X3680000Y4435000D02*
D03*
X2595128Y2434872D02*
D03*
X4242423Y2209726D02*
D03*
X3935697Y4208536D02*
D03*
X4310000Y3600000D02*
D03*
X4115005Y3590000D02*
D03*
X4690000Y3070000D02*
D03*
Y2680000D02*
D03*
X4210000Y3490000D02*
D03*
X5027701Y2270000D02*
D03*
X4872299D02*
D03*
X2610000Y3330000D02*
D03*
X2870000Y3270000D02*
D03*
X4038000Y2259584D02*
D03*
X4270000Y2797263D02*
D03*
X2835004Y2472396D02*
D03*
X3620000Y3070000D02*
D03*
X3769999Y3310000D02*
D03*
X3811438Y3201433D02*
D03*
X3992298Y2817614D02*
D03*
X3080000Y2030000D02*
D03*
X3750000Y2200000D02*
D03*
D44*
X4160000Y3750000D02*
D03*
X4182500Y3052500D02*
D03*
X3217448Y3197448D02*
D03*
X3357190Y2702810D02*
D03*
X3550000Y1370000D02*
D03*
X1840000Y2970000D02*
D03*
X3250000Y2600000D02*
D03*
X4112296Y3910000D02*
D03*
X4242296D02*
D03*
X4177296D02*
D03*
X3500000Y3690000D02*
D03*
X3640000D02*
D03*
X3570000D02*
D03*
X4979170Y2070000D02*
D03*
X4910000D02*
D03*
X4854789Y3843400D02*
D03*
X4857571Y3717419D02*
D03*
X4754790Y3956528D02*
D03*
Y3702528D02*
D03*
X4640000Y2740000D02*
D03*
Y3010000D02*
D03*
X4600092Y2899997D02*
D03*
X4600095Y2800003D02*
D03*
X4062503Y2460000D02*
D03*
X3851348Y2442500D02*
D03*
X3005941Y2745941D02*
D03*
X3140000Y2470000D02*
D03*
Y2550000D02*
D03*
X3060000D02*
D03*
Y2470000D02*
D03*
X3105002Y3200000D02*
D03*
X3635000Y2630000D02*
D03*
X3570000D02*
D03*
X3505000D02*
D03*
X3440000D02*
D03*
X2870000Y2950000D02*
D03*
X2530000Y4230000D02*
D03*
X2670000D02*
D03*
X2600000D02*
D03*
X2072500Y2297500D02*
D03*
X3075000Y2150000D02*
D03*
X2711820Y2388180D02*
D03*
X3175000Y2150000D02*
D03*
X4810000Y3380000D02*
D03*
%TF.MD5,b2b59051b1ac81f0a336de6e785b95ac*%
M02*
