%TF.GenerationSoftware,Altium Limited,Altium Designer,25.6.2 (33)*%
G04 Layer_Color=16711935*
%FSLAX45Y45*%
%MOMM*%
%TF.SameCoordinates,DF3DBB3C-48A9-464C-9951-F34C30E37C37*%
%TF.FilePolarity,Negative*%
%TF.FileFunction,Soldermask,Bot*%
%TF.Part,Single*%
G01*
G75*
%TA.AperFunction,SMDPad,CuDef*%
%ADD51R,1.80000X1.40000*%
%ADD83R,1.70320X2.20320*%
%ADD85R,1.20320X1.10320*%
%ADD86R,1.10320X1.00320*%
%ADD89R,1.60320X1.50320*%
%ADD90R,1.10320X1.20320*%
%ADD94R,1.00320X1.10320*%
%TA.AperFunction,ComponentPad*%
%ADD101O,2.20002X1.10002*%
%ADD102O,1.90002X1.10002*%
%TA.AperFunction,ViaPad*%
%ADD103C,4.70320*%
%TA.AperFunction,SMDPad,CuDef*%
%ADD104R,0.80320X1.75320*%
%ADD105R,0.80320X1.40320*%
%ADD106R,1.67820X0.65320*%
%ADD107R,2.95320X6.40320*%
%ADD108R,1.50320X0.90320*%
%ADD109R,0.80320X1.20320*%
%ADD110R,1.40320X1.60320*%
%ADD111R,2.00320X2.30320*%
%ADD112R,1.08321X1.16319*%
%ADD113R,2.00320X2.20320*%
%ADD114R,1.14320X0.87320*%
%ADD115R,1.50320X1.60320*%
%ADD116R,1.40320X2.00320*%
%TA.AperFunction,ViaPad*%
%ADD117C,0.75320*%
D51*
X4225002Y3630002D02*
D03*
X3825003D02*
D03*
X4225002Y3369998D02*
D03*
X3825003D02*
D03*
D83*
X4314000Y4524973D02*
D03*
X4060000D02*
D03*
X3044000D02*
D03*
X3298000D02*
D03*
X2536000D02*
D03*
X2790000D02*
D03*
X3806000D02*
D03*
X3552000D02*
D03*
D85*
X2249293Y3669884D02*
D03*
Y3534888D02*
D03*
X2374293Y3184884D02*
D03*
Y3319885D02*
D03*
D86*
X4857593Y2935200D02*
D03*
Y2814800D02*
D03*
X4320001Y2252499D02*
D03*
Y2377499D02*
D03*
Y2502499D02*
D03*
X4687596Y2814800D02*
D03*
Y2935200D02*
D03*
X4150004Y2502499D02*
D03*
Y2377499D02*
D03*
Y2252499D02*
D03*
D89*
X3625003Y3580000D02*
D03*
X4025003D02*
D03*
X2449293Y2472386D02*
D03*
X2251795D02*
D03*
X2449293Y2632386D02*
D03*
X2251795D02*
D03*
X3625003Y3420000D02*
D03*
X4025003D02*
D03*
D90*
X4292498Y2112498D02*
D03*
Y1827499D02*
D03*
X3222500Y2775000D02*
D03*
X3019999Y1525000D02*
D03*
X4157502Y2112498D02*
D03*
X3154995Y1525000D02*
D03*
X4157502Y1827499D02*
D03*
Y1975000D02*
D03*
X4292498D02*
D03*
X3087500Y2775000D02*
D03*
D94*
X4872299Y2169001D02*
D03*
X5027701Y2168998D02*
D03*
X4505003Y1842500D02*
D03*
X3200000Y3084999D02*
D03*
X1974293Y3527385D02*
D03*
X2024293Y2792388D02*
D03*
Y2467386D02*
D03*
X3075000Y3084999D02*
D03*
X2024293Y2637386D02*
D03*
X2274293Y2792388D02*
D03*
X2099293Y3697387D02*
D03*
Y3527390D02*
D03*
X2274293Y2962390D02*
D03*
X2149293Y2962385D02*
D03*
Y2792388D02*
D03*
X1974293Y3697387D02*
D03*
X2024293Y2962385D02*
D03*
X3075000Y2915002D02*
D03*
X3200000D02*
D03*
X4505003Y1542500D02*
D03*
Y1712497D02*
D03*
Y2012497D02*
D03*
X5027701Y1999001D02*
D03*
X4872299Y1999004D02*
D03*
D101*
X4563590Y3307003D02*
D03*
Y2442997D02*
D03*
D102*
X4981598Y3307003D02*
D03*
Y2442997D02*
D03*
D103*
X1900000Y4400000D02*
D03*
Y1350000D02*
D03*
X4950000D02*
D03*
Y4400000D02*
D03*
D104*
X3774999Y3911039D02*
D03*
X3675000D02*
D03*
X3475000D02*
D03*
X3175001D02*
D03*
X3575000D02*
D03*
X3075001D02*
D03*
X3375000D02*
D03*
X3275000D02*
D03*
D105*
X4025000Y2950001D02*
D03*
X3625000D02*
D03*
X4120001Y3199998D02*
D03*
X3529999Y2950001D02*
D03*
X3720001D02*
D03*
X3529999Y3199998D02*
D03*
X3720001D02*
D03*
X4120001Y2950001D02*
D03*
X3929999D02*
D03*
Y3199998D02*
D03*
D106*
X3962599Y2075002D02*
D03*
Y1880001D02*
D03*
X3375000Y1750004D02*
D03*
Y1685000D02*
D03*
X3962599Y2140001D02*
D03*
Y2010003D02*
D03*
Y1815002D02*
D03*
Y1555003D02*
D03*
Y1620002D02*
D03*
Y1750004D02*
D03*
Y2204999D02*
D03*
Y2270003D02*
D03*
Y2335001D02*
D03*
Y2400000D02*
D03*
X3375000D02*
D03*
Y2335001D02*
D03*
Y2270003D02*
D03*
Y1945000D02*
D03*
Y1620002D02*
D03*
Y1555003D02*
D03*
Y2010003D02*
D03*
Y2140001D02*
D03*
Y2075002D02*
D03*
X3962599Y1945000D02*
D03*
X3375000Y2204999D02*
D03*
X3962599Y1685000D02*
D03*
X3375000Y1880001D02*
D03*
Y1815002D02*
D03*
D107*
X3668802Y1977502D02*
D03*
D108*
X2424293Y3697387D02*
D03*
Y3507385D02*
D03*
D109*
X2029292Y3389886D02*
D03*
X2219294Y3114886D02*
D03*
X2124293D02*
D03*
X2219294Y3389886D02*
D03*
X2124293D02*
D03*
X2029292Y3114886D02*
D03*
D110*
X3169994Y1730011D02*
D03*
X2999994Y1950011D02*
D03*
X3169994D02*
D03*
X2999994Y1730011D02*
D03*
D111*
X3104295Y3502396D02*
D03*
X2644291D02*
D03*
D112*
X2599293Y2552386D02*
D03*
X2921314D02*
D03*
X4188512Y2725000D02*
D03*
X3866491D02*
D03*
D113*
X2749293Y2777388D02*
D03*
Y3227384D02*
D03*
D114*
X2399293Y2828386D02*
D03*
Y2976386D02*
D03*
D115*
X4175003Y1652499D02*
D03*
X4335003D02*
D03*
X4175003Y1477499D02*
D03*
X4335003D02*
D03*
D116*
X2944998Y4298536D02*
D03*
X3905002D02*
D03*
D117*
X3253837Y1772511D02*
D03*
X3465827Y2466824D02*
D03*
%TF.MD5,759a833ac638bc46d5a024b214e98456*%
M02*
