%TF.GenerationSoftware,Altium Limited,Altium Designer,25.6.2 (33)*%
G04 Layer_Color=32896*
%FSLAX45Y45*%
%MOMM*%
%TF.SameCoordinates,DF3DBB3C-48A9-464C-9951-F34C30E37C37*%
%TF.FilePolarity,Positive*%
%TF.FileFunction,Legend,Bot*%
%TF.Part,Single*%
G01*
G75*
%TA.AperFunction,NonConductor*%
%ADD71C,0.25000*%
%ADD73C,0.20000*%
%ADD74C,0.25400*%
%ADD75C,0.15000*%
%ADD76C,0.15240*%
%ADD77C,0.12700*%
%ADD78C,0.12000*%
%ADD79R,0.99210X1.39472*%
G36*
X2014293Y3282386D02*
X1984293Y3252386D01*
X1969293D01*
Y3302386D01*
X2014293D01*
Y3282386D01*
D02*
G37*
G36*
X3897502Y2788231D02*
X3867022D01*
Y2825231D01*
X3897502D01*
Y2788231D01*
D02*
G37*
G36*
X4040202Y2674200D02*
X3989402Y2725000D01*
X4040202Y2775800D01*
Y2674200D01*
D02*
G37*
G36*
X3897502Y2624749D02*
X3867022D01*
Y2661749D01*
X3897502Y2661752D01*
Y2624749D01*
D02*
G37*
G36*
X2920783Y2615637D02*
X2890303Y2615635D01*
Y2652637D01*
X2920783D01*
Y2615637D01*
D02*
G37*
G36*
X2798403Y2552386D02*
X2747603Y2501586D01*
Y2603186D01*
X2798403Y2552386D01*
D02*
G37*
G36*
X2920783Y2452155D02*
X2890303D01*
Y2489155D01*
X2920783D01*
Y2452155D01*
D02*
G37*
D71*
X3087500Y3778540D02*
G03*
X3087500Y3778540I-12500J0D01*
G01*
X1956793Y3389886D02*
G03*
X1956793Y3389886I-12500J0D01*
G01*
D73*
X1969293Y3252386D02*
G03*
X2014293Y3297386I0J45000D01*
G01*
X2334290Y3602386D02*
X2514290D01*
X2474290Y3759886D02*
X2514290D01*
Y3444886D02*
Y3759886D01*
X2474290Y3444886D02*
X2514290D01*
X2334290Y3759886D02*
X2374290D01*
X2334290Y3444886D02*
Y3759886D01*
Y3444886D02*
X2374290D01*
X2369295Y2902386D02*
X2429295D01*
X3800004Y3235002D02*
X3850001D01*
X3825003Y3209998D02*
Y3260001D01*
X3915005Y3477501D02*
Y3522499D01*
X3735000Y3477501D02*
Y3522499D01*
X4200004Y3235002D02*
X4250001D01*
X4225002Y3209998D02*
Y3260001D01*
X4315005Y3477501D02*
Y3522499D01*
X4135000Y3477501D02*
Y3522499D01*
X2489293Y2752384D02*
Y3252388D01*
X3009292Y2752384D02*
Y3252388D01*
X2489293D02*
X2619290D01*
X2489293Y2752384D02*
X2619290D01*
X2879295Y3252388D02*
X3009292D01*
X2879295Y2752384D02*
X3009292D01*
X3045003Y4368538D02*
X3805002D01*
X2924998Y3943540D02*
Y4168539D01*
Y3943540D02*
X3004998D01*
X3845002D02*
X3925002D01*
Y4168539D01*
X1969292Y3202389D02*
Y3302388D01*
X2279294Y3202389D02*
Y3302388D01*
X1969292D02*
X2279294D01*
X1969292Y3202389D02*
X2279294D01*
X2014295Y3297385D02*
Y3302388D01*
X3301299Y1497502D02*
X3448802D01*
X3769998Y3044997D02*
Y3104997D01*
X3480001D02*
X3769998D01*
X3480001Y3044997D02*
Y3104997D01*
Y3044997D02*
X3769998D01*
X3775002Y2890002D02*
Y3010001D01*
X4175002Y2890002D02*
Y3010001D01*
X3880001Y3044997D02*
X4169998D01*
X3880001D02*
Y3104997D01*
X4169998D01*
Y3044997D02*
Y3104997D01*
D74*
X2521792Y3382386D02*
Y3627384D01*
X2554293Y3659886D01*
X3226794D01*
X2521792Y3382386D02*
X2549295Y3354888D01*
X3226794D01*
Y3659886D01*
D75*
X2065093Y2402386D02*
X2084293D01*
Y2702386D01*
X2065093D02*
X2084293D01*
X1964292D02*
X1983493D01*
X1964292Y2402386D02*
X1983493D01*
X1964292D02*
Y2702386D01*
Y2552386D02*
X2084293D01*
X2179290Y3462386D02*
X2209293D01*
X2179290D02*
Y3742386D01*
X2209293D01*
X2289293D02*
X2319295D01*
Y3462386D02*
Y3742386D01*
X2289293Y3462386D02*
X2319295D01*
X2179290Y3602386D02*
X2319295D01*
X2359290Y2552386D02*
X2539295D01*
X2499295Y2722388D02*
X2539295D01*
Y2382384D02*
Y2722388D01*
X2499295Y2382384D02*
X2539295D01*
X2359290D02*
X2399295D01*
X2359290D02*
Y2722388D01*
X2399295D01*
X2161792Y2552386D02*
X2341797D01*
X2301797Y2722388D02*
X2341797D01*
Y2382384D02*
Y2722388D01*
X2301797Y2382384D02*
X2341797D01*
X2161792D02*
X2201797D01*
X2161792D02*
Y2722388D01*
X2201797D01*
X3535000Y3500000D02*
X3715005D01*
X3535000Y3329998D02*
X3575005D01*
X3535000D02*
Y3670002D01*
X3575005D01*
X3675005D02*
X3715005D01*
Y3329998D02*
Y3670002D01*
X3675005Y3329998D02*
X3715005D01*
X3935000Y3500000D02*
X4115005D01*
X3935000Y3329998D02*
X3975000D01*
X3935000D02*
Y3670002D01*
X3975000D01*
X4075000D02*
X4115005D01*
Y3329998D02*
Y3670002D01*
X4075000Y3329998D02*
X4115005D01*
X3087497Y1454998D02*
Y1595002D01*
X2947497Y1454998D02*
Y1485000D01*
Y1454998D02*
X3227497D01*
Y1485000D01*
Y1565000D02*
Y1595002D01*
X2947497D02*
X3227497D01*
X2947497Y1565000D02*
Y1595002D01*
X4255003Y1562496D02*
Y1742501D01*
X4085000Y1702501D02*
Y1742501D01*
X4425005D01*
Y1702501D02*
Y1742501D01*
Y1562496D02*
Y1602501D01*
X4085000Y1562496D02*
X4425005D01*
X4085000D02*
Y1602501D01*
X4225000Y2042495D02*
Y2182500D01*
X4085000Y2042495D02*
Y2072498D01*
Y2042495D02*
X4365000D01*
Y2072498D01*
Y2152498D02*
Y2182500D01*
X4085000D02*
X4365000D01*
X4085000Y2152498D02*
Y2182500D01*
X4225000Y1904998D02*
Y2045003D01*
X4085000Y1904998D02*
Y1935000D01*
Y1904998D02*
X4365000D01*
Y1935000D01*
Y2015000D02*
Y2045003D01*
X4085000D02*
X4365000D01*
X4085000Y2015000D02*
Y2045003D01*
Y1867499D02*
Y1897501D01*
X4365000D01*
Y1867499D02*
Y1897501D01*
Y1757497D02*
Y1787499D01*
X4085000Y1757497D02*
X4365000D01*
X4085000D02*
Y1787499D01*
X4225000Y1757497D02*
Y1897501D01*
X2039293Y3762391D02*
X2058490D01*
X2039293Y3462387D02*
Y3762391D01*
Y3462387D02*
X2058490D01*
X2140090D02*
X2159293D01*
X2140090Y3762391D02*
X2159293D01*
Y3462387D02*
Y3762391D01*
X2039293Y3612389D02*
X2159293D01*
X2214293Y3027388D02*
X2233490D01*
X2214293Y2727389D02*
Y3027388D01*
Y2727389D02*
X2233490D01*
X2315090D02*
X2334293D01*
X2315090Y3027388D02*
X2334293D01*
Y2727389D02*
Y3027388D01*
X2214293Y2877386D02*
X2334293D01*
X2089293D02*
X2209293D01*
Y2727384D02*
Y3027388D01*
X2190095D02*
X2209293D01*
X2190095Y2727384D02*
X2209293D01*
X2089293D02*
X2108495D01*
X2089293D02*
Y3027388D01*
X2108495D01*
X2015095Y3462386D02*
X2034293D01*
Y3762386D01*
X2015095D02*
X2034293D01*
X1914293D02*
X1933495D01*
X1914293Y3462386D02*
X1933495D01*
X1914293D02*
Y3762386D01*
Y3612383D02*
X2034293D01*
X2065095Y2727384D02*
X2084293D01*
Y3027388D01*
X2065095D02*
X2084293D01*
X1964293D02*
X1983495D01*
X1964293Y2727384D02*
X1983495D01*
X1964293D02*
Y3027388D01*
Y2877386D02*
X2084293D01*
X3015000Y3000000D02*
X3135000D01*
X3015000Y2849998D02*
Y3150002D01*
Y2849998D02*
X3034197D01*
X3015000Y3150002D02*
X3034197D01*
X3115797D02*
X3135000D01*
Y2849998D02*
Y3150002D01*
X3115797Y2849998D02*
X3135000D01*
X3140000Y3150002D02*
X3159202D01*
X3140000Y2849998D02*
Y3150002D01*
Y2849998D02*
X3159202D01*
X3240803D02*
X3260000D01*
X3240803Y3150002D02*
X3260000D01*
Y2849998D02*
Y3150002D01*
X3140000Y3000000D02*
X3260000D01*
X4622592Y2754800D02*
Y2773998D01*
Y2754800D02*
X4922596D01*
Y2773998D01*
Y2855598D02*
Y2874800D01*
X4622592Y2855598D02*
Y2874800D01*
X4922596D01*
X4772594Y2754800D02*
Y2874800D01*
Y2875200D02*
Y2995200D01*
X4622592D02*
X4922596D01*
X4622592Y2975997D02*
Y2995200D01*
X4922596Y2975997D02*
Y2995200D01*
Y2875200D02*
Y2894397D01*
X4622592Y2875200D02*
X4922596D01*
X4622592D02*
Y2894397D01*
X4445003Y1627499D02*
X4565003D01*
X4445003Y1477497D02*
Y1777501D01*
Y1477497D02*
X4464205D01*
X4445003Y1777501D02*
X4464205D01*
X4545805D02*
X4565003D01*
Y1477497D02*
Y1777501D01*
X4545805Y1477497D02*
X4565003D01*
X4445003Y1927499D02*
X4565003D01*
Y1777497D02*
Y2077501D01*
X4545800D02*
X4565003D01*
X4545800Y1777497D02*
X4565003D01*
X4445003D02*
X4464200D01*
X4445003D02*
Y2077501D01*
X4464200D01*
X4235002Y2442499D02*
Y2562499D01*
X4085000D02*
X4385005D01*
X4085000Y2543296D02*
Y2562499D01*
X4385005Y2543296D02*
Y2562499D01*
Y2442499D02*
Y2461696D01*
X4085000Y2442499D02*
X4385005D01*
X4085000D02*
Y2461696D01*
X4235002Y2317499D02*
Y2437499D01*
X4085000D02*
X4385005D01*
X4085000Y2418301D02*
Y2437499D01*
X4385005Y2418301D02*
Y2437499D01*
Y2317499D02*
Y2336701D01*
X4085000Y2317499D02*
X4385005D01*
X4085000D02*
Y2336701D01*
X4235002Y2192499D02*
Y2312499D01*
X4085000D02*
X4385005D01*
X4085000Y2293301D02*
Y2312499D01*
X4385005Y2293301D02*
Y2312499D01*
Y2192499D02*
Y2211701D01*
X4085000Y2192499D02*
X4385005D01*
X4085000D02*
Y2211701D01*
X3295000Y2705000D02*
Y2735000D01*
X3015000Y2705000D02*
X3295000D01*
X3015000D02*
Y2735000D01*
Y2815000D02*
Y2845000D01*
X3295000D01*
Y2815000D02*
Y2845000D01*
X3155000Y2705000D02*
Y2845000D01*
X4085000Y1387497D02*
Y1427502D01*
Y1387497D02*
X4425005D01*
Y1427502D01*
Y1527501D02*
Y1567501D01*
X4085000D02*
X4425005D01*
X4085000Y1527501D02*
Y1567501D01*
X4255003Y1387497D02*
Y1567501D01*
X4967701Y2234002D02*
X4986904D01*
X4967701Y1933998D02*
Y2234002D01*
Y1933998D02*
X4986904D01*
X5068504D02*
X5087701D01*
X5068504Y2234002D02*
X5087701D01*
Y1933998D02*
Y2234002D01*
X4967701Y2084000D02*
X5087701D01*
X4812299Y2084002D02*
X4932299D01*
Y1934000D02*
Y2234004D01*
X4913096D02*
X4932299D01*
X4913096Y1934000D02*
X4932299D01*
X4812299D02*
X4831496D01*
X4812299D02*
Y2234004D01*
X4831496D01*
X2304290Y3112387D02*
X2334293D01*
X2304290D02*
Y3392387D01*
X2334293D01*
X2414293D02*
X2444295D01*
Y3112387D02*
Y3392387D01*
X2414293Y3112387D02*
X2444295D01*
X2304290Y3252387D02*
X2444295D01*
D76*
X2856986Y2459778D02*
Y2645020D01*
X2622681Y2459778D02*
Y2484080D01*
Y2459778D02*
X2897926D01*
X2622681Y2620717D02*
Y2645020D01*
X2897926D01*
X3889885Y2632371D02*
X4165129D01*
Y2656674D01*
X3889885Y2817614D02*
X4165129D01*
Y2793311D02*
Y2817614D01*
X3930819Y2632371D02*
X3930824Y2817614D01*
D77*
X3274314Y1988610D02*
Y2063811D01*
X3199113D02*
X3274314D01*
X2914994Y2045012D02*
X3254993D01*
X2914994Y1635012D02*
X3254993D01*
X2914994D02*
Y2045012D01*
X3254993Y1635012D02*
Y2045012D01*
D78*
X4214987Y3734735D02*
Y3788051D01*
Y3761393D01*
X4135013D01*
X4214987Y3868026D02*
Y3814709D01*
X4135013D01*
Y3868026D01*
X4175000Y3814709D02*
Y3841367D01*
X4214987Y3894684D02*
X4135013D01*
Y3948000D01*
X4326658Y3788051D02*
X4339987Y3774722D01*
Y3748064D01*
X4326658Y3734735D01*
X4273342D01*
X4260013Y3748064D01*
Y3774722D01*
X4273342Y3788051D01*
X4339987Y3814709D02*
X4273342D01*
X4260013Y3828039D01*
Y3854697D01*
X4273342Y3868026D01*
X4339987D01*
X4260013Y3894684D02*
X4339987D01*
Y3934671D01*
X4326658Y3948000D01*
X4300000D01*
X4286671Y3934671D01*
Y3894684D01*
Y3921342D02*
X4260013Y3948000D01*
X4385013Y3814710D02*
X4464987D01*
X4438329Y3841368D01*
X4464987Y3868026D01*
X4385013D01*
Y3934671D02*
X4464987D01*
X4425000Y3894684D01*
Y3948000D01*
X4510013Y3814710D02*
X4589987D01*
X4563329Y3841368D01*
X4589987Y3868026D01*
X4510013D01*
X4576658Y3894684D02*
X4589987Y3908013D01*
Y3934671D01*
X4576658Y3948000D01*
X4563329D01*
X4550000Y3934671D01*
Y3921342D01*
Y3934671D01*
X4536671Y3948000D01*
X4523342D01*
X4510013Y3934671D01*
Y3908013D01*
X4523342Y3894684D01*
X4635013Y3814710D02*
X4714987D01*
X4688329Y3841368D01*
X4714987Y3868026D01*
X4635013D01*
Y3948000D02*
Y3894684D01*
X4688329Y3948000D01*
X4701658D01*
X4714987Y3934671D01*
Y3908013D01*
X4701658Y3894684D01*
X4760013Y3841367D02*
X4839987D01*
X4813329Y3868026D01*
X4839987Y3894684D01*
X4760013D01*
Y3921342D02*
Y3948000D01*
Y3934671D01*
X4839987D01*
X4826658Y3921342D01*
X4964987Y3734735D02*
X4885013D01*
Y3774722D01*
X4898342Y3788051D01*
X4911671D01*
X4925000Y3774722D01*
Y3734735D01*
Y3774722D01*
X4938329Y3788051D01*
X4951658D01*
X4964987Y3774722D01*
Y3734735D01*
X4885013Y3814709D02*
X4938329D01*
X4964987Y3841367D01*
X4938329Y3868026D01*
X4885013D01*
X4925000D01*
Y3814709D01*
X4964987Y3894684D02*
Y3948000D01*
Y3921342D01*
X4885013D01*
X5076658Y3948000D02*
X5089987Y3934671D01*
Y3908013D01*
X5076658Y3894684D01*
X5023342D01*
X5010013Y3908013D01*
Y3934671D01*
X5023342Y3948000D01*
X5050000D01*
Y3921342D01*
D79*
X4174605Y4044736D02*
D03*
X4299605D02*
D03*
X4424605D02*
D03*
X4549605D02*
D03*
X4674605D02*
D03*
X4799605D02*
D03*
X4924605D02*
D03*
X5049605D02*
D03*
%TF.MD5,93acc516dc9b464c29ed8c1a4ef968b4*%
M02*
