%TF.GenerationSoftware,Altium Limited,Altium Designer,25.6.2 (33)*%
G04 Layer_Color=65535*
%FSLAX45Y45*%
%MOMM*%
%TF.SameCoordinates,DF3DBB3C-48A9-464C-9951-F34C30E37C37*%
%TF.FilePolarity,Positive*%
%TF.FileFunction,Legend,Top*%
%TF.Part,Single*%
G01*
G75*
%TA.AperFunction,NonConductor*%
%ADD70C,0.10000*%
%ADD71C,0.25000*%
%ADD72C,0.60000*%
%ADD73C,0.20000*%
%ADD74C,0.25400*%
%ADD75C,0.15000*%
%ADD76C,0.15240*%
%ADD77C,0.12700*%
%ADD78C,0.12000*%
D70*
X3987296Y3820000D02*
G03*
X3987296Y3830000I0J5000D01*
G01*
D02*
G03*
X3987296Y3820000I0J-5000D01*
G01*
X4442790Y4020028D02*
G03*
X4432790Y4020028I-5000J0D01*
G01*
D02*
G03*
X4442790Y4020028I5000J0D01*
G01*
X4327298Y3625002D02*
Y3650000D01*
X4257296Y3625002D02*
X4327298D01*
X4027294D02*
X4097296D01*
X4027294D02*
Y3639998D01*
X4327298Y3850000D02*
Y3874999D01*
X4257296D02*
X4327298D01*
X4027294D02*
X4097296D01*
X4027294Y3850000D02*
Y3874999D01*
D71*
X4074796Y3149765D02*
G03*
X4074796Y3149765I-12500J0D01*
G01*
X2702500Y3319997D02*
G03*
X2702500Y3319997I-12500J0D01*
G01*
D72*
X2965000Y3189997D02*
G03*
X2965000Y3189997I-30000J0D01*
G01*
D73*
X4186500Y2219999D02*
G03*
X4186500Y2219999I-10000J0D01*
G01*
X4932299Y1930301D02*
X4947300Y1945302D01*
Y2237743D01*
X4797298Y1942803D02*
Y2237743D01*
X4850338D02*
X4947300D01*
X4797298D02*
X4850338D01*
X4809800Y1930301D02*
X4932299D01*
X4797298Y1942803D02*
X4809800Y1930301D01*
X1747298Y3871105D02*
X1762299Y3886106D01*
X1747298Y3578665D02*
Y3871105D01*
X1897300Y3578665D02*
Y3873604D01*
X1747298Y3578665D02*
X1844260D01*
X1897300D01*
X1762299Y3886106D02*
X1884798D01*
X1897300Y3873604D01*
X4162295Y3124765D02*
X4192297D01*
X4162295Y2814763D02*
X4192297D01*
X4162295D02*
Y3124765D01*
X4192297Y2814763D02*
Y3124765D01*
X4755791Y3448528D02*
X4835790D01*
X4755791Y4083528D02*
X4835790D01*
X4755791Y3512028D02*
X4835790D01*
X4755791Y4020028D02*
X4835790D01*
X2835004Y2460000D02*
X3665005D01*
X2835004Y3290001D02*
X3665005D01*
Y2460000D02*
Y3290001D01*
X2835004Y2460000D02*
Y3290001D01*
X5087701Y1930298D02*
X5102702Y1945300D01*
Y2237740D01*
X4952700Y1942800D02*
Y2237740D01*
X5005740D02*
X5102702D01*
X4952700D02*
X5005740D01*
X4965202Y1930298D02*
X5087701D01*
X4952700Y1942800D02*
X4965202Y1930298D01*
D74*
X2217600Y1960000D02*
X2370000Y2112400D01*
Y1731400D02*
Y2112400D01*
X2217600Y1960000D02*
X2522400D01*
X2370000Y2112400D02*
X2522400Y1960000D01*
X1988121Y2647266D02*
X1992810D01*
Y2806651D01*
X1767176Y3237110D02*
X1860953D01*
X1988151Y3282266D02*
X1992723D01*
Y3123008D02*
Y3282266D01*
X1766236Y2695246D02*
X1860008D01*
X1665002Y2939767D02*
Y3128550D01*
Y3166655D01*
X1515000Y3114763D02*
X1659993D01*
X1515000Y2939757D02*
Y3114763D01*
Y2939757D02*
X1665002D01*
Y2762881D02*
Y2939767D01*
X5244600Y2424998D02*
Y3325002D01*
X5075456Y2424998D02*
X5244600D01*
X4672455D02*
X4873745D01*
X5075456Y3325002D02*
X5244600D01*
X4672455D02*
X4873745D01*
X1818117Y1904390D02*
X1934987D01*
X1818117Y2359588D02*
X1934987D01*
Y2015187D02*
Y2043181D01*
Y2220981D02*
Y2248959D01*
X1584993Y2232080D02*
X1704990D01*
X1584993Y2032081D02*
X1704990D01*
X1584993D02*
Y2232080D01*
X1934987Y2043181D02*
Y2220981D01*
D75*
X4580000Y1329800D02*
Y1349000D01*
X4280000Y1329800D02*
X4580000D01*
X4280000D02*
Y1349000D01*
Y1430600D02*
Y1449800D01*
X4580000Y1430600D02*
Y1449800D01*
X4280000D02*
X4580000D01*
X4430000Y1329800D02*
Y1449800D01*
X4580000Y1450200D02*
Y1469400D01*
X4280000Y1450200D02*
X4580000D01*
X4280000D02*
Y1469400D01*
Y1551000D02*
Y1570200D01*
X4580000Y1551000D02*
Y1570200D01*
X4280000D02*
X4580000D01*
X4430000Y1450200D02*
Y1570200D01*
X4219998Y3590000D02*
X4250000D01*
X4219998Y3310000D02*
Y3590000D01*
Y3310000D02*
X4250000D01*
X4330000D02*
X4360002D01*
Y3590000D01*
X4330000D02*
X4360002D01*
X4219998Y3450000D02*
X4360002D01*
X4079998Y3590000D02*
X4110000D01*
X4079998Y3310000D02*
Y3590000D01*
Y3310000D02*
X4110000D01*
X4190000D02*
X4220002D01*
Y3590000D01*
X4190000D02*
X4220002D01*
X4079998Y3450000D02*
X4220002D01*
X2294997Y3469999D02*
X2475002D01*
X2435002Y3299996D02*
X2475002D01*
Y3640001D01*
X2435002D02*
X2475002D01*
X2294997D02*
X2335002D01*
X2294997Y3299996D02*
Y3640001D01*
Y3299996D02*
X2335002D01*
X2629998Y3640000D02*
X2660000D01*
X2629998Y3360000D02*
Y3640000D01*
Y3360000D02*
X2660000D01*
X2740000D02*
X2770002D01*
Y3640000D01*
X2740000D02*
X2770002D01*
X2629998Y3500000D02*
X2770002D01*
X2477496Y3640000D02*
X2507499D01*
X2477496Y3360000D02*
Y3640000D01*
Y3360000D02*
X2507499D01*
X2587499D02*
X2617501D01*
Y3640000D01*
X2587499D02*
X2617501D01*
X2477496Y3500000D02*
X2617501D01*
X2387804Y2565000D02*
X2527809D01*
X2387804Y2425000D02*
X2417806D01*
X2387804D02*
Y2704999D01*
X2417806D01*
X2497806D02*
X2527809D01*
Y2425000D02*
Y2704999D01*
X2497806Y2425000D02*
X2527809D01*
X3754998Y3450000D02*
X3895002D01*
X3865000Y3590000D02*
X3895002D01*
Y3310000D02*
Y3590000D01*
X3865000Y3310000D02*
X3895002D01*
X3754998D02*
X3785000D01*
X3754998D02*
Y3590000D01*
X3785000D01*
X3015000Y1890003D02*
X3045002D01*
Y2170002D01*
X3015000D02*
X3045002D01*
X2904997D02*
X2935000D01*
X2904997Y1890003D02*
Y2170002D01*
Y1890003D02*
X2935000D01*
X2904997Y2030003D02*
X3045002D01*
X2500001Y3243951D02*
Y3273953D01*
X2220002D02*
X2500001D01*
X2220002Y3243951D02*
Y3273953D01*
Y3133948D02*
Y3163951D01*
Y3133948D02*
X2500001D01*
Y3163951D01*
X2360001Y3133948D02*
Y3273953D01*
X2346027Y2425000D02*
X2376030D01*
Y2704999D01*
X2346027D02*
X2376030D01*
X2236025D02*
X2266027D01*
X2236025Y2425000D02*
Y2704999D01*
Y2425000D02*
X2266027D01*
X2236025Y2565000D02*
X2376030D01*
X3484998Y2000000D02*
X3665002D01*
X3484998Y2170002D02*
X3524998D01*
X3484998Y1829998D02*
Y2170002D01*
Y1829998D02*
X3524998D01*
X3624997D02*
X3665002D01*
Y2170002D01*
X3624997D02*
X3665002D01*
X3894998Y3279998D02*
X3934997D01*
X3894998D02*
Y3620002D01*
X3934997D01*
X4034997D02*
X4075002D01*
Y3279998D02*
Y3620002D01*
X4034997Y3279998D02*
X4075002D01*
X3894998Y3450000D02*
X4075002D01*
X4026500Y1982499D02*
Y2122504D01*
X4166500Y1982499D02*
Y2012502D01*
X3886500Y1982499D02*
X4166500D01*
X3886500D02*
Y2012502D01*
Y2092502D02*
Y2122504D01*
X4166500D01*
Y2092502D02*
Y2122504D01*
X4204998Y2249999D02*
X4345002D01*
X4204998Y2109999D02*
X4235000D01*
X4204998D02*
Y2389998D01*
X4235000D01*
X4315000D02*
X4345002D01*
Y2109999D02*
Y2389998D01*
X4315000Y2109999D02*
X4345002D01*
X1900200Y3732385D02*
X2020200D01*
Y3582383D02*
Y3882388D01*
X2001003Y3582383D02*
X2020200D01*
X2001003Y3882388D02*
X2020200D01*
X1900200D02*
X1919403D01*
X1900200Y3582383D02*
Y3882388D01*
Y3582383D02*
X1919403D01*
X3790000Y1890003D02*
X3820003D01*
Y2170002D01*
X3790000D02*
X3820003D01*
X3679998D02*
X3710000D01*
X3679998Y1890003D02*
Y2170002D01*
Y1890003D02*
X3710000D01*
X3679998Y2030003D02*
X3820003D01*
X3280000Y2030002D02*
X3420000D01*
X3280000Y1890002D02*
X3310000D01*
X3280000D02*
Y2170002D01*
X3310000D01*
X3390000D02*
X3420000D01*
Y1890002D02*
Y2170002D01*
X3390000Y1890002D02*
X3420000D01*
X4177296Y2539990D02*
Y2659990D01*
X4027296D02*
X4327296D01*
Y2640790D02*
Y2659990D01*
X4027296Y2640790D02*
Y2659990D01*
Y2539990D02*
Y2559190D01*
Y2539990D02*
X4327296D01*
Y2559190D01*
X4177296Y2664990D02*
Y2784990D01*
X4027296Y2664990D02*
X4327296D01*
X4027296D02*
Y2684190D01*
X4327296Y2664990D02*
Y2684190D01*
Y2765790D02*
Y2784990D01*
X4027296D02*
X4327296D01*
X4027296Y2765790D02*
Y2784990D01*
D76*
X2192155Y3117852D02*
X2527877D01*
Y2712133D02*
Y3117852D01*
X2192155Y2712133D02*
X2527877D01*
X2192155D02*
Y3117852D01*
X2169295Y3140712D02*
X2335015D01*
X2169295Y2954993D02*
Y3140712D01*
D77*
X4111499Y2353001D02*
X4129502D01*
Y2313001D02*
Y2353001D01*
Y2146996D02*
Y2187001D01*
X4111499Y2146996D02*
X4129502D01*
X3923498D02*
X3941501D01*
X3923498D02*
Y2187001D01*
Y2353001D02*
X3941501D01*
X3923498Y2313001D02*
Y2353001D01*
D78*
X4911036Y1690036D02*
X4831062D01*
Y1730024D01*
X4844391Y1743353D01*
X4871049D01*
X4884378Y1730024D01*
Y1690036D01*
X4831062Y1770011D02*
X4911036D01*
X4884378Y1796669D01*
X4911036Y1823327D01*
X4831062D01*
X4911036Y1849985D02*
X4831062D01*
Y1889972D01*
X4844391Y1903301D01*
X4871049D01*
X4884378Y1889972D01*
Y1849985D01*
Y1876643D02*
X4911036Y1903301D01*
X1692000Y1760126D02*
Y1840100D01*
X1731988D01*
X1745317Y1826771D01*
Y1800113D01*
X1731988Y1786784D01*
X1692000D01*
X1718658D02*
X1745317Y1760126D01*
X1825291Y1826771D02*
X1811962Y1840100D01*
X1785304D01*
X1771975Y1826771D01*
Y1813442D01*
X1785304Y1800113D01*
X1811962D01*
X1825291Y1786784D01*
Y1773455D01*
X1811962Y1760126D01*
X1785304D01*
X1771975Y1773455D01*
X1851949Y1840100D02*
X1905265D01*
X1878607D01*
Y1760126D01*
X1691992Y2612760D02*
Y2532786D01*
X1731979D01*
X1745308Y2546115D01*
Y2599431D01*
X1731979Y2612760D01*
X1691992D01*
X1825282D02*
X1771966D01*
Y2572773D01*
X1798624D01*
X1771966D01*
Y2532786D01*
X1851940Y2612760D02*
Y2546115D01*
X1865270Y2532786D01*
X1891928D01*
X1905257Y2546115D01*
Y2612760D01*
X1745308Y3396746D02*
X1691992D01*
Y3356759D01*
X1718650D01*
X1691992D01*
Y3316771D01*
X1771966Y3396746D02*
Y3316771D01*
X1825282D01*
X1851940D02*
Y3370087D01*
X1878598Y3396746D01*
X1905257Y3370087D01*
Y3316771D01*
Y3356759D01*
X1851940D01*
X1985231Y3383417D02*
X1971902Y3396746D01*
X1945244D01*
X1931915Y3383417D01*
Y3370087D01*
X1945244Y3356759D01*
X1971902D01*
X1985231Y3343429D01*
Y3330101D01*
X1971902Y3316771D01*
X1945244D01*
X1931915Y3330101D01*
X2011889Y3396746D02*
Y3316771D01*
Y3356759D01*
X2065205D01*
Y3396746D01*
Y3316771D01*
X4986464Y1703363D02*
Y1730021D01*
Y1716692D01*
X5066438D01*
Y1703363D01*
Y1730021D01*
Y1770008D02*
X4986464D01*
X5013122Y1796666D01*
X4986464Y1823324D01*
X5066438D01*
X4986464Y1849982D02*
X5053109D01*
X5066438Y1863311D01*
Y1889970D01*
X5053109Y1903298D01*
X4986464D01*
X2816658Y1753645D02*
X2803329Y1766974D01*
X2776671D01*
X2763342Y1753645D01*
Y1700329D01*
X2776671Y1687000D01*
X2803329D01*
X2816658Y1700329D01*
Y1726987D01*
X2790000D01*
X2977355Y4397973D02*
X3030671D01*
X3004013D01*
Y4317999D01*
X3110645D02*
X3057329D01*
X3110645Y4371315D01*
Y4384644D01*
X3097316Y4397973D01*
X3070658D01*
X3057329Y4384644D01*
X3231355Y4317999D02*
Y4397973D01*
X3271342D01*
X3284671Y4384644D01*
Y4357986D01*
X3271342Y4344657D01*
X3231355D01*
X3258013D02*
X3284671Y4317999D01*
X3364645D02*
X3311329D01*
X3364645Y4371315D01*
Y4384644D01*
X3351316Y4397973D01*
X3324658D01*
X3311329Y4384644D01*
X3832658D02*
X3819329Y4397973D01*
X3792671D01*
X3779342Y4384644D01*
Y4331328D01*
X3792671Y4317999D01*
X3819329D01*
X3832658Y4331328D01*
Y4357986D01*
X3806000D01*
X2736684Y4049671D02*
X2723355Y4063000D01*
X2696697D01*
X2683368Y4049671D01*
Y3996355D01*
X2696697Y3983026D01*
X2723355D01*
X2736684Y3996355D01*
X2763342Y3983026D02*
Y4036342D01*
X2790000Y4063000D01*
X2816658Y4036342D01*
Y3983026D01*
Y4023013D01*
X2763342D01*
X2843316Y3983026D02*
Y4063000D01*
X2869974Y4036342D01*
X2896632Y4063000D01*
Y3983026D01*
X3538671Y4397973D02*
X3485355D01*
Y4357986D01*
X3512013Y4371315D01*
X3525342D01*
X3538671Y4357986D01*
Y4331328D01*
X3525342Y4317999D01*
X3498684D01*
X3485355Y4331328D01*
X3565329Y4397973D02*
Y4344657D01*
X3591987Y4317999D01*
X3618645Y4344657D01*
Y4397973D01*
X4086658Y4049671D02*
X4073329Y4063000D01*
X4046671D01*
X4033342Y4049671D01*
Y3996355D01*
X4046671Y3983026D01*
X4073329D01*
X4086658Y3996355D01*
Y4023013D01*
X4060000D01*
X3030671Y4049671D02*
X3017342Y4063000D01*
X2990684D01*
X2977355Y4049671D01*
Y3996355D01*
X2990684Y3983026D01*
X3017342D01*
X3030671Y3996355D01*
X3110645Y4049671D02*
X3097316Y4063000D01*
X3070658D01*
X3057329Y4049671D01*
Y3996355D01*
X3070658Y3983026D01*
X3097316D01*
X3110645Y3996355D01*
X3485355Y4063000D02*
X3538671D01*
X3512013D01*
Y3983026D01*
X3618645Y4063000D02*
X3565329D01*
Y4023013D01*
X3591987Y4036342D01*
X3605316D01*
X3618645Y4023013D01*
Y3996355D01*
X3605316Y3983026D01*
X3578658D01*
X3565329Y3996355D01*
X3792671Y4063000D02*
X3739355D01*
Y4023013D01*
X3766013Y4036342D01*
X3779342D01*
X3792671Y4023013D01*
Y3996355D01*
X3779342Y3983026D01*
X3752684D01*
X3739355Y3996355D01*
X3819329Y4063000D02*
Y4009684D01*
X3845987Y3983026D01*
X3872645Y4009684D01*
Y4063000D01*
X3231355Y3983026D02*
Y4063000D01*
X3271342D01*
X3284671Y4049671D01*
Y4023013D01*
X3271342Y4009684D01*
X3231355D01*
X3258013D02*
X3284671Y3983026D01*
X3364645Y4063000D02*
X3311329D01*
Y4023013D01*
X3337987Y4036342D01*
X3351316D01*
X3364645Y4023013D01*
Y3996355D01*
X3351316Y3983026D01*
X3324658D01*
X3311329Y3996355D01*
X2816658Y1418623D02*
X2803329Y1431952D01*
X2776671D01*
X2763342Y1418623D01*
Y1365307D01*
X2776671Y1351978D01*
X2803329D01*
X2816658Y1365307D01*
Y1391965D01*
X2790000D01*
X3993355Y1351978D02*
Y1431952D01*
X4033342D01*
X4046671Y1418623D01*
Y1391965D01*
X4033342Y1378636D01*
X3993355D01*
X4020013D02*
X4046671Y1351978D01*
X4073329Y1418623D02*
X4086658Y1431952D01*
X4113316D01*
X4126645Y1418623D01*
Y1405294D01*
X4113316Y1391965D01*
X4099987D01*
X4113316D01*
X4126645Y1378636D01*
Y1365307D01*
X4113316Y1351978D01*
X4086658D01*
X4073329Y1365307D01*
X3191368Y1431952D02*
Y1351978D01*
X3231355D01*
X3244684Y1365307D01*
Y1378636D01*
X3231355Y1391965D01*
X3191368D01*
X3231355D01*
X3244684Y1405294D01*
Y1418623D01*
X3231355Y1431952D01*
X3191368D01*
X3271342Y1351978D02*
Y1405294D01*
X3298000Y1431952D01*
X3324658Y1405294D01*
Y1351978D01*
Y1391965D01*
X3271342D01*
X3351316Y1431952D02*
X3404632D01*
X3377974D01*
Y1351978D01*
X3030671Y1431952D02*
X2977355D01*
Y1391965D01*
X3004013Y1405294D01*
X3017342D01*
X3030671Y1391965D01*
Y1365307D01*
X3017342Y1351978D01*
X2990684D01*
X2977355Y1365307D01*
X3057329Y1431952D02*
Y1378636D01*
X3083987Y1351978D01*
X3110645Y1378636D01*
Y1431952D01*
X3485355Y1766974D02*
X3538671D01*
X3512013D01*
Y1687000D01*
X3605316D02*
Y1766974D01*
X3565329Y1726987D01*
X3618645D01*
X4006684Y1753645D02*
X3993355Y1766974D01*
X3966697D01*
X3953368Y1753645D01*
Y1740316D01*
X3966697Y1726987D01*
X3993355D01*
X4006684Y1713658D01*
Y1700329D01*
X3993355Y1687000D01*
X3966697D01*
X3953368Y1700329D01*
X4086658Y1753645D02*
X4073329Y1766974D01*
X4046671D01*
X4033342Y1753645D01*
Y1700329D01*
X4046671Y1687000D01*
X4073329D01*
X4086658Y1700329D01*
X4113316Y1766974D02*
Y1687000D01*
X4166632D01*
X3030671Y1766974D02*
X2977355D01*
Y1726987D01*
X3004013Y1740316D01*
X3017342D01*
X3030671Y1726987D01*
Y1700329D01*
X3017342Y1687000D01*
X2990684D01*
X2977355Y1700329D01*
X3057329Y1766974D02*
Y1713658D01*
X3083987Y1687000D01*
X3110645Y1713658D01*
Y1766974D01*
X3231355Y1687000D02*
Y1766974D01*
X3271342D01*
X3284671Y1753645D01*
Y1726987D01*
X3271342Y1713658D01*
X3231355D01*
X3258013D02*
X3284671Y1687000D01*
X3311329Y1766974D02*
X3364645Y1687000D01*
Y1766974D02*
X3311329Y1687000D01*
X3739355Y1431952D02*
X3792671D01*
X3766013D01*
Y1351978D01*
X3819329Y1418623D02*
X3832658Y1431952D01*
X3859316D01*
X3872645Y1418623D01*
Y1405294D01*
X3859316Y1391965D01*
X3845987D01*
X3859316D01*
X3872645Y1378636D01*
Y1365307D01*
X3859316Y1351978D01*
X3832658D01*
X3819329Y1365307D01*
X3752684Y1753645D02*
X3739355Y1766974D01*
X3712697D01*
X3699368Y1753645D01*
Y1740316D01*
X3712697Y1726987D01*
X3739355D01*
X3752684Y1713658D01*
Y1700329D01*
X3739355Y1687000D01*
X3712697D01*
X3699368Y1700329D01*
X3779342Y1766974D02*
Y1687000D01*
X3819329D01*
X3832658Y1700329D01*
Y1753645D01*
X3819329Y1766974D01*
X3779342D01*
X3859316Y1687000D02*
Y1740316D01*
X3885974Y1766974D01*
X3912632Y1740316D01*
Y1687000D01*
Y1726987D01*
X3859316D01*
X3445368Y1431952D02*
Y1378636D01*
X3472026Y1351978D01*
X3498684Y1378636D01*
Y1431952D01*
X3525342D02*
X3578658D01*
X3552000D01*
Y1351978D01*
X3605316Y1431952D02*
X3658632Y1351978D01*
Y1431952D02*
X3605316Y1351978D01*
%TF.MD5,5ad4f2823590300f020a47468743a033*%
M02*
