%TF.GenerationSoftware,Altium Limited,Altium Designer,25.6.2 (33)*%
G04 Layer_Color=8421504*
%FSLAX45Y45*%
%MOMM*%
%TF.SameCoordinates,DF3DBB3C-48A9-464C-9951-F34C30E37C37*%
%TF.FilePolarity,Positive*%
%TF.FileFunction,Paste,Top*%
%TF.Part,Single*%
G01*
G75*
%TA.AperFunction,SMDPad,CuDef*%
%ADD10R,2.40000X0.76000*%
%ADD11R,0.60000X0.30000*%
%ADD12R,0.30000X0.60000*%
%ADD13R,1.50000X2.00000*%
%ADD15R,1.00000X0.90000*%
%ADD16R,0.90000X0.80000*%
G04:AMPARAMS|DCode=17|XSize=0.38mm|YSize=0.35mm|CornerRadius=0.01575mm|HoleSize=0mm|Usage=FLASHONLY|Rotation=270.000|XOffset=0mm|YOffset=0mm|HoleType=Round|Shape=RoundedRectangle|*
%AMROUNDEDRECTD17*
21,1,0.38000,0.31850,0,0,270.0*
21,1,0.34850,0.35000,0,0,270.0*
1,1,0.03150,-0.15925,-0.17425*
1,1,0.03150,-0.15925,0.17425*
1,1,0.03150,0.15925,0.17425*
1,1,0.03150,0.15925,-0.17425*
%
%ADD17ROUNDEDRECTD17*%
%ADD18R,1.20000X0.60000*%
%ADD19R,1.40000X1.30000*%
%ADD20R,0.90000X1.00000*%
%ADD21O,0.30000X2.10000*%
%ADD22O,2.10000X0.30000*%
%ADD23R,1.20000X1.40000*%
%ADD24R,0.80000X0.90000*%
%ADD25R,1.20000X0.60000*%
%TA.AperFunction,ConnectorPad*%
%ADD26R,1.50000X0.70000*%
%TA.AperFunction,SMDPad,CuDef*%
G04:AMPARAMS|DCode=27|XSize=0.8mm|YSize=0.9mm|CornerRadius=0.2mm|HoleSize=0mm|Usage=FLASHONLY|Rotation=270.000|XOffset=0mm|YOffset=0mm|HoleType=Round|Shape=RoundedRectangle|*
%AMROUNDEDRECTD27*
21,1,0.80000,0.50000,0,0,270.0*
21,1,0.40000,0.90000,0,0,270.0*
1,1,0.40000,-0.25000,-0.20000*
1,1,0.40000,-0.25000,0.20000*
1,1,0.40000,0.25000,0.20000*
1,1,0.40000,0.25000,-0.20000*
%
%ADD27ROUNDEDRECTD27*%
%ADD28R,0.90000X0.80000*%
%TA.AperFunction,ConnectorPad*%
%ADD29R,0.80000X1.00000*%
G36*
X5024095Y3356946D02*
X5026579Y3356763D01*
X5029053Y3356451D01*
X5031509Y3356017D01*
X5033940Y3355463D01*
X5036338Y3354787D01*
X5038702Y3353995D01*
X5041021Y3353085D01*
X5043295Y3352059D01*
X5045515Y3350924D01*
X5047669Y3349672D01*
X5049769Y3348323D01*
X5051791Y3346868D01*
X5053739Y3345316D01*
X5055606Y3343660D01*
X5057394Y3341925D01*
X5059088Y3340096D01*
X5060689Y3338183D01*
X5062197Y3336194D01*
X5063602Y3334135D01*
X5064902Y3332014D01*
X5066091Y3329822D01*
X5067176Y3327576D01*
X5068141Y3325278D01*
X5068997Y3322931D01*
X5069728Y3320548D01*
X5070346Y3318138D01*
X5070841Y3315694D01*
X5071212Y3313228D01*
X5071458Y3310749D01*
X5071585Y3308254D01*
Y3305765D01*
X5071458Y3303276D01*
X5071212Y3300795D01*
X5070841Y3298331D01*
X5070346Y3295887D01*
X5069728Y3293469D01*
X5068997Y3291089D01*
X5068141Y3288742D01*
X5067176Y3286446D01*
X5066091Y3284196D01*
X5064902Y3282014D01*
X5063602Y3279885D01*
X5062197Y3277823D01*
X5060689Y3275836D01*
X5059088Y3273924D01*
X5057394Y3272100D01*
X5055606Y3270360D01*
X5053739Y3268704D01*
X5051791Y3267155D01*
X5049769Y3265694D01*
X5047669Y3264346D01*
X5045515Y3263101D01*
X5043295Y3261960D01*
X5041021Y3260939D01*
X5038702Y3260028D01*
X5036338Y3259230D01*
X5033940Y3258557D01*
X5031509Y3258003D01*
X5029053Y3257569D01*
X5026579Y3257261D01*
X5024095Y3257071D01*
X5021601Y3257013D01*
X4941598D01*
X4939106Y3257071D01*
X4936622Y3257261D01*
X4934146Y3257569D01*
X4931690Y3258003D01*
X4929261Y3258557D01*
X4926864Y3259230D01*
X4924499Y3260028D01*
X4922177Y3260939D01*
X4919904Y3261960D01*
X4917687Y3263101D01*
X4915525Y3264346D01*
X4913432Y3265694D01*
X4911408Y3267155D01*
X4909460Y3268704D01*
X4907588Y3270360D01*
X4905805Y3272100D01*
X4904113Y3273924D01*
X4902505Y3275836D01*
X4901001Y3277823D01*
X4899597Y3279885D01*
X4898296Y3282014D01*
X4897102Y3284196D01*
X4896023Y3286446D01*
X4895053Y3288742D01*
X4894202Y3291089D01*
X4893465Y3293469D01*
X4892853Y3295887D01*
X4892358Y3298331D01*
X4891989Y3300795D01*
X4891735Y3303276D01*
X4891614Y3305765D01*
Y3308254D01*
X4891735Y3310749D01*
X4891989Y3313228D01*
X4892358Y3315694D01*
X4892853Y3318138D01*
X4893465Y3320548D01*
X4894202Y3322931D01*
X4895053Y3325278D01*
X4896023Y3327576D01*
X4897102Y3329822D01*
X4898296Y3332014D01*
X4899597Y3334135D01*
X4901001Y3336194D01*
X4902505Y3338183D01*
X4904113Y3340096D01*
X4905805Y3341925D01*
X4907588Y3343660D01*
X4909460Y3345316D01*
X4911408Y3346868D01*
X4913432Y3348323D01*
X4915525Y3349672D01*
X4917687Y3350924D01*
X4919904Y3352059D01*
X4922177Y3353085D01*
X4924499Y3353995D01*
X4926864Y3354787D01*
X4929261Y3355463D01*
X4931690Y3356017D01*
X4934146Y3356451D01*
X4936622Y3356763D01*
X4939106Y3356946D01*
X4941598Y3357010D01*
X5021601D01*
X5024095Y3356946D01*
D02*
G37*
G36*
X4621083D02*
X4623572Y3356763D01*
X4626049Y3356451D01*
X4628500Y3356017D01*
X4630928Y3355463D01*
X4633331Y3354787D01*
X4635696Y3353995D01*
X4638015Y3353085D01*
X4640291Y3352059D01*
X4642503Y3350924D01*
X4644662Y3349672D01*
X4646758Y3348323D01*
X4648784Y3346868D01*
X4650735Y3345316D01*
X4652600Y3343660D01*
X4654390Y3341925D01*
X4656082Y3340096D01*
X4657682Y3338183D01*
X4659188Y3336194D01*
X4660593Y3334135D01*
X4661896Y3332014D01*
X4663087Y3329822D01*
X4664172Y3327576D01*
X4665137Y3325278D01*
X4665990Y3322931D01*
X4666724Y3320548D01*
X4667342Y3318138D01*
X4667834Y3315694D01*
X4668205Y3313228D01*
X4668452Y3310749D01*
X4668576Y3308254D01*
Y3305765D01*
X4668452Y3303276D01*
X4668205Y3300795D01*
X4667834Y3298331D01*
X4667342Y3295887D01*
X4666724Y3293469D01*
X4665990Y3291089D01*
X4665137Y3288742D01*
X4664172Y3286446D01*
X4663087Y3284196D01*
X4661896Y3282014D01*
X4660593Y3279885D01*
X4659188Y3277823D01*
X4657682Y3275836D01*
X4656082Y3273924D01*
X4654390Y3272100D01*
X4652600Y3270360D01*
X4650735Y3268704D01*
X4648784Y3267155D01*
X4646758Y3265694D01*
X4644662Y3264346D01*
X4642503Y3263101D01*
X4640291Y3261960D01*
X4638015Y3260939D01*
X4635696Y3260028D01*
X4633331Y3259230D01*
X4630928Y3258557D01*
X4628500Y3258003D01*
X4626049Y3257569D01*
X4623572Y3257261D01*
X4621083Y3257071D01*
X4618594Y3257013D01*
X4508592D01*
X4506097Y3257071D01*
X4503613Y3257261D01*
X4501139Y3257569D01*
X4498681Y3258003D01*
X4496252Y3258557D01*
X4493855Y3259230D01*
X4491490Y3260028D01*
X4489171Y3260939D01*
X4486898Y3261960D01*
X4484678Y3263101D01*
X4482519Y3264346D01*
X4480423Y3265694D01*
X4478401Y3267155D01*
X4476453Y3268704D01*
X4474581Y3270360D01*
X4472798Y3272100D01*
X4471104Y3273924D01*
X4469504Y3275836D01*
X4467992Y3277823D01*
X4466588Y3279885D01*
X4465290Y3282014D01*
X4464101Y3284196D01*
X4463016Y3286446D01*
X4462051Y3288742D01*
X4461195Y3291089D01*
X4460464Y3293469D01*
X4459844Y3295887D01*
X4459351Y3298331D01*
X4458980Y3300795D01*
X4458729Y3303276D01*
X4458604Y3305765D01*
Y3308254D01*
X4458729Y3310749D01*
X4458980Y3313228D01*
X4459351Y3315694D01*
X4459844Y3318138D01*
X4460464Y3320548D01*
X4461195Y3322931D01*
X4462051Y3325278D01*
X4463016Y3327576D01*
X4464101Y3329822D01*
X4465290Y3332014D01*
X4466588Y3334135D01*
X4467992Y3336194D01*
X4469504Y3338183D01*
X4471104Y3340096D01*
X4472798Y3341925D01*
X4474581Y3343660D01*
X4476453Y3345316D01*
X4478401Y3346868D01*
X4480423Y3348323D01*
X4482519Y3349672D01*
X4484678Y3350924D01*
X4486898Y3352059D01*
X4489171Y3353085D01*
X4491490Y3353995D01*
X4493855Y3354787D01*
X4496252Y3355463D01*
X4498681Y3356017D01*
X4501139Y3356451D01*
X4503613Y3356763D01*
X4506097Y3356946D01*
X4508592Y3357010D01*
X4618594D01*
X4621083Y3356946D01*
D02*
G37*
G36*
X4563613Y3165011D02*
X4439610D01*
Y3225011D01*
X4563613D01*
Y3165011D01*
D02*
G37*
G36*
Y3085009D02*
X4439610D01*
Y3145011D01*
X4563613D01*
Y3085009D01*
D02*
G37*
G36*
Y3035009D02*
X4439610D01*
Y3065009D01*
X4563613D01*
Y3035009D01*
D02*
G37*
G36*
Y2985009D02*
X4439610D01*
Y3015009D01*
X4563613D01*
Y2985009D01*
D02*
G37*
G36*
Y2935009D02*
X4439610D01*
Y2965009D01*
X4563613D01*
Y2935009D01*
D02*
G37*
G36*
Y2885017D02*
X4439610D01*
Y2915012D01*
X4563613D01*
Y2885017D01*
D02*
G37*
G36*
Y2835017D02*
X4439610D01*
Y2865017D01*
X4563613D01*
Y2835017D01*
D02*
G37*
G36*
Y2785012D02*
X4439610D01*
Y2815017D01*
X4563613D01*
Y2785012D01*
D02*
G37*
G36*
Y2735012D02*
X4439610D01*
Y2765015D01*
X4563613D01*
Y2735012D01*
D02*
G37*
G36*
Y2685012D02*
X4439610D01*
Y2715015D01*
X4563613D01*
Y2685012D01*
D02*
G37*
G36*
Y2605010D02*
X4439610D01*
Y2665015D01*
X4563613D01*
Y2605010D01*
D02*
G37*
G36*
Y2525010D02*
X4439610D01*
Y2585010D01*
X4563613D01*
Y2525010D01*
D02*
G37*
G36*
X5024095Y2492942D02*
X5026579Y2492757D01*
X5029053Y2492445D01*
X5031509Y2492010D01*
X5033940Y2491457D01*
X5036338Y2490783D01*
X5038702Y2489988D01*
X5041021Y2489077D01*
X5043295Y2488053D01*
X5045515Y2486915D01*
X5047669Y2485670D01*
X5049769Y2484319D01*
X5051791Y2482861D01*
X5053739Y2481304D01*
X5055606Y2479653D01*
X5057394Y2477916D01*
X5059088Y2476090D01*
X5060689Y2474177D01*
X5062197Y2472191D01*
X5063602Y2470128D01*
X5064902Y2468005D01*
X5066091Y2465818D01*
X5067176Y2463567D01*
X5068141Y2461271D01*
X5068997Y2458924D01*
X5069728Y2456544D01*
X5070346Y2454129D01*
X5070841Y2451688D01*
X5071212Y2449224D01*
X5071458Y2446742D01*
X5071585Y2444248D01*
Y2441754D01*
X5071458Y2439267D01*
X5071212Y2436786D01*
X5070841Y2434319D01*
X5070346Y2431878D01*
X5069728Y2429465D01*
X5068997Y2427078D01*
X5068141Y2424736D01*
X5067176Y2422442D01*
X5066091Y2420194D01*
X5064902Y2418007D01*
X5063602Y2415879D01*
X5062197Y2413819D01*
X5060689Y2411830D01*
X5059088Y2409917D01*
X5057394Y2408091D01*
X5055606Y2406354D01*
X5053739Y2404698D01*
X5051791Y2403146D01*
X5049769Y2401693D01*
X5047669Y2400342D01*
X5045515Y2399095D01*
X5043295Y2397954D01*
X5041021Y2396930D01*
X5038702Y2396019D01*
X5036338Y2395229D01*
X5033940Y2394550D01*
X5031509Y2393992D01*
X5029053Y2393562D01*
X5026579Y2393253D01*
X5024095Y2393067D01*
X5021601Y2393004D01*
X4941598D01*
X4939106Y2393067D01*
X4936622Y2393253D01*
X4934146Y2393562D01*
X4931690Y2393992D01*
X4929261Y2394550D01*
X4926864Y2395229D01*
X4924499Y2396019D01*
X4922177Y2396930D01*
X4919904Y2397954D01*
X4917687Y2399095D01*
X4915525Y2400342D01*
X4913432Y2401693D01*
X4911408Y2403146D01*
X4909460Y2404698D01*
X4907588Y2406354D01*
X4905805Y2408091D01*
X4904113Y2409917D01*
X4902505Y2411830D01*
X4901001Y2413819D01*
X4899597Y2415879D01*
X4898296Y2418007D01*
X4897102Y2420194D01*
X4896023Y2422442D01*
X4895053Y2424736D01*
X4894202Y2427078D01*
X4893465Y2429465D01*
X4892853Y2431878D01*
X4892358Y2434319D01*
X4891989Y2436786D01*
X4891735Y2439267D01*
X4891614Y2441754D01*
Y2444248D01*
X4891735Y2446742D01*
X4891989Y2449224D01*
X4892358Y2451688D01*
X4892853Y2454129D01*
X4893465Y2456544D01*
X4894202Y2458924D01*
X4895053Y2461271D01*
X4896023Y2463567D01*
X4897102Y2465818D01*
X4898296Y2468005D01*
X4899597Y2470128D01*
X4901001Y2472191D01*
X4902505Y2474177D01*
X4904113Y2476090D01*
X4905805Y2477916D01*
X4907588Y2479653D01*
X4909460Y2481304D01*
X4911408Y2482861D01*
X4913432Y2484319D01*
X4915525Y2485670D01*
X4917687Y2486915D01*
X4919904Y2488053D01*
X4922177Y2489077D01*
X4924499Y2489988D01*
X4926864Y2490783D01*
X4929261Y2491457D01*
X4931690Y2492010D01*
X4934146Y2492445D01*
X4936622Y2492757D01*
X4939106Y2492942D01*
X4941598Y2493003D01*
X5021601D01*
X5024095Y2492942D01*
D02*
G37*
G36*
X4621083D02*
X4623572Y2492757D01*
X4626049Y2492445D01*
X4628500Y2492010D01*
X4630928Y2491457D01*
X4633331Y2490783D01*
X4635696Y2489988D01*
X4638015Y2489077D01*
X4640291Y2488053D01*
X4642503Y2486915D01*
X4644662Y2485670D01*
X4646758Y2484319D01*
X4648784Y2482861D01*
X4650735Y2481304D01*
X4652600Y2479653D01*
X4654390Y2477916D01*
X4656082Y2476090D01*
X4657682Y2474177D01*
X4659188Y2472191D01*
X4660593Y2470128D01*
X4661896Y2468005D01*
X4663087Y2465818D01*
X4664172Y2463567D01*
X4665137Y2461271D01*
X4665990Y2458924D01*
X4666724Y2456544D01*
X4667342Y2454129D01*
X4667834Y2451688D01*
X4668205Y2449224D01*
X4668452Y2446742D01*
X4668576Y2444248D01*
Y2441754D01*
X4668452Y2439267D01*
X4668205Y2436786D01*
X4667834Y2434319D01*
X4667342Y2431878D01*
X4666724Y2429465D01*
X4665990Y2427078D01*
X4665137Y2424736D01*
X4664172Y2422442D01*
X4663087Y2420194D01*
X4661896Y2418007D01*
X4660593Y2415879D01*
X4659188Y2413819D01*
X4657682Y2411830D01*
X4656082Y2409917D01*
X4654390Y2408091D01*
X4652600Y2406354D01*
X4650735Y2404698D01*
X4648784Y2403146D01*
X4646758Y2401693D01*
X4644662Y2400342D01*
X4642503Y2399095D01*
X4640291Y2397954D01*
X4638015Y2396930D01*
X4635696Y2396019D01*
X4633331Y2395229D01*
X4630928Y2394550D01*
X4628500Y2393992D01*
X4626049Y2393562D01*
X4623572Y2393253D01*
X4621083Y2393067D01*
X4618594Y2393004D01*
X4508592D01*
X4506097Y2393067D01*
X4503613Y2393253D01*
X4501139Y2393562D01*
X4498681Y2393992D01*
X4496252Y2394550D01*
X4493855Y2395229D01*
X4491490Y2396019D01*
X4489171Y2396930D01*
X4486898Y2397954D01*
X4484678Y2399095D01*
X4482519Y2400342D01*
X4480423Y2401693D01*
X4478401Y2403146D01*
X4476453Y2404698D01*
X4474581Y2406354D01*
X4472798Y2408091D01*
X4471104Y2409917D01*
X4469504Y2411830D01*
X4467992Y2413819D01*
X4466588Y2415879D01*
X4465290Y2418007D01*
X4464101Y2420194D01*
X4463016Y2422442D01*
X4462051Y2424736D01*
X4461195Y2427078D01*
X4460464Y2429465D01*
X4459844Y2431878D01*
X4459351Y2434319D01*
X4458980Y2436786D01*
X4458729Y2439267D01*
X4458604Y2441754D01*
Y2444248D01*
X4458729Y2446742D01*
X4458980Y2449224D01*
X4459351Y2451688D01*
X4459844Y2454129D01*
X4460464Y2456544D01*
X4461195Y2458924D01*
X4462051Y2461271D01*
X4463016Y2463567D01*
X4464101Y2465818D01*
X4465290Y2468005D01*
X4466588Y2470128D01*
X4467992Y2472191D01*
X4469504Y2474177D01*
X4471104Y2476090D01*
X4472798Y2477916D01*
X4474581Y2479653D01*
X4476453Y2481304D01*
X4478401Y2482861D01*
X4480423Y2484319D01*
X4482519Y2485670D01*
X4484678Y2486915D01*
X4486898Y2488053D01*
X4489171Y2489077D01*
X4491490Y2489988D01*
X4493855Y2490783D01*
X4496252Y2491457D01*
X4498681Y2492010D01*
X4501139Y2492445D01*
X4503613Y2492757D01*
X4506097Y2492942D01*
X4508592Y2493003D01*
X4618594D01*
X4621083Y2492942D01*
D02*
G37*
G36*
X1795003Y2332080D02*
X1730002D01*
Y2292080D01*
X1665000Y2292078D01*
Y2397076D01*
X1795003D01*
Y2332080D01*
D02*
G37*
G36*
X1730002Y1932096D02*
X1795003D01*
Y1867100D01*
X1665000D01*
Y1972099D01*
X1729999D01*
X1730002Y1932096D01*
D02*
G37*
D10*
X4600790Y3893028D02*
D03*
Y3766028D02*
D03*
Y3639028D02*
D03*
Y3512028D02*
D03*
X4990791D02*
D03*
Y4020028D02*
D03*
Y3893028D02*
D03*
Y3766028D02*
D03*
Y3639028D02*
D03*
X4600790Y4020028D02*
D03*
D11*
X4292297Y3825001D02*
D03*
Y3774999D02*
D03*
X4062295D02*
D03*
Y3725001D02*
D03*
X4292297D02*
D03*
X4062295Y3674999D02*
D03*
Y3825001D02*
D03*
X4292297Y3674999D02*
D03*
D12*
X4227298Y3659998D02*
D03*
X4177296D02*
D03*
X4227298Y3840002D02*
D03*
X4177296D02*
D03*
X4127299D02*
D03*
Y3659998D02*
D03*
D13*
X4060000Y4190020D02*
D03*
X3806000Y4524973D02*
D03*
X2790000Y1224978D02*
D03*
Y1559983D02*
D03*
X3298000Y1224978D02*
D03*
X4060000Y1559983D02*
D03*
X3806000D02*
D03*
X3552000D02*
D03*
X3298000D02*
D03*
X3044000D02*
D03*
X3552000Y4524973D02*
D03*
X3806000Y4190020D02*
D03*
X3044000Y1224978D02*
D03*
X4060000D02*
D03*
X3806000D02*
D03*
X3552000D02*
D03*
X3298000Y4524973D02*
D03*
X3044000D02*
D03*
X3552000Y4190020D02*
D03*
X3298000D02*
D03*
X3044000D02*
D03*
X2790000D02*
D03*
D15*
X4290000Y3382502D02*
D03*
X4150000D02*
D03*
X4275000Y2317497D02*
D03*
X3825000Y3517498D02*
D03*
X3750000Y1962505D02*
D03*
X2700000Y3567498D02*
D03*
X2547499D02*
D03*
X2457806Y2497502D02*
D03*
X2306027D02*
D03*
X3350000Y1962502D02*
D03*
X2975000Y1962505D02*
D03*
X4290000Y3517498D02*
D03*
X4150000D02*
D03*
X2700000Y3432502D02*
D03*
X2547499D02*
D03*
X2457806Y2632498D02*
D03*
X3825000Y3382502D02*
D03*
X2975000Y2097501D02*
D03*
X2306027Y2632503D02*
D03*
X4275000Y2182501D02*
D03*
X3750000Y2097501D02*
D03*
X3350000Y2097502D02*
D03*
D16*
X4262296Y2599990D02*
D03*
X4515000Y1389800D02*
D03*
X4345000D02*
D03*
X4515000Y1510200D02*
D03*
X4345000D02*
D03*
X4092296Y2599990D02*
D03*
X4262296Y2724990D02*
D03*
X4092296D02*
D03*
D17*
X4076502Y2326498D02*
D03*
X4026500Y2173499D02*
D03*
X3976503D02*
D03*
X4103000Y2274997D02*
D03*
X4026500Y2326498D02*
D03*
X3976503D02*
D03*
X3950000Y2274997D02*
D03*
Y2225000D02*
D03*
X4076502Y2173499D02*
D03*
X4103000Y2225000D02*
D03*
D18*
X4062295Y2969764D02*
D03*
X4292297Y2874763D02*
D03*
Y3064766D02*
D03*
X4062295Y2874763D02*
D03*
Y3064766D02*
D03*
X4292297Y2969764D02*
D03*
D19*
X3985000Y3530000D02*
D03*
X3575000Y1920000D02*
D03*
X2385000Y3549998D02*
D03*
Y3389999D02*
D03*
X3575000Y2080000D02*
D03*
X3985000Y3370000D02*
D03*
D20*
X3958997Y2052502D02*
D03*
X2427499Y3203951D02*
D03*
X2292498D02*
D03*
X4093998Y2052502D02*
D03*
D21*
X2925001Y3434999D02*
D03*
X3425005Y2315001D02*
D03*
X2925001D02*
D03*
X3025001Y3434999D02*
D03*
X2975004D02*
D03*
X3475003D02*
D03*
X3275003D02*
D03*
X3025001Y2315001D02*
D03*
X3125001D02*
D03*
X3175003D02*
D03*
X3075004D02*
D03*
X3525005D02*
D03*
X3475003D02*
D03*
X3225001Y3434999D02*
D03*
X3525005D02*
D03*
X3575003D02*
D03*
X3125001D02*
D03*
X3325000D02*
D03*
X3625005D02*
D03*
X3325000Y2315001D02*
D03*
X3275003D02*
D03*
X3225001D02*
D03*
X2875004D02*
D03*
X3375003D02*
D03*
X3075004Y3434999D02*
D03*
X3175003D02*
D03*
X3375003D02*
D03*
X3425005D02*
D03*
X3625005Y2315001D02*
D03*
X2975004D02*
D03*
X2875004Y3434999D02*
D03*
X3575003Y2315001D02*
D03*
D22*
X2690000Y2699999D02*
D03*
Y2550002D02*
D03*
Y2599999D02*
D03*
X3810003Y3050001D02*
D03*
Y3099998D02*
D03*
X2690000Y3199998D02*
D03*
X3810003Y2699999D02*
D03*
Y2750002D02*
D03*
Y2999999D02*
D03*
Y2799999D02*
D03*
Y3199998D02*
D03*
Y3150001D02*
D03*
Y2950001D02*
D03*
Y2899999D02*
D03*
X2690000Y2500000D02*
D03*
Y2799999D02*
D03*
Y2850001D02*
D03*
Y2899999D02*
D03*
Y3099998D02*
D03*
Y3150001D02*
D03*
Y2950001D02*
D03*
X3810003Y2550002D02*
D03*
Y2650002D02*
D03*
Y2500000D02*
D03*
Y2599999D02*
D03*
X2690000Y3050001D02*
D03*
Y2999999D02*
D03*
X3810003Y2850001D02*
D03*
X2690000Y2750002D02*
D03*
Y2650002D02*
D03*
Y3250001D02*
D03*
X3810003D02*
D03*
D23*
X2445002Y3025000D02*
D03*
X2275000Y2804985D02*
D03*
Y3025000D02*
D03*
X2445002Y2804985D02*
D03*
D24*
X1960200Y3647387D02*
D03*
Y3817384D02*
D03*
D25*
X1925000Y1962073D02*
D03*
Y2302073D02*
D03*
D26*
X1995009Y3064766D02*
D03*
Y2964766D02*
D03*
Y2864766D02*
D03*
D27*
X5027701Y2165299D02*
D03*
X4872299Y2165302D02*
D03*
X1822299Y3651105D02*
D03*
D28*
X4872299Y2000303D02*
D03*
X1822299Y3816104D02*
D03*
X5027701Y2000301D02*
D03*
D29*
X1704992Y2689760D02*
D03*
Y3239772D02*
D03*
X1925007Y2689760D02*
D03*
Y3239772D02*
D03*
%TF.MD5,251044f7895cad54adf935d9744110bc*%
M02*
